<?xml version="1.0" encoding="utf-8" standalone="no"?>
<!DOCTYPE svg PUBLIC "-//W3C//DTD SVG 1.1//EN"
  "http://www.w3.org/Graphics/SVG/1.1/DTD/svg11.dtd">
<!-- Created with matplotlib (https://matplotlib.org/) -->
<svg height="388.844525pt" version="1.1" viewBox="0 0 1000.278125 388.844525" width="1000.278125pt" xmlns="http://www.w3.org/2000/svg" xmlns:xlink="http://www.w3.org/1999/xlink">
 <defs>
  <style type="text/css">
*{stroke-linecap:butt;stroke-linejoin:round;}
  </style>
 </defs>
 <g id="figure_1">
  <g id="axes_1">
   <g id="patch_1">
    <path d="M 43.148125 353.2239 
L 993.078125 353.2239 
L 993.078125 35.2559 
L 43.148125 35.2559 
z
" style="fill:#ffffff;"/>
   </g>
   <g id="matplotlib.axis_1">
    <g id="xtick_1">
     <g id="text_1">
      <!-- 0 -->
      <defs>
       <path d="M 31.78125 66.40625 
Q 24.171875 66.40625 20.328125 58.90625 
Q 16.5 51.421875 16.5 36.375 
Q 16.5 21.390625 20.328125 13.890625 
Q 24.171875 6.390625 31.78125 6.390625 
Q 39.453125 6.390625 43.28125 13.890625 
Q 47.125 21.390625 47.125 36.375 
Q 47.125 51.421875 43.28125 58.90625 
Q 39.453125 66.40625 31.78125 66.40625 
z
M 31.78125 74.21875 
Q 44.046875 74.21875 50.515625 64.515625 
Q 56.984375 54.828125 56.984375 36.375 
Q 56.984375 17.96875 50.515625 8.265625 
Q 44.046875 -1.421875 31.78125 -1.421875 
Q 19.53125 -1.421875 13.0625 8.265625 
Q 6.59375 17.96875 6.59375 36.375 
Q 6.59375 54.828125 13.0625 64.515625 
Q 19.53125 74.21875 31.78125 74.21875 
z
" id="DejaVuSans-48"/>
      </defs>
      <g transform="translate(54.996004 366.30265)scale(0.08 -0.08)">
       <use xlink:href="#DejaVuSans-48"/>
      </g>
     </g>
    </g>
    <g id="xtick_2">
     <g id="text_2">
      <!-- 5 -->
      <defs>
       <path d="M 10.796875 72.90625 
L 49.515625 72.90625 
L 49.515625 64.59375 
L 19.828125 64.59375 
L 19.828125 46.734375 
Q 21.96875 47.46875 24.109375 47.828125 
Q 26.265625 48.1875 28.421875 48.1875 
Q 40.625 48.1875 47.75 41.5 
Q 54.890625 34.8125 54.890625 23.390625 
Q 54.890625 11.625 47.5625 5.09375 
Q 40.234375 -1.421875 26.90625 -1.421875 
Q 22.3125 -1.421875 17.546875 -0.640625 
Q 12.796875 0.140625 7.71875 1.703125 
L 7.71875 11.625 
Q 12.109375 9.234375 16.796875 8.0625 
Q 21.484375 6.890625 26.703125 6.890625 
Q 35.15625 6.890625 40.078125 11.328125 
Q 45.015625 15.765625 45.015625 23.390625 
Q 45.015625 31 40.078125 35.4375 
Q 35.15625 39.890625 26.703125 39.890625 
Q 22.75 39.890625 18.8125 39.015625 
Q 14.890625 38.140625 10.796875 36.28125 
z
" id="DejaVuSans-53"/>
      </defs>
      <g transform="translate(198.924792 366.30265)scale(0.08 -0.08)">
       <use xlink:href="#DejaVuSans-53"/>
      </g>
     </g>
    </g>
    <g id="xtick_3">
     <g id="text_3">
      <!-- 10 -->
      <defs>
       <path d="M 12.40625 8.296875 
L 28.515625 8.296875 
L 28.515625 63.921875 
L 10.984375 60.40625 
L 10.984375 69.390625 
L 28.421875 72.90625 
L 38.28125 72.90625 
L 38.28125 8.296875 
L 54.390625 8.296875 
L 54.390625 0 
L 12.40625 0 
z
" id="DejaVuSans-49"/>
      </defs>
      <g transform="translate(340.30858 366.30265)scale(0.08 -0.08)">
       <use xlink:href="#DejaVuSans-49"/>
       <use x="63.623047" xlink:href="#DejaVuSans-48"/>
      </g>
     </g>
    </g>
    <g id="xtick_4">
     <g id="text_4">
      <!-- 15 -->
      <g transform="translate(484.237367 366.30265)scale(0.08 -0.08)">
       <use xlink:href="#DejaVuSans-49"/>
       <use x="63.623047" xlink:href="#DejaVuSans-53"/>
      </g>
     </g>
    </g>
    <g id="xtick_5">
     <g id="text_5">
      <!-- 20 -->
      <defs>
       <path d="M 19.1875 8.296875 
L 53.609375 8.296875 
L 53.609375 0 
L 7.328125 0 
L 7.328125 8.296875 
Q 12.9375 14.109375 22.625 23.890625 
Q 32.328125 33.6875 34.8125 36.53125 
Q 39.546875 41.84375 41.421875 45.53125 
Q 43.3125 49.21875 43.3125 52.78125 
Q 43.3125 58.59375 39.234375 62.25 
Q 35.15625 65.921875 28.609375 65.921875 
Q 23.96875 65.921875 18.8125 64.3125 
Q 13.671875 62.703125 7.8125 59.421875 
L 7.8125 69.390625 
Q 13.765625 71.78125 18.9375 73 
Q 24.125 74.21875 28.421875 74.21875 
Q 39.75 74.21875 46.484375 68.546875 
Q 53.21875 62.890625 53.21875 53.421875 
Q 53.21875 48.921875 51.53125 44.890625 
Q 49.859375 40.875 45.40625 35.40625 
Q 44.1875 33.984375 37.640625 27.21875 
Q 31.109375 20.453125 19.1875 8.296875 
z
" id="DejaVuSans-50"/>
      </defs>
      <g transform="translate(628.166155 366.30265)scale(0.08 -0.08)">
       <use xlink:href="#DejaVuSans-50"/>
       <use x="63.623047" xlink:href="#DejaVuSans-48"/>
      </g>
     </g>
    </g>
    <g id="xtick_6">
     <g id="text_6">
      <!-- 25 -->
      <g transform="translate(772.094943 366.30265)scale(0.08 -0.08)">
       <use xlink:href="#DejaVuSans-50"/>
       <use x="63.623047" xlink:href="#DejaVuSans-53"/>
      </g>
     </g>
    </g>
    <g id="xtick_7">
     <g id="text_7">
      <!-- 30 -->
      <defs>
       <path d="M 40.578125 39.3125 
Q 47.65625 37.796875 51.625 33 
Q 55.609375 28.21875 55.609375 21.1875 
Q 55.609375 10.40625 48.1875 4.484375 
Q 40.765625 -1.421875 27.09375 -1.421875 
Q 22.515625 -1.421875 17.65625 -0.515625 
Q 12.796875 0.390625 7.625 2.203125 
L 7.625 11.71875 
Q 11.71875 9.328125 16.59375 8.109375 
Q 21.484375 6.890625 26.8125 6.890625 
Q 36.078125 6.890625 40.9375 10.546875 
Q 45.796875 14.203125 45.796875 21.1875 
Q 45.796875 27.640625 41.28125 31.265625 
Q 36.765625 34.90625 28.71875 34.90625 
L 20.21875 34.90625 
L 20.21875 43.015625 
L 29.109375 43.015625 
Q 36.375 43.015625 40.234375 45.921875 
Q 44.09375 48.828125 44.09375 54.296875 
Q 44.09375 59.90625 40.109375 62.90625 
Q 36.140625 65.921875 28.71875 65.921875 
Q 24.65625 65.921875 20.015625 65.03125 
Q 15.375 64.15625 9.8125 62.3125 
L 9.8125 71.09375 
Q 15.4375 72.65625 20.34375 73.4375 
Q 25.25 74.21875 29.59375 74.21875 
Q 40.828125 74.21875 47.359375 69.109375 
Q 53.90625 64.015625 53.90625 55.328125 
Q 53.90625 49.265625 50.4375 45.09375 
Q 46.96875 40.921875 40.578125 39.3125 
z
" id="DejaVuSans-51"/>
      </defs>
      <g transform="translate(916.023731 366.30265)scale(0.08 -0.08)">
       <use xlink:href="#DejaVuSans-51"/>
       <use x="63.623047" xlink:href="#DejaVuSans-48"/>
      </g>
     </g>
    </g>
    <g id="text_8">
     <!-- Duplication level -->
     <defs>
      <path d="M 19.671875 64.796875 
L 19.671875 8.109375 
L 31.59375 8.109375 
Q 46.6875 8.109375 53.6875 14.9375 
Q 60.6875 21.78125 60.6875 36.53125 
Q 60.6875 51.171875 53.6875 57.984375 
Q 46.6875 64.796875 31.59375 64.796875 
z
M 9.8125 72.90625 
L 30.078125 72.90625 
Q 51.265625 72.90625 61.171875 64.09375 
Q 71.09375 55.28125 71.09375 36.53125 
Q 71.09375 17.671875 61.125 8.828125 
Q 51.171875 0 30.078125 0 
L 9.8125 0 
z
" id="DejaVuSans-68"/>
      <path d="M 8.5 21.578125 
L 8.5 54.6875 
L 17.484375 54.6875 
L 17.484375 21.921875 
Q 17.484375 14.15625 20.5 10.265625 
Q 23.53125 6.390625 29.59375 6.390625 
Q 36.859375 6.390625 41.078125 11.03125 
Q 45.3125 15.671875 45.3125 23.6875 
L 45.3125 54.6875 
L 54.296875 54.6875 
L 54.296875 0 
L 45.3125 0 
L 45.3125 8.40625 
Q 42.046875 3.421875 37.71875 1 
Q 33.40625 -1.421875 27.6875 -1.421875 
Q 18.265625 -1.421875 13.375 4.4375 
Q 8.5 10.296875 8.5 21.578125 
z
M 31.109375 56 
z
" id="DejaVuSans-117"/>
      <path d="M 18.109375 8.203125 
L 18.109375 -20.796875 
L 9.078125 -20.796875 
L 9.078125 54.6875 
L 18.109375 54.6875 
L 18.109375 46.390625 
Q 20.953125 51.265625 25.265625 53.625 
Q 29.59375 56 35.59375 56 
Q 45.5625 56 51.78125 48.09375 
Q 58.015625 40.1875 58.015625 27.296875 
Q 58.015625 14.40625 51.78125 6.484375 
Q 45.5625 -1.421875 35.59375 -1.421875 
Q 29.59375 -1.421875 25.265625 0.953125 
Q 20.953125 3.328125 18.109375 8.203125 
z
M 48.6875 27.296875 
Q 48.6875 37.203125 44.609375 42.84375 
Q 40.53125 48.484375 33.40625 48.484375 
Q 26.265625 48.484375 22.1875 42.84375 
Q 18.109375 37.203125 18.109375 27.296875 
Q 18.109375 17.390625 22.1875 11.75 
Q 26.265625 6.109375 33.40625 6.109375 
Q 40.53125 6.109375 44.609375 11.75 
Q 48.6875 17.390625 48.6875 27.296875 
z
" id="DejaVuSans-112"/>
      <path d="M 9.421875 75.984375 
L 18.40625 75.984375 
L 18.40625 0 
L 9.421875 0 
z
" id="DejaVuSans-108"/>
      <path d="M 9.421875 54.6875 
L 18.40625 54.6875 
L 18.40625 0 
L 9.421875 0 
z
M 9.421875 75.984375 
L 18.40625 75.984375 
L 18.40625 64.59375 
L 9.421875 64.59375 
z
" id="DejaVuSans-105"/>
      <path d="M 48.78125 52.59375 
L 48.78125 44.1875 
Q 44.96875 46.296875 41.140625 47.34375 
Q 37.3125 48.390625 33.40625 48.390625 
Q 24.65625 48.390625 19.8125 42.84375 
Q 14.984375 37.3125 14.984375 27.296875 
Q 14.984375 17.28125 19.8125 11.734375 
Q 24.65625 6.203125 33.40625 6.203125 
Q 37.3125 6.203125 41.140625 7.25 
Q 44.96875 8.296875 48.78125 10.40625 
L 48.78125 2.09375 
Q 45.015625 0.34375 40.984375 -0.53125 
Q 36.96875 -1.421875 32.421875 -1.421875 
Q 20.0625 -1.421875 12.78125 6.34375 
Q 5.515625 14.109375 5.515625 27.296875 
Q 5.515625 40.671875 12.859375 48.328125 
Q 20.21875 56 33.015625 56 
Q 37.15625 56 41.109375 55.140625 
Q 45.0625 54.296875 48.78125 52.59375 
z
" id="DejaVuSans-99"/>
      <path d="M 34.28125 27.484375 
Q 23.390625 27.484375 19.1875 25 
Q 14.984375 22.515625 14.984375 16.5 
Q 14.984375 11.71875 18.140625 8.90625 
Q 21.296875 6.109375 26.703125 6.109375 
Q 34.1875 6.109375 38.703125 11.40625 
Q 43.21875 16.703125 43.21875 25.484375 
L 43.21875 27.484375 
z
M 52.203125 31.203125 
L 52.203125 0 
L 43.21875 0 
L 43.21875 8.296875 
Q 40.140625 3.328125 35.546875 0.953125 
Q 30.953125 -1.421875 24.3125 -1.421875 
Q 15.921875 -1.421875 10.953125 3.296875 
Q 6 8.015625 6 15.921875 
Q 6 25.140625 12.171875 29.828125 
Q 18.359375 34.515625 30.609375 34.515625 
L 43.21875 34.515625 
L 43.21875 35.40625 
Q 43.21875 41.609375 39.140625 45 
Q 35.0625 48.390625 27.6875 48.390625 
Q 23 48.390625 18.546875 47.265625 
Q 14.109375 46.140625 10.015625 43.890625 
L 10.015625 52.203125 
Q 14.9375 54.109375 19.578125 55.046875 
Q 24.21875 56 28.609375 56 
Q 40.484375 56 46.34375 49.84375 
Q 52.203125 43.703125 52.203125 31.203125 
z
" id="DejaVuSans-97"/>
      <path d="M 18.3125 70.21875 
L 18.3125 54.6875 
L 36.8125 54.6875 
L 36.8125 47.703125 
L 18.3125 47.703125 
L 18.3125 18.015625 
Q 18.3125 11.328125 20.140625 9.421875 
Q 21.96875 7.515625 27.59375 7.515625 
L 36.8125 7.515625 
L 36.8125 0 
L 27.59375 0 
Q 17.1875 0 13.234375 3.875 
Q 9.28125 7.765625 9.28125 18.015625 
L 9.28125 47.703125 
L 2.6875 47.703125 
L 2.6875 54.6875 
L 9.28125 54.6875 
L 9.28125 70.21875 
z
" id="DejaVuSans-116"/>
      <path d="M 30.609375 48.390625 
Q 23.390625 48.390625 19.1875 42.75 
Q 14.984375 37.109375 14.984375 27.296875 
Q 14.984375 17.484375 19.15625 11.84375 
Q 23.34375 6.203125 30.609375 6.203125 
Q 37.796875 6.203125 41.984375 11.859375 
Q 46.1875 17.53125 46.1875 27.296875 
Q 46.1875 37.015625 41.984375 42.703125 
Q 37.796875 48.390625 30.609375 48.390625 
z
M 30.609375 56 
Q 42.328125 56 49.015625 48.375 
Q 55.71875 40.765625 55.71875 27.296875 
Q 55.71875 13.875 49.015625 6.21875 
Q 42.328125 -1.421875 30.609375 -1.421875 
Q 18.84375 -1.421875 12.171875 6.21875 
Q 5.515625 13.875 5.515625 27.296875 
Q 5.515625 40.765625 12.171875 48.375 
Q 18.84375 56 30.609375 56 
z
" id="DejaVuSans-111"/>
      <path d="M 54.890625 33.015625 
L 54.890625 0 
L 45.90625 0 
L 45.90625 32.71875 
Q 45.90625 40.484375 42.875 44.328125 
Q 39.84375 48.1875 33.796875 48.1875 
Q 26.515625 48.1875 22.3125 43.546875 
Q 18.109375 38.921875 18.109375 30.90625 
L 18.109375 0 
L 9.078125 0 
L 9.078125 54.6875 
L 18.109375 54.6875 
L 18.109375 46.1875 
Q 21.34375 51.125 25.703125 53.5625 
Q 30.078125 56 35.796875 56 
Q 45.21875 56 50.046875 50.171875 
Q 54.890625 44.34375 54.890625 33.015625 
z
" id="DejaVuSans-110"/>
      <path id="DejaVuSans-32"/>
      <path d="M 56.203125 29.59375 
L 56.203125 25.203125 
L 14.890625 25.203125 
Q 15.484375 15.921875 20.484375 11.0625 
Q 25.484375 6.203125 34.421875 6.203125 
Q 39.59375 6.203125 44.453125 7.46875 
Q 49.3125 8.734375 54.109375 11.28125 
L 54.109375 2.78125 
Q 49.265625 0.734375 44.1875 -0.34375 
Q 39.109375 -1.421875 33.890625 -1.421875 
Q 20.796875 -1.421875 13.15625 6.1875 
Q 5.515625 13.8125 5.515625 26.8125 
Q 5.515625 40.234375 12.765625 48.109375 
Q 20.015625 56 32.328125 56 
Q 43.359375 56 49.78125 48.890625 
Q 56.203125 41.796875 56.203125 29.59375 
z
M 47.21875 32.234375 
Q 47.125 39.59375 43.09375 43.984375 
Q 39.0625 48.390625 32.421875 48.390625 
Q 24.90625 48.390625 20.390625 44.140625 
Q 15.875 39.890625 15.1875 32.171875 
z
" id="DejaVuSans-101"/>
      <path d="M 2.984375 54.6875 
L 12.5 54.6875 
L 29.59375 8.796875 
L 46.6875 54.6875 
L 56.203125 54.6875 
L 35.6875 0 
L 23.484375 0 
z
" id="DejaVuSans-118"/>
     </defs>
     <g transform="translate(476.271719 379.564837)scale(0.1 -0.1)">
      <use xlink:href="#DejaVuSans-68"/>
      <use x="77.001953" xlink:href="#DejaVuSans-117"/>
      <use x="140.380859" xlink:href="#DejaVuSans-112"/>
      <use x="203.857422" xlink:href="#DejaVuSans-108"/>
      <use x="231.640625" xlink:href="#DejaVuSans-105"/>
      <use x="259.423828" xlink:href="#DejaVuSans-99"/>
      <use x="314.404297" xlink:href="#DejaVuSans-97"/>
      <use x="375.683594" xlink:href="#DejaVuSans-116"/>
      <use x="414.892578" xlink:href="#DejaVuSans-105"/>
      <use x="442.675781" xlink:href="#DejaVuSans-111"/>
      <use x="503.857422" xlink:href="#DejaVuSans-110"/>
      <use x="567.236328" xlink:href="#DejaVuSans-32"/>
      <use x="599.023438" xlink:href="#DejaVuSans-108"/>
      <use x="626.806641" xlink:href="#DejaVuSans-101"/>
      <use x="688.330078" xlink:href="#DejaVuSans-118"/>
      <use x="747.509766" xlink:href="#DejaVuSans-101"/>
      <use x="809.033203" xlink:href="#DejaVuSans-108"/>
     </g>
    </g>
   </g>
   <g id="matplotlib.axis_2">
    <g id="ytick_1">
     <g id="line2d_1">
      <path clip-path="url(#p2a8c820bf8)" d="M 43.148125 353.2239 
L 993.078125 353.2239 
" style="fill:none;stroke:#dedede;stroke-linecap:square;"/>
     </g>
     <g id="text_9">
      <!-- 0 -->
      <g transform="translate(31.058125 356.263275)scale(0.08 -0.08)">
       <use xlink:href="#DejaVuSans-48"/>
      </g>
     </g>
    </g>
    <g id="ytick_2">
     <g id="line2d_2">
      <path clip-path="url(#p2a8c820bf8)" d="M 43.148125 289.6303 
L 993.078125 289.6303 
" style="fill:none;stroke:#dedede;stroke-linecap:square;"/>
     </g>
     <g id="text_10">
      <!-- 20 -->
      <g transform="translate(25.968125 292.669675)scale(0.08 -0.08)">
       <use xlink:href="#DejaVuSans-50"/>
       <use x="63.623047" xlink:href="#DejaVuSans-48"/>
      </g>
     </g>
    </g>
    <g id="ytick_3">
     <g id="line2d_3">
      <path clip-path="url(#p2a8c820bf8)" d="M 43.148125 226.0367 
L 993.078125 226.0367 
" style="fill:none;stroke:#dedede;stroke-linecap:square;"/>
     </g>
     <g id="text_11">
      <!-- 40 -->
      <defs>
       <path d="M 37.796875 64.3125 
L 12.890625 25.390625 
L 37.796875 25.390625 
z
M 35.203125 72.90625 
L 47.609375 72.90625 
L 47.609375 25.390625 
L 58.015625 25.390625 
L 58.015625 17.1875 
L 47.609375 17.1875 
L 47.609375 0 
L 37.796875 0 
L 37.796875 17.1875 
L 4.890625 17.1875 
L 4.890625 26.703125 
z
" id="DejaVuSans-52"/>
      </defs>
      <g transform="translate(25.968125 229.076075)scale(0.08 -0.08)">
       <use xlink:href="#DejaVuSans-52"/>
       <use x="63.623047" xlink:href="#DejaVuSans-48"/>
      </g>
     </g>
    </g>
    <g id="ytick_4">
     <g id="line2d_4">
      <path clip-path="url(#p2a8c820bf8)" d="M 43.148125 162.4431 
L 993.078125 162.4431 
" style="fill:none;stroke:#dedede;stroke-linecap:square;"/>
     </g>
     <g id="text_12">
      <!-- 60 -->
      <defs>
       <path d="M 33.015625 40.375 
Q 26.375 40.375 22.484375 35.828125 
Q 18.609375 31.296875 18.609375 23.390625 
Q 18.609375 15.53125 22.484375 10.953125 
Q 26.375 6.390625 33.015625 6.390625 
Q 39.65625 6.390625 43.53125 10.953125 
Q 47.40625 15.53125 47.40625 23.390625 
Q 47.40625 31.296875 43.53125 35.828125 
Q 39.65625 40.375 33.015625 40.375 
z
M 52.59375 71.296875 
L 52.59375 62.3125 
Q 48.875 64.0625 45.09375 64.984375 
Q 41.3125 65.921875 37.59375 65.921875 
Q 27.828125 65.921875 22.671875 59.328125 
Q 17.53125 52.734375 16.796875 39.40625 
Q 19.671875 43.65625 24.015625 45.921875 
Q 28.375 48.1875 33.59375 48.1875 
Q 44.578125 48.1875 50.953125 41.515625 
Q 57.328125 34.859375 57.328125 23.390625 
Q 57.328125 12.15625 50.6875 5.359375 
Q 44.046875 -1.421875 33.015625 -1.421875 
Q 20.359375 -1.421875 13.671875 8.265625 
Q 6.984375 17.96875 6.984375 36.375 
Q 6.984375 53.65625 15.1875 63.9375 
Q 23.390625 74.21875 37.203125 74.21875 
Q 40.921875 74.21875 44.703125 73.484375 
Q 48.484375 72.75 52.59375 71.296875 
z
" id="DejaVuSans-54"/>
      </defs>
      <g transform="translate(25.968125 165.482475)scale(0.08 -0.08)">
       <use xlink:href="#DejaVuSans-54"/>
       <use x="63.623047" xlink:href="#DejaVuSans-48"/>
      </g>
     </g>
    </g>
    <g id="ytick_5">
     <g id="line2d_5">
      <path clip-path="url(#p2a8c820bf8)" d="M 43.148125 98.8495 
L 993.078125 98.8495 
" style="fill:none;stroke:#dedede;stroke-linecap:square;"/>
     </g>
     <g id="text_13">
      <!-- 80 -->
      <defs>
       <path d="M 31.78125 34.625 
Q 24.75 34.625 20.71875 30.859375 
Q 16.703125 27.09375 16.703125 20.515625 
Q 16.703125 13.921875 20.71875 10.15625 
Q 24.75 6.390625 31.78125 6.390625 
Q 38.8125 6.390625 42.859375 10.171875 
Q 46.921875 13.96875 46.921875 20.515625 
Q 46.921875 27.09375 42.890625 30.859375 
Q 38.875 34.625 31.78125 34.625 
z
M 21.921875 38.8125 
Q 15.578125 40.375 12.03125 44.71875 
Q 8.5 49.078125 8.5 55.328125 
Q 8.5 64.0625 14.71875 69.140625 
Q 20.953125 74.21875 31.78125 74.21875 
Q 42.671875 74.21875 48.875 69.140625 
Q 55.078125 64.0625 55.078125 55.328125 
Q 55.078125 49.078125 51.53125 44.71875 
Q 48 40.375 41.703125 38.8125 
Q 48.828125 37.15625 52.796875 32.3125 
Q 56.78125 27.484375 56.78125 20.515625 
Q 56.78125 9.90625 50.3125 4.234375 
Q 43.84375 -1.421875 31.78125 -1.421875 
Q 19.734375 -1.421875 13.25 4.234375 
Q 6.78125 9.90625 6.78125 20.515625 
Q 6.78125 27.484375 10.78125 32.3125 
Q 14.796875 37.15625 21.921875 38.8125 
z
M 18.3125 54.390625 
Q 18.3125 48.734375 21.84375 45.5625 
Q 25.390625 42.390625 31.78125 42.390625 
Q 38.140625 42.390625 41.71875 45.5625 
Q 45.3125 48.734375 45.3125 54.390625 
Q 45.3125 60.0625 41.71875 63.234375 
Q 38.140625 66.40625 31.78125 66.40625 
Q 25.390625 66.40625 21.84375 63.234375 
Q 18.3125 60.0625 18.3125 54.390625 
z
" id="DejaVuSans-56"/>
      </defs>
      <g transform="translate(25.968125 101.888875)scale(0.08 -0.08)">
       <use xlink:href="#DejaVuSans-56"/>
       <use x="63.623047" xlink:href="#DejaVuSans-48"/>
      </g>
     </g>
    </g>
    <g id="ytick_6">
     <g id="line2d_6">
      <path clip-path="url(#p2a8c820bf8)" d="M 43.148125 35.2559 
L 993.078125 35.2559 
" style="fill:none;stroke:#dedede;stroke-linecap:square;"/>
     </g>
     <g id="text_14">
      <!-- 100 -->
      <g transform="translate(20.878125 38.295275)scale(0.08 -0.08)">
       <use xlink:href="#DejaVuSans-49"/>
       <use x="63.623047" xlink:href="#DejaVuSans-48"/>
       <use x="127.246094" xlink:href="#DejaVuSans-48"/>
      </g>
     </g>
    </g>
    <g id="text_15">
     <!-- Read percent -->
     <defs>
      <path d="M 44.390625 34.1875 
Q 47.5625 33.109375 50.5625 29.59375 
Q 53.5625 26.078125 56.59375 19.921875 
L 66.609375 0 
L 56 0 
L 46.6875 18.703125 
Q 43.0625 26.03125 39.671875 28.421875 
Q 36.28125 30.8125 30.421875 30.8125 
L 19.671875 30.8125 
L 19.671875 0 
L 9.8125 0 
L 9.8125 72.90625 
L 32.078125 72.90625 
Q 44.578125 72.90625 50.734375 67.671875 
Q 56.890625 62.453125 56.890625 51.90625 
Q 56.890625 45.015625 53.6875 40.46875 
Q 50.484375 35.9375 44.390625 34.1875 
z
M 19.671875 64.796875 
L 19.671875 38.921875 
L 32.078125 38.921875 
Q 39.203125 38.921875 42.84375 42.21875 
Q 46.484375 45.515625 46.484375 51.90625 
Q 46.484375 58.296875 42.84375 61.546875 
Q 39.203125 64.796875 32.078125 64.796875 
z
" id="DejaVuSans-82"/>
      <path d="M 45.40625 46.390625 
L 45.40625 75.984375 
L 54.390625 75.984375 
L 54.390625 0 
L 45.40625 0 
L 45.40625 8.203125 
Q 42.578125 3.328125 38.25 0.953125 
Q 33.9375 -1.421875 27.875 -1.421875 
Q 17.96875 -1.421875 11.734375 6.484375 
Q 5.515625 14.40625 5.515625 27.296875 
Q 5.515625 40.1875 11.734375 48.09375 
Q 17.96875 56 27.875 56 
Q 33.9375 56 38.25 53.625 
Q 42.578125 51.265625 45.40625 46.390625 
z
M 14.796875 27.296875 
Q 14.796875 17.390625 18.875 11.75 
Q 22.953125 6.109375 30.078125 6.109375 
Q 37.203125 6.109375 41.296875 11.75 
Q 45.40625 17.390625 45.40625 27.296875 
Q 45.40625 37.203125 41.296875 42.84375 
Q 37.203125 48.484375 30.078125 48.484375 
Q 22.953125 48.484375 18.875 42.84375 
Q 14.796875 37.203125 14.796875 27.296875 
z
" id="DejaVuSans-100"/>
      <path d="M 41.109375 46.296875 
Q 39.59375 47.171875 37.8125 47.578125 
Q 36.03125 48 33.890625 48 
Q 26.265625 48 22.1875 43.046875 
Q 18.109375 38.09375 18.109375 28.8125 
L 18.109375 0 
L 9.078125 0 
L 9.078125 54.6875 
L 18.109375 54.6875 
L 18.109375 46.1875 
Q 20.953125 51.171875 25.484375 53.578125 
Q 30.03125 56 36.53125 56 
Q 37.453125 56 38.578125 55.875 
Q 39.703125 55.765625 41.0625 55.515625 
z
" id="DejaVuSans-114"/>
     </defs>
     <g transform="translate(14.798437 227.874275)rotate(-90)scale(0.1 -0.1)">
      <use xlink:href="#DejaVuSans-82"/>
      <use x="69.419922" xlink:href="#DejaVuSans-101"/>
      <use x="130.943359" xlink:href="#DejaVuSans-97"/>
      <use x="192.222656" xlink:href="#DejaVuSans-100"/>
      <use x="255.699219" xlink:href="#DejaVuSans-32"/>
      <use x="287.486328" xlink:href="#DejaVuSans-112"/>
      <use x="350.962891" xlink:href="#DejaVuSans-101"/>
      <use x="412.486328" xlink:href="#DejaVuSans-114"/>
      <use x="453.568359" xlink:href="#DejaVuSans-99"/>
      <use x="508.548828" xlink:href="#DejaVuSans-101"/>
      <use x="570.072266" xlink:href="#DejaVuSans-110"/>
      <use x="633.451172" xlink:href="#DejaVuSans-116"/>
     </g>
    </g>
   </g>
   <g id="line2d_7">
    <path clip-path="url(#p2a8c820bf8)" d="M 86.326761 59.404541 
L 115.112519 332.037557 
L 143.898277 350.929262 
L 172.684034 352.834827 
L 201.469792 353.106287 
L 230.255549 353.152026 
L 259.041307 353.190636 
L 287.827064 353.206674 
L 316.612822 353.20905 
L 345.39858 353.21796 
L 374.184337 353.218554 
L 402.970095 353.221524 
L 431.755852 353.221524 
L 460.54161 353.2239 
L 489.327367 353.2239 
L 518.113125 353.223306 
L 546.898883 353.2239 
L 575.68464 353.223306 
L 604.470398 353.2239 
L 633.256155 353.223306 
L 662.041913 353.2239 
L 690.82767 353.2239 
L 719.613428 353.2239 
L 748.399186 353.223306 
L 777.184943 353.223306 
L 805.970701 353.2239 
L 834.756458 353.2239 
L 863.542216 353.2239 
L 892.327973 353.2239 
L 921.113731 353.2239 
L 949.899489 353.219148 
" style="fill:none;stroke:#7cb5ec;stroke-linecap:square;"/>
   </g>
   <g id="line2d_8">
    <path clip-path="url(#p2a8c820bf8)" d="M 86.326761 60.749488 
L 115.112519 332.003624 
L 143.898277 350.295141 
L 172.684034 352.461364 
L 201.469792 352.978021 
L 230.255549 353.105629 
L 259.041307 353.15854 
L 287.827064 353.170989 
L 316.612822 353.189664 
L 345.39858 353.202113 
L 374.184337 353.21145 
L 402.970095 353.220788 
L 431.755852 353.220788 
L 460.54161 353.2239 
L 489.327367 353.220788 
L 518.113125 353.2239 
L 546.898883 353.220788 
L 575.68464 353.2239 
L 604.470398 353.2239 
L 633.256155 353.2239 
L 662.041913 353.2239 
L 690.82767 353.2239 
L 719.613428 353.2239 
L 748.399186 353.2239 
L 777.184943 353.220788 
L 805.970701 353.2239 
L 834.756458 353.2239 
L 863.542216 353.2239 
L 892.327973 353.2239 
L 921.113731 353.220788 
L 949.899489 353.21145 
" style="fill:none;stroke:#434348;stroke-linecap:square;"/>
   </g>
   <g id="line2d_9">
    <path clip-path="url(#p2a8c820bf8)" d="M 86.326761 57.820551 
L 115.112519 332.999501 
L 143.898277 351.367878 
L 172.684034 352.970806 
L 201.469792 353.13029 
L 230.255549 353.182296 
L 259.041307 353.193852 
L 287.827064 353.206565 
L 316.612822 353.211188 
L 345.39858 353.212343 
L 374.184337 353.218122 
L 402.970095 353.219277 
L 431.755852 353.221589 
L 460.54161 353.222744 
L 489.327367 353.2239 
L 518.113125 353.222744 
L 546.898883 353.2239 
L 575.68464 353.2239 
L 604.470398 353.2239 
L 633.256155 353.222744 
L 662.041913 353.2239 
L 690.82767 353.2239 
L 719.613428 353.2239 
L 748.399186 353.2239 
L 777.184943 353.2239 
L 805.970701 353.2239 
L 834.756458 353.222744 
L 863.542216 353.222744 
L 892.327973 353.2239 
L 921.113731 353.2239 
L 949.899489 353.218122 
" style="fill:none;stroke:#90ed7d;stroke-linecap:square;"/>
   </g>
   <g id="line2d_10">
    <path clip-path="url(#p2a8c820bf8)" d="M 86.326761 53.221187 
L 115.112519 337.139733 
L 143.898277 351.883832 
L 172.684034 352.960912 
L 201.469792 353.123395 
L 230.255549 353.156897 
L 259.041307 353.185373 
L 287.827064 353.205474 
L 316.612822 353.215525 
L 345.39858 353.215525 
L 374.184337 353.213849 
L 402.970095 353.22055 
L 431.755852 353.22055 
L 460.54161 353.2239 
L 489.327367 353.2239 
L 518.113125 353.2239 
L 546.898883 353.222225 
L 575.68464 353.222225 
L 604.470398 353.2239 
L 633.256155 353.2239 
L 662.041913 353.218875 
L 690.82767 353.2239 
L 719.613428 353.2239 
L 748.399186 353.2239 
L 777.184943 353.2239 
L 805.970701 353.2239 
L 834.756458 353.222225 
L 863.542216 353.2239 
L 892.327973 353.2239 
L 921.113731 353.2239 
L 949.899489 353.213849 
" style="fill:none;stroke:#f7a35c;stroke-linecap:square;"/>
   </g>
   <g id="line2d_11">
    <path clip-path="url(#p2a8c820bf8)" d="M 86.326761 63.484552 
L 115.112519 331.699912 
L 143.898277 348.936368 
L 172.684034 351.900232 
L 201.469792 352.705943 
L 230.255549 352.957728 
L 259.041307 353.108798 
L 287.827064 353.187931 
L 316.612822 353.173543 
L 345.39858 353.202318 
L 374.184337 353.2239 
L 402.970095 353.202318 
L 431.755852 353.2239 
L 460.54161 353.216706 
L 489.327367 353.216706 
L 518.113125 353.216706 
L 546.898883 353.2239 
L 575.68464 353.2239 
L 604.470398 353.216706 
L 633.256155 353.216706 
L 662.041913 353.216706 
L 690.82767 353.2239 
L 719.613428 353.2239 
L 748.399186 353.2239 
L 777.184943 353.2239 
L 805.970701 353.2239 
L 834.756458 353.2239 
L 863.542216 353.2239 
L 892.327973 353.2239 
L 921.113731 353.2239 
L 949.899489 353.202318 
" style="fill:none;stroke:#8085e9;stroke-linecap:square;"/>
   </g>
   <g id="line2d_12">
    <path clip-path="url(#p2a8c820bf8)" d="M 86.326761 53.258208 
L 115.112519 338.347682 
L 143.898277 351.060447 
L 172.684034 352.638378 
L 201.469792 353.094887 
L 230.255549 353.134583 
L 259.041307 353.184204 
L 287.827064 353.184204 
L 316.612822 353.213976 
L 345.39858 353.2239 
L 374.184337 353.2239 
L 402.970095 353.2239 
L 431.755852 353.17428 
L 460.54161 353.2239 
L 489.327367 353.2239 
L 518.113125 353.2239 
L 546.898883 353.2239 
L 575.68464 353.2239 
L 604.470398 353.2239 
L 633.256155 353.2239 
L 662.041913 353.2239 
L 690.82767 353.2239 
L 719.613428 353.2239 
L 748.399186 353.2239 
L 777.184943 353.2239 
L 805.970701 353.2239 
L 834.756458 353.2239 
L 863.542216 353.2239 
L 892.327973 353.2239 
L 921.113731 353.2239 
L 949.899489 353.204052 
" style="fill:none;stroke:#f15c80;stroke-linecap:square;"/>
   </g>
   <g id="line2d_13">
    <path clip-path="url(#p2a8c820bf8)" d="M 86.326761 51.7845 
L 115.112519 339.52554 
L 143.898277 351.337074 
L 172.684034 352.808798 
L 201.469792 352.997481 
L 230.255549 353.129559 
L 259.041307 353.148427 
L 287.827064 353.186163 
L 316.612822 353.205032 
L 345.39858 353.205032 
L 374.184337 353.205032 
L 402.970095 353.2239 
L 431.755852 353.2239 
L 460.54161 353.2239 
L 489.327367 353.2239 
L 518.113125 353.2239 
L 546.898883 353.2239 
L 575.68464 353.205032 
L 604.470398 353.2239 
L 633.256155 353.2239 
L 662.041913 353.2239 
L 690.82767 353.205032 
L 719.613428 353.2239 
L 748.399186 353.2239 
L 777.184943 353.2239 
L 805.970701 353.2239 
L 834.756458 353.2239 
L 863.542216 353.2239 
L 892.327973 353.2239 
L 921.113731 353.2239 
L 949.899489 353.2239 
" style="fill:none;stroke:#e4d354;stroke-linecap:square;"/>
   </g>
   <g id="line2d_14">
    <path clip-path="url(#p2a8c820bf8)" d="M 86.326761 55.575664 
L 115.112519 335.672475 
L 143.898277 351.245376 
L 172.684034 352.809048 
L 201.469792 353.048386 
L 230.255549 353.128165 
L 259.041307 353.207944 
L 287.827064 353.199966 
L 316.612822 353.18401 
L 345.39858 353.2239 
L 374.184337 353.2239 
L 402.970095 353.215922 
L 431.755852 353.2239 
L 460.54161 353.2239 
L 489.327367 353.2239 
L 518.113125 353.2239 
L 546.898883 353.2239 
L 575.68464 353.2239 
L 604.470398 353.2239 
L 633.256155 353.2239 
L 662.041913 353.2239 
L 690.82767 353.2239 
L 719.613428 353.2239 
L 748.399186 353.2239 
L 777.184943 353.215922 
L 805.970701 353.215922 
L 834.756458 353.2239 
L 863.542216 353.2239 
L 892.327973 353.2239 
L 921.113731 353.2239 
L 949.899489 353.2239 
" style="fill:none;stroke:#2b908f;stroke-linecap:square;"/>
   </g>
   <g id="line2d_15">
    <path clip-path="url(#p2a8c820bf8)" d="M 86.326761 55.744975 
L 115.112519 334.791747 
L 143.898277 351.540964 
L 172.684034 353.010194 
L 201.469792 353.170473 
L 230.255549 353.170473 
L 259.041307 353.197187 
L 287.827064 353.2239 
L 316.612822 353.2239 
L 345.39858 353.2239 
L 374.184337 353.2239 
L 402.970095 353.2239 
L 431.755852 353.2239 
L 460.54161 353.197187 
L 489.327367 353.2239 
L 518.113125 353.2239 
L 546.898883 353.2239 
L 575.68464 353.2239 
L 604.470398 353.2239 
L 633.256155 353.2239 
L 662.041913 353.2239 
L 690.82767 353.2239 
L 719.613428 353.2239 
L 748.399186 353.2239 
L 777.184943 353.2239 
L 805.970701 353.2239 
L 834.756458 353.2239 
L 863.542216 353.2239 
L 892.327973 353.2239 
L 921.113731 353.2239 
L 949.899489 353.2239 
" style="fill:none;stroke:#f45b5b;stroke-linecap:square;"/>
   </g>
   <g id="line2d_16">
    <path clip-path="url(#p2a8c820bf8)" d="M 86.326761 57.98865 
L 115.112519 333.920144 
L 143.898277 350.939803 
L 172.684034 352.665692 
L 201.469792 352.961884 
L 230.255549 353.127068 
L 259.041307 353.127068 
L 287.827064 353.184028 
L 316.612822 353.189724 
L 345.39858 353.212508 
L 374.184337 353.212508 
L 402.970095 353.218204 
L 431.755852 353.2239 
L 460.54161 353.218204 
L 489.327367 353.2239 
L 518.113125 353.2239 
L 546.898883 353.2239 
L 575.68464 353.2239 
L 604.470398 353.218204 
L 633.256155 353.2239 
L 662.041913 353.212508 
L 690.82767 353.2239 
L 719.613428 353.2239 
L 748.399186 353.2239 
L 777.184943 353.2239 
L 805.970701 353.2239 
L 834.756458 353.2239 
L 863.542216 353.2239 
L 892.327973 353.2239 
L 921.113731 353.2239 
L 949.899489 353.218204 
" style="fill:none;stroke:#91e8e1;stroke-linecap:square;"/>
   </g>
   <g id="line2d_17">
    <path clip-path="url(#p2a8c820bf8)" d="M 86.326761 71.86052 
L 115.112519 327.326865 
L 143.898277 346.607036 
L 172.684034 350.909628 
L 201.469792 352.327527 
L 230.255549 352.702374 
L 259.041307 353.060923 
L 287.827064 353.142412 
L 316.612822 353.207602 
L 345.39858 353.191305 
L 374.184337 353.207602 
L 402.970095 353.207602 
L 431.755852 353.2239 
L 460.54161 353.2239 
L 489.327367 353.2239 
L 518.113125 353.2239 
L 546.898883 353.207602 
L 575.68464 353.2239 
L 604.470398 353.2239 
L 633.256155 353.2239 
L 662.041913 353.2239 
L 690.82767 353.2239 
L 719.613428 353.2239 
L 748.399186 353.2239 
L 777.184943 353.2239 
L 805.970701 353.2239 
L 834.756458 353.2239 
L 863.542216 353.2239 
L 892.327973 353.2239 
L 921.113731 353.2239 
L 949.899489 353.207602 
" style="fill:none;stroke:#7cb5ec;stroke-linecap:square;"/>
   </g>
   <g id="line2d_18">
    <path clip-path="url(#p2a8c820bf8)" d="M 86.326761 57.585535 
L 115.112519 333.519676 
L 143.898277 351.31792 
L 172.684034 352.842022 
L 201.469792 353.080696 
L 230.255549 353.165936 
L 259.041307 353.189804 
L 287.827064 353.189804 
L 316.612822 353.200033 
L 345.39858 353.2239 
L 374.184337 353.217081 
L 402.970095 353.2239 
L 431.755852 353.22049 
L 460.54161 353.217081 
L 489.327367 353.22049 
L 518.113125 353.2239 
L 546.898883 353.2239 
L 575.68464 353.22049 
L 604.470398 353.2239 
L 633.256155 353.22049 
L 662.041913 353.2239 
L 690.82767 353.22049 
L 719.613428 353.22049 
L 748.399186 353.2239 
L 777.184943 353.2239 
L 805.970701 353.22049 
L 834.756458 353.2239 
L 863.542216 353.2239 
L 892.327973 353.2239 
L 921.113731 353.2239 
L 949.899489 353.217081 
" style="fill:none;stroke:#434348;stroke-linecap:square;"/>
   </g>
   <g id="line2d_19">
    <path clip-path="url(#p2a8c820bf8)" d="M 86.326761 75.648874 
L 115.112519 324.2964 
L 143.898277 346.063213 
L 172.684034 350.644378 
L 201.469792 352.260767 
L 230.255549 352.930772 
L 259.041307 353.014523 
L 287.827064 353.123399 
L 316.612822 353.17365 
L 345.39858 353.182025 
L 374.184337 353.182025 
L 402.970095 353.2239 
L 431.755852 353.2239 
L 460.54161 353.2239 
L 489.327367 353.2239 
L 518.113125 353.2239 
L 546.898883 353.2239 
L 575.68464 353.215525 
L 604.470398 353.2239 
L 633.256155 353.2239 
L 662.041913 353.2239 
L 690.82767 353.2239 
L 719.613428 353.2239 
L 748.399186 353.2239 
L 777.184943 353.2239 
L 805.970701 353.2239 
L 834.756458 353.2239 
L 863.542216 353.2239 
L 892.327973 353.2239 
L 921.113731 353.2239 
L 949.899489 353.20715 
" style="fill:none;stroke:#90ed7d;stroke-linecap:square;"/>
   </g>
   <g id="line2d_20">
    <path clip-path="url(#p2a8c820bf8)" d="M 86.326761 63.639189 
L 115.112519 330.675939 
L 143.898277 349.424151 
L 172.684034 352.169574 
L 201.469792 352.701956 
L 230.255549 353.056878 
L 259.041307 353.046439 
L 287.827064 353.192583 
L 316.612822 353.203022 
L 345.39858 353.213461 
L 374.184337 353.2239 
L 402.970095 353.203022 
L 431.755852 353.2239 
L 460.54161 353.2239 
L 489.327367 353.2239 
L 518.113125 353.213461 
L 546.898883 353.2239 
L 575.68464 353.2239 
L 604.470398 353.2239 
L 633.256155 353.2239 
L 662.041913 353.2239 
L 690.82767 353.2239 
L 719.613428 353.2239 
L 748.399186 353.2239 
L 777.184943 353.2239 
L 805.970701 353.2239 
L 834.756458 353.2239 
L 863.542216 353.2239 
L 892.327973 353.2239 
L 921.113731 353.2239 
L 949.899489 353.203022 
" style="fill:none;stroke:#f7a35c;stroke-linecap:square;"/>
   </g>
   <g id="line2d_21">
    <path clip-path="url(#p2a8c820bf8)" d="M 86.326761 60.353384 
L 115.112519 331.83461 
L 143.898277 350.782481 
L 172.684034 352.517577 
L 201.469792 353.008932 
L 230.255549 353.093384 
L 259.041307 353.131771 
L 287.827064 353.162481 
L 316.612822 353.216223 
L 345.39858 353.2239 
L 374.184337 353.2239 
L 402.970095 353.216223 
L 431.755852 353.2239 
L 460.54161 353.2239 
L 489.327367 353.216223 
L 518.113125 353.2239 
L 546.898883 353.2239 
L 575.68464 353.2239 
L 604.470398 353.216223 
L 633.256155 353.2239 
L 662.041913 353.2239 
L 690.82767 353.2239 
L 719.613428 353.2239 
L 748.399186 353.2239 
L 777.184943 353.2239 
L 805.970701 353.2239 
L 834.756458 353.2239 
L 863.542216 353.2239 
L 892.327973 353.2239 
L 921.113731 353.216223 
L 949.899489 353.200868 
" style="fill:none;stroke:#8085e9;stroke-linecap:square;"/>
   </g>
   <g id="line2d_22">
    <path clip-path="url(#p2a8c820bf8)" d="M 86.326761 53.108347 
L 115.112519 337.460318 
L 143.898277 351.796053 
L 172.684034 352.901483 
L 201.469792 353.079497 
L 230.255549 353.160412 
L 259.041307 353.179085 
L 287.827064 353.194024 
L 316.612822 353.205227 
L 345.39858 353.211451 
L 374.184337 353.2239 
L 402.970095 353.220165 
L 431.755852 353.220165 
L 460.54161 353.222655 
L 489.327367 353.2239 
L 518.113125 353.2239 
L 546.898883 353.2239 
L 575.68464 353.222655 
L 604.470398 353.222655 
L 633.256155 353.222655 
L 662.041913 353.222655 
L 690.82767 353.2239 
L 719.613428 353.222655 
L 748.399186 353.2239 
L 777.184943 353.2239 
L 805.970701 353.2239 
L 834.756458 353.2239 
L 863.542216 353.222655 
L 892.327973 353.2239 
L 921.113731 353.2239 
L 949.899489 353.215186 
" style="fill:none;stroke:#f15c80;stroke-linecap:square;"/>
   </g>
   <g id="line2d_23">
    <path clip-path="url(#p2a8c820bf8)" d="M 86.326761 60.509196 
L 115.112519 331.672957 
L 143.898277 350.697952 
L 172.684034 352.571544 
L 201.469792 352.987382 
L 230.255549 353.090955 
L 259.041307 353.169795 
L 287.827064 353.189891 
L 316.612822 353.209987 
L 345.39858 353.214625 
L 374.184337 353.216171 
L 402.970095 353.217717 
L 431.755852 353.220808 
L 460.54161 353.220808 
L 489.327367 353.222354 
L 518.113125 353.222354 
L 546.898883 353.222354 
L 575.68464 353.2239 
L 604.470398 353.222354 
L 633.256155 353.222354 
L 662.041913 353.2239 
L 690.82767 353.222354 
L 719.613428 353.2239 
L 748.399186 353.2239 
L 777.184943 353.222354 
L 805.970701 353.2239 
L 834.756458 353.222354 
L 863.542216 353.2239 
L 892.327973 353.2239 
L 921.113731 353.2239 
L 949.899489 353.213079 
" style="fill:none;stroke:#e4d354;stroke-linecap:square;"/>
   </g>
   <g id="line2d_24">
    <path clip-path="url(#p2a8c820bf8)" d="M 86.326761 58.193558 
L 115.112519 333.549278 
L 143.898277 350.939775 
L 172.684034 352.660285 
L 201.469792 352.979172 
L 230.255549 353.179404 
L 259.041307 353.171988 
L 287.827064 353.216484 
L 316.612822 353.194236 
L 345.39858 353.2239 
L 374.184337 353.2239 
L 402.970095 353.216484 
L 431.755852 353.216484 
L 460.54161 353.2239 
L 489.327367 353.2239 
L 518.113125 353.2239 
L 546.898883 353.2239 
L 575.68464 353.216484 
L 604.470398 353.2239 
L 633.256155 353.2239 
L 662.041913 353.2239 
L 690.82767 353.2239 
L 719.613428 353.216484 
L 748.399186 353.2239 
L 777.184943 353.2239 
L 805.970701 353.216484 
L 834.756458 353.2239 
L 863.542216 353.2239 
L 892.327973 353.2239 
L 921.113731 353.2239 
L 949.899489 353.2239 
" style="fill:none;stroke:#2b908f;stroke-linecap:square;"/>
   </g>
   <g id="line2d_25">
    <path clip-path="url(#p2a8c820bf8)" d="M 86.326761 50.939743 
L 115.112519 339.685631 
L 143.898277 351.712933 
L 172.684034 353.042584 
L 201.469792 353.072803 
L 230.255549 353.012365 
L 259.041307 353.163461 
L 287.827064 353.193681 
L 316.612822 353.2239 
L 345.39858 353.2239 
L 374.184337 353.2239 
L 402.970095 353.2239 
L 431.755852 353.2239 
L 460.54161 353.2239 
L 489.327367 353.2239 
L 518.113125 353.2239 
L 546.898883 353.2239 
L 575.68464 353.2239 
L 604.470398 353.2239 
L 633.256155 353.2239 
L 662.041913 353.2239 
L 690.82767 353.2239 
L 719.613428 353.2239 
L 748.399186 353.2239 
L 777.184943 353.2239 
L 805.970701 353.2239 
L 834.756458 353.2239 
L 863.542216 353.2239 
L 892.327973 353.2239 
L 921.113731 353.2239 
L 949.899489 353.2239 
" style="fill:none;stroke:#f45b5b;stroke-linecap:square;"/>
   </g>
   <g id="line2d_26">
    <path clip-path="url(#p2a8c820bf8)" d="M 86.326761 51.369645 
L 115.112519 340.006174 
L 143.898277 351.07045 
L 172.684034 352.704102 
L 201.469792 353.075386 
L 230.255549 353.186772 
L 259.041307 353.2239 
L 287.827064 353.2239 
L 316.612822 353.2239 
L 345.39858 353.2239 
L 374.184337 353.2239 
L 402.970095 353.2239 
L 431.755852 353.2239 
L 460.54161 353.2239 
L 489.327367 353.186772 
L 518.113125 353.2239 
L 546.898883 353.2239 
L 575.68464 353.2239 
L 604.470398 353.2239 
L 633.256155 353.2239 
L 662.041913 353.2239 
L 690.82767 353.2239 
L 719.613428 353.2239 
L 748.399186 353.2239 
L 777.184943 353.2239 
L 805.970701 353.2239 
L 834.756458 353.2239 
L 863.542216 353.2239 
L 892.327973 353.2239 
L 921.113731 353.2239 
L 949.899489 353.2239 
" style="fill:none;stroke:#91e8e1;stroke-linecap:square;"/>
   </g>
   <g id="line2d_27">
    <path clip-path="url(#p2a8c820bf8)" d="M 86.326761 50.139509 
L 115.112519 339.693347 
L 143.898277 352.412067 
L 172.684034 352.682678 
L 201.469792 353.2239 
L 230.255549 353.2239 
L 259.041307 353.2239 
L 287.827064 353.2239 
L 316.612822 353.2239 
L 345.39858 353.2239 
L 374.184337 353.2239 
L 402.970095 353.2239 
L 431.755852 353.2239 
L 460.54161 353.2239 
L 489.327367 353.2239 
L 518.113125 353.2239 
L 546.898883 353.2239 
L 575.68464 353.2239 
L 604.470398 353.2239 
L 633.256155 353.2239 
L 662.041913 353.2239 
L 690.82767 353.2239 
L 719.613428 353.2239 
L 748.399186 353.2239 
L 777.184943 353.2239 
L 805.970701 353.2239 
L 834.756458 353.2239 
L 863.542216 353.2239 
L 892.327973 353.2239 
L 921.113731 353.2239 
L 949.899489 353.2239 
" style="fill:none;stroke:#7cb5ec;stroke-linecap:square;"/>
   </g>
   <g id="line2d_28">
    <path clip-path="url(#p2a8c820bf8)" d="M 86.326761 64.942522 
L 115.112519 330.630206 
L 143.898277 348.634358 
L 172.684034 351.731983 
L 201.469792 352.654949 
L 230.255549 353.021606 
L 259.041307 353.11011 
L 287.827064 353.18597 
L 316.612822 353.173327 
L 345.39858 353.2239 
L 374.184337 353.2239 
L 402.970095 353.211257 
L 431.755852 353.2239 
L 460.54161 353.2239 
L 489.327367 353.211257 
L 518.113125 353.2239 
L 546.898883 353.2239 
L 575.68464 353.2239 
L 604.470398 353.2239 
L 633.256155 353.2239 
L 662.041913 353.211257 
L 690.82767 353.2239 
L 719.613428 353.2239 
L 748.399186 353.2239 
L 777.184943 353.2239 
L 805.970701 353.2239 
L 834.756458 353.2239 
L 863.542216 353.2239 
L 892.327973 353.2239 
L 921.113731 353.2239 
L 949.899489 353.2239 
" style="fill:none;stroke:#434348;stroke-linecap:square;"/>
   </g>
   <g id="line2d_29">
    <path clip-path="url(#p2a8c820bf8)" d="M 86.326761 70.514732 
L 115.112519 325.331992 
L 143.898277 348.283271 
L 172.684034 351.844211 
L 201.469792 352.692492 
L 230.255549 352.980444 
L 259.041307 353.099312 
L 287.827064 353.159381 
L 316.612822 353.191799 
L 345.39858 353.202288 
L 374.184337 353.214365 
L 402.970095 353.215954 
L 431.755852 353.218497 
L 460.54161 353.221993 
L 489.327367 353.222629 
L 518.113125 353.2239 
L 546.898883 353.2239 
L 575.68464 353.2239 
L 604.470398 353.2239 
L 633.256155 353.2239 
L 662.041913 353.2239 
L 690.82767 353.2239 
L 719.613428 353.223582 
L 748.399186 353.2239 
L 777.184943 353.2239 
L 805.970701 353.2239 
L 834.756458 353.223582 
L 863.542216 353.2239 
L 892.327973 353.2239 
L 921.113731 353.223582 
L 949.899489 353.221993 
" style="fill:none;stroke:#90ed7d;stroke-linecap:square;"/>
   </g>
   <g id="line2d_30">
    <path clip-path="url(#p2a8c820bf8)" d="M 86.326761 65.574292 
L 115.112519 329.302466 
L 143.898277 349.135817 
L 172.684034 351.972838 
L 201.469792 352.713965 
L 230.255549 352.975509 
L 259.041307 353.08984 
L 287.827064 353.151558 
L 316.612822 353.187982 
L 345.39858 353.198606 
L 374.184337 353.215806 
L 402.970095 353.214794 
L 431.755852 353.217829 
L 460.54161 353.221371 
L 489.327367 353.2239 
L 518.113125 353.222888 
L 546.898883 353.223394 
L 575.68464 353.222888 
L 604.470398 353.223394 
L 633.256155 353.223394 
L 662.041913 353.2239 
L 690.82767 353.2239 
L 719.613428 353.2239 
L 748.399186 353.2239 
L 777.184943 353.223394 
L 805.970701 353.2239 
L 834.756458 353.223394 
L 863.542216 353.2239 
L 892.327973 353.2239 
L 921.113731 353.2239 
L 949.899489 353.222382 
" style="fill:none;stroke:#f7a35c;stroke-linecap:square;"/>
   </g>
   <g id="line2d_31">
    <path clip-path="url(#p2a8c820bf8)" d="M 86.326761 73.038078 
L 115.112519 325.038494 
L 143.898277 347.156484 
L 172.684034 351.218723 
L 201.469792 352.424881 
L 230.255549 352.870476 
L 259.041307 353.062753 
L 287.827064 353.120742 
L 316.612822 353.176288 
L 345.39858 353.200705 
L 374.184337 353.212913 
L 402.970095 353.213523 
L 431.755852 353.217796 
L 460.54161 353.222069 
L 489.327367 353.222679 
L 518.113125 353.222679 
L 546.898883 353.2239 
L 575.68464 353.22329 
L 604.470398 353.2239 
L 633.256155 353.222679 
L 662.041913 353.2239 
L 690.82767 353.2239 
L 719.613428 353.2239 
L 748.399186 353.2239 
L 777.184943 353.2239 
L 805.970701 353.2239 
L 834.756458 353.22329 
L 863.542216 353.2239 
L 892.327973 353.2239 
L 921.113731 353.22329 
L 949.899489 353.222069 
" style="fill:none;stroke:#8085e9;stroke-linecap:square;"/>
   </g>
   <g id="line2d_32">
    <path clip-path="url(#p2a8c820bf8)" d="M 86.326761 67.212373 
L 115.112519 327.378237 
L 143.898277 348.997477 
L 172.684034 352.107417 
L 201.469792 352.822507 
L 230.255549 353.048505 
L 259.041307 353.130553 
L 287.827064 353.1787 
L 316.612822 353.201054 
L 345.39858 353.211126 
L 374.184337 353.217759 
L 402.970095 353.219478 
L 431.755852 353.221935 
L 460.54161 353.221935 
L 489.327367 353.223409 
L 518.113125 353.223163 
L 546.898883 353.2239 
L 575.68464 353.2239 
L 604.470398 353.2239 
L 633.256155 353.2239 
L 662.041913 353.2239 
L 690.82767 353.223654 
L 719.613428 353.2239 
L 748.399186 353.2239 
L 777.184943 353.223654 
L 805.970701 353.223654 
L 834.756458 353.2239 
L 863.542216 353.223654 
L 892.327973 353.2239 
L 921.113731 353.2239 
L 949.899489 353.223654 
" style="fill:none;stroke:#f15c80;stroke-linecap:square;"/>
   </g>
   <g id="line2d_33">
    <path clip-path="url(#p2a8c820bf8)" d="M 86.326761 82.930478 
L 115.112519 318.464216 
L 143.898277 345.11754 
L 172.684034 350.574717 
L 201.469792 352.135681 
L 230.255549 352.7143 
L 259.041307 352.973288 
L 287.827064 353.094909 
L 316.612822 353.14818 
L 345.39858 353.178669 
L 374.184337 353.201787 
L 402.970095 353.207483 
L 431.755852 353.216529 
L 460.54161 353.217199 
L 489.327367 353.22122 
L 518.113125 353.22122 
L 546.898883 353.222895 
L 575.68464 353.2239 
L 604.470398 353.2239 
L 633.256155 353.2239 
L 662.041913 353.2239 
L 690.82767 353.223565 
L 719.613428 353.223565 
L 748.399186 353.2239 
L 777.184943 353.223565 
L 805.970701 353.2239 
L 834.756458 353.223565 
L 863.542216 353.223565 
L 892.327973 353.2239 
L 921.113731 353.2239 
L 949.899489 353.223565 
" style="fill:none;stroke:#e4d354;stroke-linecap:square;"/>
   </g>
   <g id="line2d_34">
    <path clip-path="url(#p2a8c820bf8)" d="M 86.326761 71.591929 
L 115.112519 325.829384 
L 143.898277 347.679984 
L 172.684034 351.409839 
L 201.469792 352.430248 
L 230.255549 352.876913 
L 259.041307 353.036534 
L 287.827064 353.112234 
L 316.612822 353.167039 
L 345.39858 353.187591 
L 374.184337 353.207801 
L 402.970095 353.210199 
L 431.755852 353.215337 
L 460.54161 353.22116 
L 489.327367 353.22116 
L 518.113125 353.22116 
L 546.898883 353.223215 
L 575.68464 353.223215 
L 604.470398 353.223215 
L 633.256155 353.2239 
L 662.041913 353.223557 
L 690.82767 353.2239 
L 719.613428 353.2239 
L 748.399186 353.2239 
L 777.184943 353.2239 
L 805.970701 353.2239 
L 834.756458 353.2239 
L 863.542216 353.223557 
L 892.327973 353.2239 
L 921.113731 353.223557 
L 949.899489 353.222872 
" style="fill:none;stroke:#2b908f;stroke-linecap:square;"/>
   </g>
   <g id="line2d_35">
    <path clip-path="url(#p2a8c820bf8)" d="M 86.326761 70.826007 
L 115.112519 325.694415 
L 143.898277 347.966817 
L 172.684034 351.640061 
L 201.469792 352.598071 
L 230.255549 352.951267 
L 259.041307 353.087876 
L 287.827064 353.147423 
L 316.612822 353.19004 
L 345.39858 353.206386 
L 374.184337 353.20697 
L 402.970095 353.217478 
L 431.755852 353.220397 
L 460.54161 353.221565 
L 489.327367 353.222732 
L 518.113125 353.2239 
L 546.898883 353.2239 
L 575.68464 353.223316 
L 604.470398 353.222732 
L 633.256155 353.2239 
L 662.041913 353.2239 
L 690.82767 353.2239 
L 719.613428 353.223316 
L 748.399186 353.2239 
L 777.184943 353.2239 
L 805.970701 353.223316 
L 834.756458 353.2239 
L 863.542216 353.223316 
L 892.327973 353.2239 
L 921.113731 353.2239 
L 949.899489 353.220397 
" style="fill:none;stroke:#f45b5b;stroke-linecap:square;"/>
   </g>
   <g id="line2d_36">
    <path clip-path="url(#p2a8c820bf8)" d="M 86.326761 118.88108 
L 115.112519 305.066195 
L 143.898277 335.053596 
L 172.684034 344.859433 
L 201.469792 349.018588 
L 230.255549 351.083361 
L 259.041307 352.06058 
L 287.827064 352.591485 
L 316.612822 352.888108 
L 345.39858 353.030626 
L 374.184337 353.114482 
L 402.970095 353.156962 
L 431.755852 353.18473 
L 460.54161 353.205694 
L 489.327367 353.211579 
L 518.113125 353.218199 
L 546.898883 353.22059 
L 575.68464 353.221142 
L 604.470398 353.222245 
L 633.256155 353.223532 
L 662.041913 353.2239 
L 690.82767 353.223716 
L 719.613428 353.2239 
L 748.399186 353.2239 
L 777.184943 353.223532 
L 805.970701 353.223716 
L 834.756458 353.2239 
L 863.542216 353.2239 
L 892.327973 353.2239 
L 921.113731 353.223716 
L 949.899489 353.222613 
" style="fill:none;stroke:#91e8e1;stroke-linecap:square;"/>
   </g>
   <g id="line2d_37">
    <path clip-path="url(#p2a8c820bf8)" d="M 86.326761 95.007844 
L 115.112519 312.171436 
L 143.898277 342.15441 
L 172.684034 349.175063 
L 201.469792 351.439518 
L 230.255549 352.379016 
L 259.041307 352.788891 
L 287.827064 353.002176 
L 316.612822 353.096431 
L 345.39858 353.157652 
L 374.184337 353.176862 
L 402.970095 353.20074 
L 431.755852 353.211512 
L 460.54161 353.215641 
L 489.327367 353.22013 
L 518.113125 353.222105 
L 546.898883 353.222823 
L 575.68464 353.222823 
L 604.470398 353.22372 
L 633.256155 353.22372 
L 662.041913 353.22372 
L 690.82767 353.2239 
L 719.613428 353.2239 
L 748.399186 353.22372 
L 777.184943 353.22372 
L 805.970701 353.22372 
L 834.756458 353.22372 
L 863.542216 353.2239 
L 892.327973 353.2239 
L 921.113731 353.2239 
L 949.899489 353.222284 
" style="fill:none;stroke:#7cb5ec;stroke-linecap:square;"/>
   </g>
   <g id="line2d_38">
    <path clip-path="url(#p2a8c820bf8)" d="M 86.326761 64.801708 
L 115.112519 329.589717 
L 143.898277 349.216839 
L 172.684034 352.124267 
L 201.469792 352.799002 
L 230.255549 353.025086 
L 259.041307 353.153524 
L 287.827064 353.169358 
L 316.612822 353.197509 
L 345.39858 353.213344 
L 374.184337 353.215103 
L 402.970095 353.221261 
L 431.755852 353.222141 
L 460.54161 353.22302 
L 489.327367 353.222141 
L 518.113125 353.2239 
L 546.898883 353.2239 
L 575.68464 353.22302 
L 604.470398 353.22302 
L 633.256155 353.2239 
L 662.041913 353.2239 
L 690.82767 353.2239 
L 719.613428 353.22302 
L 748.399186 353.2239 
L 777.184943 353.2239 
L 805.970701 353.2239 
L 834.756458 353.2239 
L 863.542216 353.2239 
L 892.327973 353.2239 
L 921.113731 353.2239 
L 949.899489 353.22302 
" style="fill:none;stroke:#434348;stroke-linecap:square;"/>
   </g>
   <g id="line2d_39">
    <path clip-path="url(#p2a8c820bf8)" d="M 86.326761 73.542792 
L 115.112519 324.882654 
L 143.898277 347.047579 
L 172.684034 351.177166 
L 201.469792 352.365383 
L 230.255549 352.810849 
L 259.041307 353.022005 
L 287.827064 353.122952 
L 316.612822 353.159997 
L 345.39858 353.186855 
L 374.184337 353.208156 
L 402.970095 353.213713 
L 431.755852 353.220196 
L 460.54161 353.218343 
L 489.327367 353.222974 
L 518.113125 353.222974 
L 546.898883 353.222048 
L 575.68464 353.222974 
L 604.470398 353.2239 
L 633.256155 353.2239 
L 662.041913 353.222974 
L 690.82767 353.2239 
L 719.613428 353.2239 
L 748.399186 353.2239 
L 777.184943 353.2239 
L 805.970701 353.2239 
L 834.756458 353.2239 
L 863.542216 353.2239 
L 892.327973 353.2239 
L 921.113731 353.2239 
L 949.899489 353.217417 
" style="fill:none;stroke:#90ed7d;stroke-linecap:square;"/>
   </g>
   <g id="line2d_40">
    <path clip-path="url(#p2a8c820bf8)" d="M 86.326761 66.75587 
L 115.112519 328.863419 
L 143.898277 348.633177 
L 172.684034 351.84437 
L 201.469792 352.608789 
L 230.255549 352.986793 
L 259.041307 353.08458 
L 287.827064 353.145565 
L 316.612822 353.175007 
L 345.39858 353.208128 
L 374.184337 353.206025 
L 402.970095 353.219168 
L 431.755852 353.221271 
L 460.54161 353.220746 
L 489.327367 353.2239 
L 518.113125 353.223374 
L 546.898883 353.223374 
L 575.68464 353.222323 
L 604.470398 353.223374 
L 633.256155 353.2239 
L 662.041913 353.2239 
L 690.82767 353.2239 
L 719.613428 353.2239 
L 748.399186 353.2239 
L 777.184943 353.2239 
L 805.970701 353.2239 
L 834.756458 353.2239 
L 863.542216 353.2239 
L 892.327973 353.2239 
L 921.113731 353.223374 
L 949.899489 353.221271 
" style="fill:none;stroke:#f7a35c;stroke-linecap:square;"/>
   </g>
   <g id="line2d_41">
    <path clip-path="url(#p2a8c820bf8)" d="M 86.326761 75.360581 
L 115.112519 322.286453 
L 143.898277 347.181477 
L 172.684034 351.451317 
L 201.469792 352.514576 
L 230.255549 352.907939 
L 259.041307 353.075578 
L 287.827064 353.136839 
L 316.612822 353.184074 
L 345.39858 353.20101 
L 374.184337 353.212521 
L 402.970095 353.216623 
L 431.755852 353.219798 
L 460.54161 353.221915 
L 489.327367 353.222577 
L 518.113125 353.223238 
L 546.898883 353.223635 
L 575.68464 353.223371 
L 604.470398 353.2239 
L 633.256155 353.2239 
L 662.041913 353.2239 
L 690.82767 353.223768 
L 719.613428 353.223768 
L 748.399186 353.2239 
L 777.184943 353.2239 
L 805.970701 353.2239 
L 834.756458 353.223768 
L 863.542216 353.2239 
L 892.327973 353.2239 
L 921.113731 353.2239 
L 949.899489 353.222974 
" style="fill:none;stroke:#8085e9;stroke-linecap:square;"/>
   </g>
   <g id="line2d_42">
    <path clip-path="url(#p2a8c820bf8)" d="M 86.326761 63.279274 
L 115.112519 331.189054 
L 143.898277 349.353099 
L 172.684034 352.063789 
L 201.469792 352.75679 
L 230.255549 352.995589 
L 259.041307 353.114182 
L 287.827064 353.169848 
L 316.612822 353.176302 
L 345.39858 353.204538 
L 374.184337 353.215832 
L 402.970095 353.218253 
L 431.755852 353.218253 
L 460.54161 353.223093 
L 489.327367 353.222286 
L 518.113125 353.223093 
L 546.898883 353.2239 
L 575.68464 353.222286 
L 604.470398 353.223093 
L 633.256155 353.2239 
L 662.041913 353.2239 
L 690.82767 353.223093 
L 719.613428 353.223093 
L 748.399186 353.2239 
L 777.184943 353.223093 
L 805.970701 353.2239 
L 834.756458 353.2239 
L 863.542216 353.2239 
L 892.327973 353.2239 
L 921.113731 353.2239 
L 949.899489 353.219866 
" style="fill:none;stroke:#f15c80;stroke-linecap:square;"/>
   </g>
   <g id="line2d_43">
    <path clip-path="url(#p2a8c820bf8)" d="M 86.326761 91.994078 
L 115.112519 313.778037 
L 143.898277 342.564822 
L 172.684034 349.428609 
L 201.469792 351.684908 
L 230.255549 352.545253 
L 259.041307 352.897404 
L 287.827064 353.072426 
L 316.612822 353.159233 
L 345.39858 353.193324 
L 374.184337 353.20457 
L 402.970095 353.214411 
L 431.755852 353.216168 
L 460.54161 353.220737 
L 489.327367 353.222494 
L 518.113125 353.223197 
L 546.898883 353.222846 
L 575.68464 353.2239 
L 604.470398 353.223549 
L 633.256155 353.2239 
L 662.041913 353.2239 
L 690.82767 353.223549 
L 719.613428 353.223549 
L 748.399186 353.2239 
L 777.184943 353.2239 
L 805.970701 353.223549 
L 834.756458 353.2239 
L 863.542216 353.223549 
L 892.327973 353.2239 
L 921.113731 353.2239 
L 949.899489 353.22144 
" style="fill:none;stroke:#e4d354;stroke-linecap:square;"/>
   </g>
   <g id="line2d_44">
    <path clip-path="url(#p2a8c820bf8)" d="M 86.326761 64.897652 
L 115.112519 329.212799 
L 143.898277 349.348646 
L 172.684034 352.213449 
L 201.469792 352.833657 
L 230.255549 353.064318 
L 259.041307 353.136095 
L 287.827064 353.182088 
L 316.612822 353.191844 
L 345.39858 353.21275 
L 374.184337 353.215538 
L 402.970095 353.220416 
L 431.755852 353.220416 
L 460.54161 353.223203 
L 489.327367 353.223203 
L 518.113125 353.222506 
L 546.898883 353.223203 
L 575.68464 353.2239 
L 604.470398 353.2239 
L 633.256155 353.223203 
L 662.041913 353.2239 
L 690.82767 353.223203 
L 719.613428 353.223203 
L 748.399186 353.2239 
L 777.184943 353.2239 
L 805.970701 353.2239 
L 834.756458 353.2239 
L 863.542216 353.2239 
L 892.327973 353.2239 
L 921.113731 353.2239 
L 949.899489 353.222506 
" style="fill:none;stroke:#2b908f;stroke-linecap:square;"/>
   </g>
   <g id="line2d_45">
    <path clip-path="url(#p2a8c820bf8)" d="M 86.326761 71.095546 
L 115.112519 325.033797 
L 143.898277 348.06415 
L 172.684034 351.79014 
L 201.469792 352.687299 
L 230.255549 352.973913 
L 259.041307 353.097075 
L 287.827064 353.160259 
L 316.612822 353.18773 
L 345.39858 353.206044 
L 374.184337 353.214743 
L 402.970095 353.217948 
L 431.755852 353.220008 
L 460.54161 353.22184 
L 489.327367 353.223442 
L 518.113125 353.223671 
L 546.898883 353.223442 
L 575.68464 353.2239 
L 604.470398 353.223671 
L 633.256155 353.2239 
L 662.041913 353.223442 
L 690.82767 353.223671 
L 719.613428 353.2239 
L 748.399186 353.223671 
L 777.184943 353.223671 
L 805.970701 353.2239 
L 834.756458 353.2239 
L 863.542216 353.2239 
L 892.327973 353.2239 
L 921.113731 353.2239 
L 949.899489 353.222526 
" style="fill:none;stroke:#f45b5b;stroke-linecap:square;"/>
   </g>
   <g id="line2d_46">
    <path clip-path="url(#p2a8c820bf8)" d="M 86.326761 78.237471 
L 115.112519 321.646008 
L 143.898277 346.218265 
L 172.684034 350.828936 
L 201.469792 352.216148 
L 230.255549 352.746114 
L 259.041307 352.989267 
L 287.827064 353.091497 
L 316.612822 353.160361 
L 345.39858 353.189113 
L 374.184337 353.202602 
L 402.970095 353.213251 
L 431.755852 353.216091 
L 460.54161 353.218575 
L 489.327367 353.222835 
L 518.113125 353.22248 
L 546.898883 353.223545 
L 575.68464 353.22319 
L 604.470398 353.223545 
L 633.256155 353.2239 
L 662.041913 353.2239 
L 690.82767 353.223545 
L 719.613428 353.2239 
L 748.399186 353.2239 
L 777.184943 353.223545 
L 805.970701 353.2239 
L 834.756458 353.2239 
L 863.542216 353.223545 
L 892.327973 353.2239 
L 921.113731 353.2239 
L 949.899489 353.22177 
" style="fill:none;stroke:#91e8e1;stroke-linecap:square;"/>
   </g>
   <g id="line2d_47">
    <path clip-path="url(#p2a8c820bf8)" d="M 86.326761 76.041848 
L 115.112519 322.941233 
L 143.898277 346.758037 
L 172.684034 351.023034 
L 201.469792 352.338871 
L 230.255549 352.788097 
L 259.041307 352.992575 
L 287.827064 353.109954 
L 316.612822 353.15366 
L 345.39858 353.183317 
L 374.184337 353.200174 
L 402.970095 353.209852 
L 431.755852 353.214535 
L 460.54161 353.217344 
L 489.327367 353.223276 
L 518.113125 353.222651 
L 546.898883 353.222651 
L 575.68464 353.223276 
L 604.470398 353.223276 
L 633.256155 353.2239 
L 662.041913 353.223588 
L 690.82767 353.2239 
L 719.613428 353.2239 
L 748.399186 353.2239 
L 777.184943 353.2239 
L 805.970701 353.223588 
L 834.756458 353.2239 
L 863.542216 353.2239 
L 892.327973 353.2239 
L 921.113731 353.2239 
L 949.899489 353.222963 
" style="fill:none;stroke:#7cb5ec;stroke-linecap:square;"/>
   </g>
   <g id="line2d_48">
    <path clip-path="url(#p2a8c820bf8)" d="M 86.326761 80.635119 
L 115.112519 320.513904 
L 143.898277 345.444082 
L 172.684034 350.634314 
L 201.469792 352.082207 
L 230.255549 352.690183 
L 259.041307 352.937924 
L 287.827064 353.074118 
L 316.612822 353.140793 
L 345.39858 353.182505 
L 374.184337 353.198304 
L 402.970095 353.209996 
L 431.755852 353.215368 
L 460.54161 353.21916 
L 489.327367 353.220424 
L 518.113125 353.221372 
L 546.898883 353.222952 
L 575.68464 353.2239 
L 604.470398 353.223268 
L 633.256155 353.2239 
L 662.041913 353.2239 
L 690.82767 353.223584 
L 719.613428 353.223584 
L 748.399186 353.2239 
L 777.184943 353.2239 
L 805.970701 353.2239 
L 834.756458 353.2239 
L 863.542216 353.2239 
L 892.327973 353.223584 
L 921.113731 353.2239 
L 949.899489 353.221056 
" style="fill:none;stroke:#434348;stroke-linecap:square;"/>
   </g>
   <g id="line2d_49">
    <path clip-path="url(#p2a8c820bf8)" d="M 86.326761 64.766183 
L 115.112519 330.045558 
L 143.898277 349.121908 
L 172.684034 351.952342 
L 201.469792 352.717862 
L 230.255549 353.00518 
L 259.041307 353.109569 
L 287.827064 353.180156 
L 316.612822 353.198051 
L 345.39858 353.206999 
L 374.184337 353.213958 
L 402.970095 353.213958 
L 431.755852 353.219923 
L 460.54161 353.221912 
L 489.327367 353.222906 
L 518.113125 353.222906 
L 546.898883 353.2239 
L 575.68464 353.2239 
L 604.470398 353.2239 
L 633.256155 353.2239 
L 662.041913 353.2239 
L 690.82767 353.2239 
L 719.613428 353.222906 
L 748.399186 353.2239 
L 777.184943 353.222906 
L 805.970701 353.222906 
L 834.756458 353.2239 
L 863.542216 353.2239 
L 892.327973 353.2239 
L 921.113731 353.2239 
L 949.899489 353.221912 
" style="fill:none;stroke:#90ed7d;stroke-linecap:square;"/>
   </g>
   <g id="line2d_50">
    <path clip-path="url(#p2a8c820bf8)" d="M 86.326761 77.524799 
L 115.112519 321.881571 
L 143.898277 346.209703 
L 172.684034 351.065421 
L 201.469792 352.326655 
L 230.255549 352.780094 
L 259.041307 353.025047 
L 287.827064 353.123442 
L 316.612822 353.170919 
L 345.39858 353.199129 
L 374.184337 353.212203 
L 402.970095 353.212891 
L 431.755852 353.22046 
L 460.54161 353.218395 
L 489.327367 353.222524 
L 518.113125 353.2239 
L 546.898883 353.2239 
L 575.68464 353.222524 
L 604.470398 353.2239 
L 633.256155 353.2239 
L 662.041913 353.2239 
L 690.82767 353.2239 
L 719.613428 353.2239 
L 748.399186 353.223212 
L 777.184943 353.2239 
L 805.970701 353.2239 
L 834.756458 353.2239 
L 863.542216 353.2239 
L 892.327973 353.223212 
L 921.113731 353.2239 
L 949.899489 353.2239 
" style="fill:none;stroke:#f7a35c;stroke-linecap:square;"/>
   </g>
   <g id="line2d_51">
    <path clip-path="url(#p2a8c820bf8)" d="M 86.326761 87.646616 
L 115.112519 316.198745 
L 143.898277 343.890206 
L 172.684034 349.979805 
L 201.469792 351.833573 
L 230.255549 352.595564 
L 259.041307 352.876318 
L 287.827064 353.043585 
L 316.612822 353.123857 
L 345.39858 353.163795 
L 374.184337 353.185939 
L 402.970095 353.208874 
L 431.755852 353.211642 
L 460.54161 353.219155 
L 489.327367 353.221527 
L 518.113125 353.222714 
L 546.898883 353.222318 
L 575.68464 353.222318 
L 604.470398 353.223109 
L 633.256155 353.223109 
L 662.041913 353.2239 
L 690.82767 353.2239 
L 719.613428 353.2239 
L 748.399186 353.2239 
L 777.184943 353.2239 
L 805.970701 353.2239 
L 834.756458 353.2239 
L 863.542216 353.223505 
L 892.327973 353.2239 
L 921.113731 353.223505 
L 949.899489 353.221923 
" style="fill:none;stroke:#8085e9;stroke-linecap:square;"/>
   </g>
   <g id="line2d_52">
    <path clip-path="url(#p2a8c820bf8)" d="M 86.326761 86.046203 
L 115.112519 317.681028 
L 143.898277 344.153518 
L 172.684034 349.928422 
L 201.469792 351.784353 
L 230.255549 352.543134 
L 259.041307 352.888625 
L 287.827064 353.025769 
L 316.612822 353.126692 
L 345.39858 353.171581 
L 374.184337 353.193252 
L 402.970095 353.207183 
L 431.755852 353.211826 
L 460.54161 353.218637 
L 489.327367 353.219256 
L 518.113125 353.221423 
L 546.898883 353.223281 
L 575.68464 353.222971 
L 604.470398 353.22359 
L 633.256155 353.22359 
L 662.041913 353.22359 
L 690.82767 353.22359 
L 719.613428 353.22359 
L 748.399186 353.22359 
L 777.184943 353.2239 
L 805.970701 353.2239 
L 834.756458 353.22359 
L 863.542216 353.2239 
L 892.327973 353.2239 
L 921.113731 353.2239 
L 949.899489 353.221114 
" style="fill:none;stroke:#f15c80;stroke-linecap:square;"/>
   </g>
   <g id="line2d_53">
    <path clip-path="url(#p2a8c820bf8)" d="M 86.326761 76.291657 
L 115.112519 322.490979 
L 143.898277 346.780189 
L 172.684034 351.11754 
L 201.469792 352.361194 
L 230.255549 352.81626 
L 259.041307 353.006404 
L 287.827064 353.10699 
L 316.612822 353.162136 
L 345.39858 353.188165 
L 374.184337 353.202944 
L 402.970095 353.213753 
L 431.755852 353.215297 
L 460.54161 353.219929 
L 489.327367 353.222135 
L 518.113125 353.222797 
L 546.898883 353.222576 
L 575.68464 353.223238 
L 604.470398 353.2239 
L 633.256155 353.2239 
L 662.041913 353.2239 
L 690.82767 353.2239 
L 719.613428 353.2239 
L 748.399186 353.2239 
L 777.184943 353.2239 
L 805.970701 353.2239 
L 834.756458 353.2239 
L 863.542216 353.2239 
L 892.327973 353.223679 
L 921.113731 353.2239 
L 949.899489 353.222135 
" style="fill:none;stroke:#e4d354;stroke-linecap:square;"/>
   </g>
   <g id="line2d_54">
    <path clip-path="url(#p2a8c820bf8)" d="M 86.326761 70.814073 
L 115.112519 325.968736 
L 143.898277 347.992313 
L 172.684034 351.488561 
L 201.469792 352.539877 
L 230.255549 352.901357 
L 259.041307 353.072799 
L 287.827064 353.139051 
L 316.612822 353.182638 
L 345.39858 353.207046 
L 374.184337 353.210533 
L 402.970095 353.215764 
L 431.755852 353.216926 
L 460.54161 353.222157 
L 489.327367 353.223319 
L 518.113125 353.222738 
L 546.898883 353.223319 
L 575.68464 353.2239 
L 604.470398 353.223319 
L 633.256155 353.2239 
L 662.041913 353.2239 
L 690.82767 353.2239 
L 719.613428 353.222738 
L 748.399186 353.2239 
L 777.184943 353.2239 
L 805.970701 353.2239 
L 834.756458 353.2239 
L 863.542216 353.2239 
L 892.327973 353.2239 
L 921.113731 353.2239 
L 949.899489 353.222738 
" style="fill:none;stroke:#2b908f;stroke-linecap:square;"/>
   </g>
   <g id="line2d_55">
    <path clip-path="url(#p2a8c820bf8)" d="M 86.326761 79.719211 
L 115.112519 321.400436 
L 143.898277 345.680675 
L 172.684034 350.492169 
L 201.469792 352.071773 
L 230.255549 352.667404 
L 259.041307 352.935761 
L 287.827064 353.065208 
L 316.612822 353.132298 
L 345.39858 353.177024 
L 374.184337 353.197666 
L 402.970095 353.208418 
L 431.755852 353.213579 
L 460.54161 353.218309 
L 489.327367 353.220029 
L 518.113125 353.22175 
L 546.898883 353.22132 
L 575.68464 353.2239 
L 604.470398 353.22261 
L 633.256155 353.22304 
L 662.041913 353.2239 
L 690.82767 353.2239 
L 719.613428 353.2239 
L 748.399186 353.22347 
L 777.184943 353.2239 
L 805.970701 353.2239 
L 834.756458 353.2239 
L 863.542216 353.2239 
L 892.327973 353.2239 
L 921.113731 353.2239 
L 949.899489 353.22175 
" style="fill:none;stroke:#f45b5b;stroke-linecap:square;"/>
   </g>
   <g id="line2d_56">
    <path clip-path="url(#p2a8c820bf8)" d="M 86.326761 68.355223 
L 115.112519 327.489941 
L 143.898277 348.420805 
L 172.684034 351.766899 
L 201.469792 352.67003 
L 230.255549 352.944492 
L 259.041307 353.092232 
L 287.827064 353.163939 
L 316.612822 353.186192 
L 345.39858 353.210301 
L 374.184337 353.212155 
L 402.970095 353.219573 
L 431.755852 353.219573 
L 460.54161 353.222664 
L 489.327367 353.223282 
L 518.113125 353.222046 
L 546.898883 353.2239 
L 575.68464 353.2239 
L 604.470398 353.223282 
L 633.256155 353.223282 
L 662.041913 353.2239 
L 690.82767 353.2239 
L 719.613428 353.223282 
L 748.399186 353.2239 
L 777.184943 353.2239 
L 805.970701 353.223282 
L 834.756458 353.2239 
L 863.542216 353.2239 
L 892.327973 353.2239 
L 921.113731 353.2239 
L 949.899489 353.221427 
" style="fill:none;stroke:#91e8e1;stroke-linecap:square;"/>
   </g>
   <g id="line2d_57">
    <path clip-path="url(#p2a8c820bf8)" d="M 86.326761 66.848592 
L 115.112519 327.989212 
L 143.898277 349.095195 
L 172.684034 351.983264 
L 201.469792 352.731086 
L 230.255549 352.98913 
L 259.041307 353.111575 
L 287.827064 353.158124 
L 316.612822 353.19253 
L 345.39858 353.201637 
L 374.184337 353.21884 
L 402.970095 353.216816 
L 431.755852 353.220864 
L 460.54161 353.220864 
L 489.327367 353.221876 
L 518.113125 353.221876 
L 546.898883 353.2239 
L 575.68464 353.2239 
L 604.470398 353.2239 
L 633.256155 353.2239 
L 662.041913 353.2239 
L 690.82767 353.222888 
L 719.613428 353.2239 
L 748.399186 353.2239 
L 777.184943 353.2239 
L 805.970701 353.2239 
L 834.756458 353.221876 
L 863.542216 353.2239 
L 892.327973 353.2239 
L 921.113731 353.2239 
L 949.899489 353.219852 
" style="fill:none;stroke:#7cb5ec;stroke-linecap:square;"/>
   </g>
   <g id="line2d_58">
    <path clip-path="url(#p2a8c820bf8)" d="M 86.326761 76.21807 
L 115.112519 323.191685 
L 143.898277 346.769583 
L 172.684034 350.895859 
L 201.469792 352.220151 
L 230.255549 352.705622 
L 259.041307 352.955672 
L 287.827064 353.078037 
L 316.612822 353.140993 
L 345.39858 353.169811 
L 374.184337 353.200402 
L 402.970095 353.207496 
L 431.755852 353.212816 
L 460.54161 353.21725 
L 489.327367 353.219466 
L 518.113125 353.22124 
L 546.898883 353.22124 
L 575.68464 353.222127 
L 604.470398 353.223013 
L 633.256155 353.2239 
L 662.041913 353.2239 
L 690.82767 353.2239 
L 719.613428 353.2239 
L 748.399186 353.223013 
L 777.184943 353.2239 
L 805.970701 353.2239 
L 834.756458 353.2239 
L 863.542216 353.2239 
L 892.327973 353.2239 
L 921.113731 353.2239 
L 949.899489 353.220353 
" style="fill:none;stroke:#434348;stroke-linecap:square;"/>
   </g>
   <g id="line2d_59">
    <path clip-path="url(#p2a8c820bf8)" d="M 86.326761 86.510655 
L 115.112519 317.601242 
L 143.898277 344.098164 
L 172.684034 349.864029 
L 201.469792 351.745022 
L 230.255549 352.48763 
L 259.041307 352.816856 
L 287.827064 353.003125 
L 316.612822 353.101364 
L 345.39858 353.153125 
L 374.184337 353.183055 
L 402.970095 353.202069 
L 431.755852 353.207351 
L 460.54161 353.215801 
L 489.327367 353.216153 
L 518.113125 353.219675 
L 546.898883 353.221083 
L 575.68464 353.222492 
L 604.470398 353.223548 
L 633.256155 353.222492 
L 662.041913 353.222844 
L 690.82767 353.2239 
L 719.613428 353.2239 
L 748.399186 353.2239 
L 777.184943 353.2239 
L 805.970701 353.2239 
L 834.756458 353.223548 
L 863.542216 353.2239 
L 892.327973 353.2239 
L 921.113731 353.223196 
L 949.899489 353.221083 
" style="fill:none;stroke:#90ed7d;stroke-linecap:square;"/>
   </g>
   <g id="line2d_60">
    <path clip-path="url(#p2a8c820bf8)" d="M 86.326761 89.087526 
L 115.112519 316.949802 
L 143.898277 343.139489 
L 172.684034 349.300525 
L 201.469792 351.471548 
L 230.255549 352.377367 
L 259.041307 352.79328 
L 287.827064 352.990437 
L 316.612822 353.097517 
L 345.39858 353.154045 
L 374.184337 353.190351 
L 402.970095 353.204598 
L 431.755852 353.211032 
L 460.54161 353.215168 
L 489.327367 353.218845 
L 518.113125 353.220683 
L 546.898883 353.222981 
L 575.68464 353.222981 
L 604.470398 353.222521 
L 633.256155 353.2239 
L 662.041913 353.22344 
L 690.82767 353.2239 
L 719.613428 353.2239 
L 748.399186 353.2239 
L 777.184943 353.2239 
L 805.970701 353.2239 
L 834.756458 353.2239 
L 863.542216 353.22344 
L 892.327973 353.2239 
L 921.113731 353.2239 
L 949.899489 353.220223 
" style="fill:none;stroke:#f7a35c;stroke-linecap:square;"/>
   </g>
   <g id="line2d_61">
    <path clip-path="url(#p2a8c820bf8)" d="M 86.326761 73.146629 
L 115.112519 322.45391 
L 143.898277 347.990451 
L 172.684034 352.005093 
L 201.469792 352.829509 
L 230.255549 353.082702 
L 259.041307 353.165759 
L 287.827064 353.192016 
L 316.612822 353.205949 
L 345.39858 353.213719 
L 374.184337 353.219881 
L 402.970095 353.221757 
L 431.755852 353.221757 
L 460.54161 353.22256 
L 489.327367 353.223364 
L 518.113125 353.223364 
L 546.898883 353.2239 
L 575.68464 353.2239 
L 604.470398 353.223632 
L 633.256155 353.2239 
L 662.041913 353.2239 
L 690.82767 353.223632 
L 719.613428 353.2239 
L 748.399186 353.2239 
L 777.184943 353.2239 
L 805.970701 353.223364 
L 834.756458 353.2239 
L 863.542216 353.2239 
L 892.327973 353.2239 
L 921.113731 353.223632 
L 949.899489 353.221221 
" style="fill:none;stroke:#8085e9;stroke-linecap:square;"/>
   </g>
   <g id="line2d_62">
    <path clip-path="url(#p2a8c820bf8)" d="M 86.326761 77.02897 
L 115.112519 321.850498 
L 143.898277 346.54696 
L 172.684034 351.112411 
L 201.469792 352.389838 
L 230.255549 352.842802 
L 259.041307 353.032181 
L 287.827064 353.132839 
L 316.612822 353.175443 
L 345.39858 353.196746 
L 374.184337 353.209621 
L 402.970095 353.214302 
L 431.755852 353.220155 
L 460.54161 353.221793 
L 489.327367 353.222261 
L 518.113125 353.222027 
L 546.898883 353.223432 
L 575.68464 353.223432 
L 604.470398 353.2239 
L 633.256155 353.223198 
L 662.041913 353.223666 
L 690.82767 353.2239 
L 719.613428 353.2239 
L 748.399186 353.2239 
L 777.184943 353.2239 
L 805.970701 353.223432 
L 834.756458 353.2239 
L 863.542216 353.223666 
L 892.327973 353.2239 
L 921.113731 353.2239 
L 949.899489 353.222027 
" style="fill:none;stroke:#f15c80;stroke-linecap:square;"/>
   </g>
   <g id="line2d_63">
    <path clip-path="url(#p2a8c820bf8)" d="M 86.326761 69.87148 
L 115.112519 326.41191 
L 143.898277 348.161448 
L 172.684034 351.661665 
L 201.469792 352.612229 
L 230.255549 352.937755 
L 259.041307 353.094557 
L 287.827064 353.153086 
L 316.612822 353.190661 
L 345.39858 353.205113 
L 374.184337 353.214868 
L 402.970095 353.216313 
L 431.755852 353.220287 
L 460.54161 353.221371 
L 489.327367 353.222816 
L 518.113125 353.222816 
L 546.898883 353.2239 
L 575.68464 353.2239 
L 604.470398 353.223539 
L 633.256155 353.2239 
L 662.041913 353.2239 
L 690.82767 353.223177 
L 719.613428 353.2239 
L 748.399186 353.2239 
L 777.184943 353.2239 
L 805.970701 353.2239 
L 834.756458 353.2239 
L 863.542216 353.2239 
L 892.327973 353.2239 
L 921.113731 353.2239 
L 949.899489 353.22101 
" style="fill:none;stroke:#e4d354;stroke-linecap:square;"/>
   </g>
   <g id="line2d_64">
    <path clip-path="url(#p2a8c820bf8)" d="M 86.326761 83.85062 
L 115.112519 318.363321 
L 143.898277 344.727268 
L 172.684034 350.298574 
L 201.469792 351.991094 
L 230.255549 352.668329 
L 259.041307 352.977736 
L 287.827064 353.088623 
L 316.612822 353.154985 
L 345.39858 353.19157 
L 374.184337 353.204332 
L 402.970095 353.217377 
L 431.755852 353.218795 
L 460.54161 353.221915 
L 489.327367 353.222482 
L 518.113125 353.221631 
L 546.898883 353.2239 
L 575.68464 353.223049 
L 604.470398 353.223616 
L 633.256155 353.2239 
L 662.041913 353.223333 
L 690.82767 353.2239 
L 719.613428 353.2239 
L 748.399186 353.2239 
L 777.184943 353.2239 
L 805.970701 353.2239 
L 834.756458 353.2239 
L 863.542216 353.2239 
L 892.327973 353.2239 
L 921.113731 353.2239 
L 949.899489 353.221348 
" style="fill:none;stroke:#2b908f;stroke-linecap:square;"/>
   </g>
   <g id="line2d_65">
    <path clip-path="url(#p2a8c820bf8)" d="M 86.326761 67.403734 
L 115.112519 328.201704 
L 143.898277 348.581553 
L 172.684034 351.815453 
L 201.469792 352.700066 
L 230.255549 352.95964 
L 259.041307 353.096456 
L 287.827064 353.168612 
L 316.612822 353.186416 
L 345.39858 353.198599 
L 374.184337 353.216403 
L 402.970095 353.21734 
L 431.755852 353.21734 
L 460.54161 353.220152 
L 489.327367 353.221089 
L 518.113125 353.222963 
L 546.898883 353.222026 
L 575.68464 353.222963 
L 604.470398 353.2239 
L 633.256155 353.2239 
L 662.041913 353.2239 
L 690.82767 353.222026 
L 719.613428 353.2239 
L 748.399186 353.2239 
L 777.184943 353.222963 
L 805.970701 353.222963 
L 834.756458 353.2239 
L 863.542216 353.2239 
L 892.327973 353.222963 
L 921.113731 353.222963 
L 949.899489 353.219215 
" style="fill:none;stroke:#f45b5b;stroke-linecap:square;"/>
   </g>
   <g id="line2d_66">
    <path clip-path="url(#p2a8c820bf8)" d="M 86.326761 72.764462 
L 115.112519 324.66383 
L 143.898277 347.540785 
L 172.684034 351.313567 
L 201.469792 352.520756 
L 230.255549 352.903831 
L 259.041307 353.087808 
L 287.827064 353.133172 
L 316.612822 353.173495 
L 345.39858 353.205418 
L 374.184337 353.210459 
L 402.970095 353.218019 
L 431.755852 353.216339 
L 460.54161 353.22222 
L 489.327367 353.2239 
L 518.113125 353.22306 
L 546.898883 353.22306 
L 575.68464 353.2239 
L 604.470398 353.2239 
L 633.256155 353.2239 
L 662.041913 353.2239 
L 690.82767 353.2239 
L 719.613428 353.22306 
L 748.399186 353.22306 
L 777.184943 353.22306 
L 805.970701 353.2239 
L 834.756458 353.22306 
L 863.542216 353.2239 
L 892.327973 353.2239 
L 921.113731 353.2239 
L 949.899489 353.22138 
" style="fill:none;stroke:#91e8e1;stroke-linecap:square;"/>
   </g>
   <g id="line2d_67">
    <path clip-path="url(#p2a8c820bf8)" d="M 86.326761 73.672392 
L 115.112519 324.00141 
L 143.898277 347.318311 
L 172.684034 351.388847 
L 201.469792 352.472835 
L 230.255549 352.892774 
L 259.041307 353.056284 
L 287.827064 353.129439 
L 316.612822 353.17975 
L 345.39858 353.195921 
L 374.184337 353.209526 
L 402.970095 353.216713 
L 431.755852 353.215943 
L 460.54161 353.221847 
L 489.327367 353.22236 
L 518.113125 353.222617 
L 546.898883 353.223643 
L 575.68464 353.2239 
L 604.470398 353.2239 
L 633.256155 353.2239 
L 662.041913 353.223643 
L 690.82767 353.223643 
L 719.613428 353.2239 
L 748.399186 353.2239 
L 777.184943 353.2239 
L 805.970701 353.2239 
L 834.756458 353.2239 
L 863.542216 353.2239 
L 892.327973 353.2239 
L 921.113731 353.2239 
L 949.899489 353.222103 
" style="fill:none;stroke:#7cb5ec;stroke-linecap:square;"/>
   </g>
   <g id="line2d_68">
    <path clip-path="url(#p2a8c820bf8)" d="M 86.326761 69.457805 
L 115.112519 326.289052 
L 143.898277 348.37783 
L 172.684034 351.904644 
L 201.469792 352.675537 
L 230.255549 352.956772 
L 259.041307 353.098755 
L 287.827064 353.155639 
L 316.612822 353.19068 
L 345.39858 353.203422 
L 374.184337 353.210703 
L 402.970095 353.217984 
L 431.755852 353.217074 
L 460.54161 353.218894 
L 489.327367 353.222535 
L 518.113125 353.222535 
L 546.898883 353.223445 
L 575.68464 353.2239 
L 604.470398 353.223445 
L 633.256155 353.2239 
L 662.041913 353.2239 
L 690.82767 353.22299 
L 719.613428 353.223445 
L 748.399186 353.2239 
L 777.184943 353.223445 
L 805.970701 353.2239 
L 834.756458 353.2239 
L 863.542216 353.2239 
L 892.327973 353.2239 
L 921.113731 353.2239 
L 949.899489 353.22117 
" style="fill:none;stroke:#434348;stroke-linecap:square;"/>
   </g>
   <g id="line2d_69">
    <path clip-path="url(#p2a8c820bf8)" d="M 86.326761 82.49702 
L 115.112519 320.20412 
L 143.898277 344.914874 
L 172.684034 350.137508 
L 201.469792 351.86318 
L 230.255549 352.540106 
L 259.041307 352.890833 
L 287.827064 353.040443 
L 316.612822 353.106664 
L 345.39858 353.169452 
L 374.184337 353.188582 
L 402.970095 353.200355 
L 431.755852 353.210165 
L 460.54161 353.218995 
L 489.327367 353.219485 
L 518.113125 353.219976 
L 546.898883 353.222428 
L 575.68464 353.223409 
L 604.470398 353.223409 
L 633.256155 353.2239 
L 662.041913 353.2239 
L 690.82767 353.223409 
L 719.613428 353.2239 
L 748.399186 353.222919 
L 777.184943 353.2239 
L 805.970701 353.223409 
L 834.756458 353.2239 
L 863.542216 353.2239 
L 892.327973 353.2239 
L 921.113731 353.2239 
L 949.899489 353.220957 
" style="fill:none;stroke:#90ed7d;stroke-linecap:square;"/>
   </g>
   <g id="line2d_70">
    <path clip-path="url(#p2a8c820bf8)" d="M 86.326761 59.986585 
L 115.112519 332.827093 
L 143.898277 350.242984 
L 172.684034 352.447153 
L 201.469792 352.9506 
L 230.255549 353.085135 
L 259.041307 353.154517 
L 287.827064 353.190901 
L 316.612822 353.201054 
L 345.39858 353.20867 
L 374.184337 353.217977 
L 402.970095 353.221362 
L 431.755852 353.222208 
L 460.54161 353.221362 
L 489.327367 353.222208 
L 518.113125 353.223054 
L 546.898883 353.2239 
L 575.68464 353.223054 
L 604.470398 353.2239 
L 633.256155 353.2239 
L 662.041913 353.223054 
L 690.82767 353.2239 
L 719.613428 353.223054 
L 748.399186 353.2239 
L 777.184943 353.2239 
L 805.970701 353.2239 
L 834.756458 353.223054 
L 863.542216 353.2239 
L 892.327973 353.2239 
L 921.113731 353.2239 
L 949.899489 353.218823 
" style="fill:none;stroke:#f7a35c;stroke-linecap:square;"/>
   </g>
   <g id="line2d_71">
    <path clip-path="url(#p2a8c820bf8)" d="M 86.326761 65.471625 
L 115.112519 328.826354 
L 143.898277 349.24922 
L 172.684034 352.144121 
L 201.469792 352.821998 
L 230.255549 353.049021 
L 259.041307 353.138766 
L 287.827064 353.180624 
L 316.612822 353.19836 
L 345.39858 353.211485 
L 374.184337 353.215741 
L 402.970095 353.220707 
L 431.755852 353.221772 
L 460.54161 353.222481 
L 489.327367 353.223545 
L 518.113125 353.223545 
L 546.898883 353.223191 
L 575.68464 353.223545 
L 604.470398 353.2239 
L 633.256155 353.223545 
L 662.041913 353.2239 
L 690.82767 353.2239 
L 719.613428 353.2239 
L 748.399186 353.2239 
L 777.184943 353.223191 
L 805.970701 353.2239 
L 834.756458 353.2239 
L 863.542216 353.2239 
L 892.327973 353.2239 
L 921.113731 353.2239 
L 949.899489 353.221062 
" style="fill:none;stroke:#8085e9;stroke-linecap:square;"/>
   </g>
   <g id="line2d_72">
    <path clip-path="url(#p2a8c820bf8)" d="M 86.326761 65.87987 
L 115.112519 328.841944 
L 143.898277 349.096525 
L 172.684034 352.002334 
L 201.469792 352.766287 
L 230.255549 353.011866 
L 259.041307 353.121997 
L 287.827064 353.170733 
L 316.612822 353.192253 
L 345.39858 353.211241 
L 374.184337 353.216305 
L 402.970095 353.220102 
L 431.755852 353.220735 
L 460.54161 353.218204 
L 489.327367 353.2239 
L 518.113125 353.2239 
L 546.898883 353.2239 
L 575.68464 353.2239 
L 604.470398 353.2239 
L 633.256155 353.223267 
L 662.041913 353.2239 
L 690.82767 353.2239 
L 719.613428 353.223267 
L 748.399186 353.2239 
L 777.184943 353.2239 
L 805.970701 353.223267 
L 834.756458 353.2239 
L 863.542216 353.2239 
L 892.327973 353.223267 
L 921.113731 353.2239 
L 949.899489 353.222634 
" style="fill:none;stroke:#f15c80;stroke-linecap:square;"/>
   </g>
   <g id="line2d_73">
    <path clip-path="url(#p2a8c820bf8)" d="M 86.326761 68.315081 
L 115.112519 327.013984 
L 143.898277 348.647779 
L 172.684034 351.946894 
L 201.469792 352.701091 
L 230.255549 353.002698 
L 259.041307 353.120211 
L 287.827064 353.160959 
L 316.612822 353.185699 
L 345.39858 353.200252 
L 374.184337 353.215532 
L 402.970095 353.218443 
L 431.755852 353.220626 
L 460.54161 353.222081 
L 489.327367 353.223536 
L 518.113125 353.222809 
L 546.898883 353.2239 
L 575.68464 353.2239 
L 604.470398 353.223536 
L 633.256155 353.223536 
L 662.041913 353.2239 
L 690.82767 353.2239 
L 719.613428 353.2239 
L 748.399186 353.223536 
L 777.184943 353.2239 
L 805.970701 353.223536 
L 834.756458 353.2239 
L 863.542216 353.2239 
L 892.327973 353.2239 
L 921.113731 353.2239 
L 949.899489 353.222081 
" style="fill:none;stroke:#e4d354;stroke-linecap:square;"/>
   </g>
   <g id="line2d_74">
    <path clip-path="url(#p2a8c820bf8)" d="M 86.326761 78.890658 
L 115.112519 321.528707 
L 143.898277 345.809157 
L 172.684034 350.707217 
L 201.469792 352.1629 
L 230.255549 352.756202 
L 259.041307 352.993115 
L 287.827064 353.106976 
L 316.612822 353.164161 
L 345.39858 353.198371 
L 374.184337 353.205519 
L 402.970095 353.213178 
L 431.755852 353.218284 
L 460.54161 353.221347 
L 489.327367 353.221347 
L 518.113125 353.223389 
L 546.898883 353.222879 
L 575.68464 353.223389 
L 604.470398 353.2239 
L 633.256155 353.2239 
L 662.041913 353.223389 
L 690.82767 353.223389 
L 719.613428 353.2239 
L 748.399186 353.223389 
L 777.184943 353.2239 
L 805.970701 353.2239 
L 834.756458 353.2239 
L 863.542216 353.2239 
L 892.327973 353.2239 
L 921.113731 353.2239 
L 949.899489 353.220836 
" style="fill:none;stroke:#2b908f;stroke-linecap:square;"/>
   </g>
   <g id="line2d_75">
    <path clip-path="url(#p2a8c820bf8)" d="M 86.326761 89.897613 
L 115.112519 316.166126 
L 143.898277 343.082817 
L 172.684034 349.341374 
L 201.469792 351.440238 
L 230.255549 352.378409 
L 259.041307 352.7911 
L 287.827064 353.006625 
L 316.612822 353.098869 
L 345.39858 353.16663 
L 374.184337 353.179308 
L 402.970095 353.202041 
L 431.755852 353.212534 
L 460.54161 353.216468 
L 489.327367 353.22084 
L 518.113125 353.219965 
L 546.898883 353.223026 
L 575.68464 353.2239 
L 604.470398 353.2239 
L 633.256155 353.223463 
L 662.041913 353.223463 
L 690.82767 353.2239 
L 719.613428 353.2239 
L 748.399186 353.2239 
L 777.184943 353.2239 
L 805.970701 353.2239 
L 834.756458 353.223026 
L 863.542216 353.2239 
L 892.327973 353.2239 
L 921.113731 353.223463 
L 949.899489 353.220403 
" style="fill:none;stroke:#f45b5b;stroke-linecap:square;"/>
   </g>
   <g id="line2d_76">
    <path clip-path="url(#p2a8c820bf8)" d="M 86.326761 94.552513 
L 115.112519 313.986696 
L 143.898277 341.823796 
L 172.684034 348.748034 
L 201.469792 351.190991 
L 230.255549 352.232248 
L 259.041307 352.731106 
L 287.827064 352.940138 
L 316.612822 353.067939 
L 345.39858 353.126641 
L 374.184337 353.170397 
L 402.970095 353.190325 
L 431.755852 353.208954 
L 460.54161 353.215452 
L 489.327367 353.216752 
L 518.113125 353.220651 
L 546.898883 353.220867 
L 575.68464 353.2226 
L 604.470398 353.2239 
L 633.256155 353.223683 
L 662.041913 353.223467 
L 690.82767 353.2239 
L 719.613428 353.2239 
L 748.399186 353.223683 
L 777.184943 353.2239 
L 805.970701 353.223683 
L 834.756458 353.2239 
L 863.542216 353.2239 
L 892.327973 353.223683 
L 921.113731 353.223683 
L 949.899489 353.221517 
" style="fill:none;stroke:#91e8e1;stroke-linecap:square;"/>
   </g>
   <g id="line2d_77">
    <path clip-path="url(#p2a8c820bf8)" d="M 86.326761 84.37781 
L 115.112519 318.825506 
L 143.898277 344.672988 
L 172.684034 350.096224 
L 201.469792 351.796706 
L 230.255549 352.514379 
L 259.041307 352.839723 
L 287.827064 353.006525 
L 316.612822 353.099866 
L 345.39858 353.150831 
L 374.184337 353.179518 
L 402.970095 353.198723 
L 431.755852 353.207922 
L 460.54161 353.214505 
L 489.327367 353.218298 
L 518.113125 353.220543 
L 546.898883 353.221938 
L 575.68464 353.222505 
L 604.470398 353.223246 
L 633.256155 353.223399 
L 662.041913 353.223464 
L 690.82767 353.223704 
L 719.613428 353.223791 
L 748.399186 353.223791 
L 777.184943 353.223813 
L 805.970701 353.223878 
L 834.756458 353.223878 
L 863.542216 353.223835 
L 892.327973 353.2239 
L 921.113731 353.223878 
L 949.899489 353.223813 
" style="fill:none;stroke:#7cb5ec;stroke-linecap:square;"/>
   </g>
   <g id="line2d_78">
    <path clip-path="url(#p2a8c820bf8)" d="M 43.148125 353.2239 
L 993.078125 353.2239 
" style="fill:none;stroke:#dedede;stroke-linecap:square;stroke-width:2;"/>
   </g>
   <g id="text_16">
    <!-- Fastp: Duplication Rate -->
    <defs>
     <path d="M 9.8125 72.90625 
L 51.703125 72.90625 
L 51.703125 64.59375 
L 19.671875 64.59375 
L 19.671875 43.109375 
L 48.578125 43.109375 
L 48.578125 34.8125 
L 19.671875 34.8125 
L 19.671875 0 
L 9.8125 0 
z
" id="DejaVuSans-70"/>
     <path d="M 44.28125 53.078125 
L 44.28125 44.578125 
Q 40.484375 46.53125 36.375 47.5 
Q 32.28125 48.484375 27.875 48.484375 
Q 21.1875 48.484375 17.84375 46.4375 
Q 14.5 44.390625 14.5 40.28125 
Q 14.5 37.15625 16.890625 35.375 
Q 19.28125 33.59375 26.515625 31.984375 
L 29.59375 31.296875 
Q 39.15625 29.25 43.1875 25.515625 
Q 47.21875 21.78125 47.21875 15.09375 
Q 47.21875 7.46875 41.1875 3.015625 
Q 35.15625 -1.421875 24.609375 -1.421875 
Q 20.21875 -1.421875 15.453125 -0.5625 
Q 10.6875 0.296875 5.421875 2 
L 5.421875 11.28125 
Q 10.40625 8.6875 15.234375 7.390625 
Q 20.0625 6.109375 24.8125 6.109375 
Q 31.15625 6.109375 34.5625 8.28125 
Q 37.984375 10.453125 37.984375 14.40625 
Q 37.984375 18.0625 35.515625 20.015625 
Q 33.0625 21.96875 24.703125 23.78125 
L 21.578125 24.515625 
Q 13.234375 26.265625 9.515625 29.90625 
Q 5.8125 33.546875 5.8125 39.890625 
Q 5.8125 47.609375 11.28125 51.796875 
Q 16.75 56 26.8125 56 
Q 31.78125 56 36.171875 55.265625 
Q 40.578125 54.546875 44.28125 53.078125 
z
" id="DejaVuSans-115"/>
     <path d="M 11.71875 12.40625 
L 22.015625 12.40625 
L 22.015625 0 
L 11.71875 0 
z
M 11.71875 51.703125 
L 22.015625 51.703125 
L 22.015625 39.3125 
L 11.71875 39.3125 
z
" id="DejaVuSans-58"/>
    </defs>
    <g transform="translate(424.561875 19.3575)scale(0.16 -0.16)">
     <use xlink:href="#DejaVuSans-70"/>
     <use x="57.378906" xlink:href="#DejaVuSans-97"/>
     <use x="118.658203" xlink:href="#DejaVuSans-115"/>
     <use x="170.757812" xlink:href="#DejaVuSans-116"/>
     <use x="209.966797" xlink:href="#DejaVuSans-112"/>
     <use x="273.443359" xlink:href="#DejaVuSans-58"/>
     <use x="307.134766" xlink:href="#DejaVuSans-32"/>
     <use x="338.921875" xlink:href="#DejaVuSans-68"/>
     <use x="415.923828" xlink:href="#DejaVuSans-117"/>
     <use x="479.302734" xlink:href="#DejaVuSans-112"/>
     <use x="542.779297" xlink:href="#DejaVuSans-108"/>
     <use x="570.5625" xlink:href="#DejaVuSans-105"/>
     <use x="598.345703" xlink:href="#DejaVuSans-99"/>
     <use x="653.326172" xlink:href="#DejaVuSans-97"/>
     <use x="714.605469" xlink:href="#DejaVuSans-116"/>
     <use x="753.814453" xlink:href="#DejaVuSans-105"/>
     <use x="781.597656" xlink:href="#DejaVuSans-111"/>
     <use x="842.779297" xlink:href="#DejaVuSans-110"/>
     <use x="906.158203" xlink:href="#DejaVuSans-32"/>
     <use x="937.945312" xlink:href="#DejaVuSans-82"/>
     <use x="1007.396484" xlink:href="#DejaVuSans-97"/>
     <use x="1068.675781" xlink:href="#DejaVuSans-116"/>
     <use x="1107.884766" xlink:href="#DejaVuSans-101"/>
    </g>
   </g>
  </g>
 </g>
 <defs>
  <clipPath id="p2a8c820bf8">
   <rect height="317.968" width="949.93" x="43.148125" y="35.2559"/>
  </clipPath>
 </defs>
</svg>
