<?xml version="1.0" encoding="utf-8" standalone="no"?>
<!DOCTYPE svg PUBLIC "-//W3C//DTD SVG 1.1//EN"
  "http://www.w3.org/Graphics/SVG/1.1/DTD/svg11.dtd">
<!-- Created with matplotlib (https://matplotlib.org/) -->
<svg height="388.844525pt" version="1.1" viewBox="0 0 1000.278125 388.844525" width="1000.278125pt" xmlns="http://www.w3.org/2000/svg" xmlns:xlink="http://www.w3.org/1999/xlink">
 <defs>
  <style type="text/css">
*{stroke-linecap:butt;stroke-linejoin:round;}
  </style>
 </defs>
 <g id="figure_1">
  <g id="axes_1">
   <g id="patch_1">
    <path d="M 43.148125 353.2239 
L 993.078125 353.2239 
L 993.078125 35.2559 
L 43.148125 35.2559 
z
" style="fill:#ffffff;"/>
   </g>
   <g id="matplotlib.axis_1">
    <g id="xtick_1">
     <g id="text_1">
      <!-- 0 -->
      <defs>
       <path d="M 31.78125 66.40625 
Q 24.171875 66.40625 20.328125 58.90625 
Q 16.5 51.421875 16.5 36.375 
Q 16.5 21.390625 20.328125 13.890625 
Q 24.171875 6.390625 31.78125 6.390625 
Q 39.453125 6.390625 43.28125 13.890625 
Q 47.125 21.390625 47.125 36.375 
Q 47.125 51.421875 43.28125 58.90625 
Q 39.453125 66.40625 31.78125 66.40625 
z
M 31.78125 74.21875 
Q 44.046875 74.21875 50.515625 64.515625 
Q 56.984375 54.828125 56.984375 36.375 
Q 56.984375 17.96875 50.515625 8.265625 
Q 44.046875 -1.421875 31.78125 -1.421875 
Q 19.53125 -1.421875 13.0625 8.265625 
Q 6.59375 17.96875 6.59375 36.375 
Q 6.59375 54.828125 13.0625 64.515625 
Q 19.53125 74.21875 31.78125 74.21875 
z
" id="DejaVuSans-48"/>
      </defs>
      <g transform="translate(54.996004 366.30265)scale(0.08 -0.08)">
       <use xlink:href="#DejaVuSans-48"/>
      </g>
     </g>
    </g>
    <g id="xtick_2">
     <g id="text_2">
      <!-- 5 -->
      <defs>
       <path d="M 10.796875 72.90625 
L 49.515625 72.90625 
L 49.515625 64.59375 
L 19.828125 64.59375 
L 19.828125 46.734375 
Q 21.96875 47.46875 24.109375 47.828125 
Q 26.265625 48.1875 28.421875 48.1875 
Q 40.625 48.1875 47.75 41.5 
Q 54.890625 34.8125 54.890625 23.390625 
Q 54.890625 11.625 47.5625 5.09375 
Q 40.234375 -1.421875 26.90625 -1.421875 
Q 22.3125 -1.421875 17.546875 -0.640625 
Q 12.796875 0.140625 7.71875 1.703125 
L 7.71875 11.625 
Q 12.109375 9.234375 16.796875 8.0625 
Q 21.484375 6.890625 26.703125 6.890625 
Q 35.15625 6.890625 40.078125 11.328125 
Q 45.015625 15.765625 45.015625 23.390625 
Q 45.015625 31 40.078125 35.4375 
Q 35.15625 39.890625 26.703125 39.890625 
Q 22.75 39.890625 18.8125 39.015625 
Q 14.890625 38.140625 10.796875 36.28125 
z
" id="DejaVuSans-53"/>
      </defs>
      <g transform="translate(198.924792 366.30265)scale(0.08 -0.08)">
       <use xlink:href="#DejaVuSans-53"/>
      </g>
     </g>
    </g>
    <g id="xtick_3">
     <g id="text_3">
      <!-- 10 -->
      <defs>
       <path d="M 12.40625 8.296875 
L 28.515625 8.296875 
L 28.515625 63.921875 
L 10.984375 60.40625 
L 10.984375 69.390625 
L 28.421875 72.90625 
L 38.28125 72.90625 
L 38.28125 8.296875 
L 54.390625 8.296875 
L 54.390625 0 
L 12.40625 0 
z
" id="DejaVuSans-49"/>
      </defs>
      <g transform="translate(340.30858 366.30265)scale(0.08 -0.08)">
       <use xlink:href="#DejaVuSans-49"/>
       <use x="63.623047" xlink:href="#DejaVuSans-48"/>
      </g>
     </g>
    </g>
    <g id="xtick_4">
     <g id="text_4">
      <!-- 15 -->
      <g transform="translate(484.237367 366.30265)scale(0.08 -0.08)">
       <use xlink:href="#DejaVuSans-49"/>
       <use x="63.623047" xlink:href="#DejaVuSans-53"/>
      </g>
     </g>
    </g>
    <g id="xtick_5">
     <g id="text_5">
      <!-- 20 -->
      <defs>
       <path d="M 19.1875 8.296875 
L 53.609375 8.296875 
L 53.609375 0 
L 7.328125 0 
L 7.328125 8.296875 
Q 12.9375 14.109375 22.625 23.890625 
Q 32.328125 33.6875 34.8125 36.53125 
Q 39.546875 41.84375 41.421875 45.53125 
Q 43.3125 49.21875 43.3125 52.78125 
Q 43.3125 58.59375 39.234375 62.25 
Q 35.15625 65.921875 28.609375 65.921875 
Q 23.96875 65.921875 18.8125 64.3125 
Q 13.671875 62.703125 7.8125 59.421875 
L 7.8125 69.390625 
Q 13.765625 71.78125 18.9375 73 
Q 24.125 74.21875 28.421875 74.21875 
Q 39.75 74.21875 46.484375 68.546875 
Q 53.21875 62.890625 53.21875 53.421875 
Q 53.21875 48.921875 51.53125 44.890625 
Q 49.859375 40.875 45.40625 35.40625 
Q 44.1875 33.984375 37.640625 27.21875 
Q 31.109375 20.453125 19.1875 8.296875 
z
" id="DejaVuSans-50"/>
      </defs>
      <g transform="translate(628.166155 366.30265)scale(0.08 -0.08)">
       <use xlink:href="#DejaVuSans-50"/>
       <use x="63.623047" xlink:href="#DejaVuSans-48"/>
      </g>
     </g>
    </g>
    <g id="xtick_6">
     <g id="text_6">
      <!-- 25 -->
      <g transform="translate(772.094943 366.30265)scale(0.08 -0.08)">
       <use xlink:href="#DejaVuSans-50"/>
       <use x="63.623047" xlink:href="#DejaVuSans-53"/>
      </g>
     </g>
    </g>
    <g id="xtick_7">
     <g id="text_7">
      <!-- 30 -->
      <defs>
       <path d="M 40.578125 39.3125 
Q 47.65625 37.796875 51.625 33 
Q 55.609375 28.21875 55.609375 21.1875 
Q 55.609375 10.40625 48.1875 4.484375 
Q 40.765625 -1.421875 27.09375 -1.421875 
Q 22.515625 -1.421875 17.65625 -0.515625 
Q 12.796875 0.390625 7.625 2.203125 
L 7.625 11.71875 
Q 11.71875 9.328125 16.59375 8.109375 
Q 21.484375 6.890625 26.8125 6.890625 
Q 36.078125 6.890625 40.9375 10.546875 
Q 45.796875 14.203125 45.796875 21.1875 
Q 45.796875 27.640625 41.28125 31.265625 
Q 36.765625 34.90625 28.71875 34.90625 
L 20.21875 34.90625 
L 20.21875 43.015625 
L 29.109375 43.015625 
Q 36.375 43.015625 40.234375 45.921875 
Q 44.09375 48.828125 44.09375 54.296875 
Q 44.09375 59.90625 40.109375 62.90625 
Q 36.140625 65.921875 28.71875 65.921875 
Q 24.65625 65.921875 20.015625 65.03125 
Q 15.375 64.15625 9.8125 62.3125 
L 9.8125 71.09375 
Q 15.4375 72.65625 20.34375 73.4375 
Q 25.25 74.21875 29.59375 74.21875 
Q 40.828125 74.21875 47.359375 69.109375 
Q 53.90625 64.015625 53.90625 55.328125 
Q 53.90625 49.265625 50.4375 45.09375 
Q 46.96875 40.921875 40.578125 39.3125 
z
" id="DejaVuSans-51"/>
      </defs>
      <g transform="translate(916.023731 366.30265)scale(0.08 -0.08)">
       <use xlink:href="#DejaVuSans-51"/>
       <use x="63.623047" xlink:href="#DejaVuSans-48"/>
      </g>
     </g>
    </g>
    <g id="text_8">
     <!-- Duplication level -->
     <defs>
      <path d="M 19.671875 64.796875 
L 19.671875 8.109375 
L 31.59375 8.109375 
Q 46.6875 8.109375 53.6875 14.9375 
Q 60.6875 21.78125 60.6875 36.53125 
Q 60.6875 51.171875 53.6875 57.984375 
Q 46.6875 64.796875 31.59375 64.796875 
z
M 9.8125 72.90625 
L 30.078125 72.90625 
Q 51.265625 72.90625 61.171875 64.09375 
Q 71.09375 55.28125 71.09375 36.53125 
Q 71.09375 17.671875 61.125 8.828125 
Q 51.171875 0 30.078125 0 
L 9.8125 0 
z
" id="DejaVuSans-68"/>
      <path d="M 8.5 21.578125 
L 8.5 54.6875 
L 17.484375 54.6875 
L 17.484375 21.921875 
Q 17.484375 14.15625 20.5 10.265625 
Q 23.53125 6.390625 29.59375 6.390625 
Q 36.859375 6.390625 41.078125 11.03125 
Q 45.3125 15.671875 45.3125 23.6875 
L 45.3125 54.6875 
L 54.296875 54.6875 
L 54.296875 0 
L 45.3125 0 
L 45.3125 8.40625 
Q 42.046875 3.421875 37.71875 1 
Q 33.40625 -1.421875 27.6875 -1.421875 
Q 18.265625 -1.421875 13.375 4.4375 
Q 8.5 10.296875 8.5 21.578125 
z
M 31.109375 56 
z
" id="DejaVuSans-117"/>
      <path d="M 18.109375 8.203125 
L 18.109375 -20.796875 
L 9.078125 -20.796875 
L 9.078125 54.6875 
L 18.109375 54.6875 
L 18.109375 46.390625 
Q 20.953125 51.265625 25.265625 53.625 
Q 29.59375 56 35.59375 56 
Q 45.5625 56 51.78125 48.09375 
Q 58.015625 40.1875 58.015625 27.296875 
Q 58.015625 14.40625 51.78125 6.484375 
Q 45.5625 -1.421875 35.59375 -1.421875 
Q 29.59375 -1.421875 25.265625 0.953125 
Q 20.953125 3.328125 18.109375 8.203125 
z
M 48.6875 27.296875 
Q 48.6875 37.203125 44.609375 42.84375 
Q 40.53125 48.484375 33.40625 48.484375 
Q 26.265625 48.484375 22.1875 42.84375 
Q 18.109375 37.203125 18.109375 27.296875 
Q 18.109375 17.390625 22.1875 11.75 
Q 26.265625 6.109375 33.40625 6.109375 
Q 40.53125 6.109375 44.609375 11.75 
Q 48.6875 17.390625 48.6875 27.296875 
z
" id="DejaVuSans-112"/>
      <path d="M 9.421875 75.984375 
L 18.40625 75.984375 
L 18.40625 0 
L 9.421875 0 
z
" id="DejaVuSans-108"/>
      <path d="M 9.421875 54.6875 
L 18.40625 54.6875 
L 18.40625 0 
L 9.421875 0 
z
M 9.421875 75.984375 
L 18.40625 75.984375 
L 18.40625 64.59375 
L 9.421875 64.59375 
z
" id="DejaVuSans-105"/>
      <path d="M 48.78125 52.59375 
L 48.78125 44.1875 
Q 44.96875 46.296875 41.140625 47.34375 
Q 37.3125 48.390625 33.40625 48.390625 
Q 24.65625 48.390625 19.8125 42.84375 
Q 14.984375 37.3125 14.984375 27.296875 
Q 14.984375 17.28125 19.8125 11.734375 
Q 24.65625 6.203125 33.40625 6.203125 
Q 37.3125 6.203125 41.140625 7.25 
Q 44.96875 8.296875 48.78125 10.40625 
L 48.78125 2.09375 
Q 45.015625 0.34375 40.984375 -0.53125 
Q 36.96875 -1.421875 32.421875 -1.421875 
Q 20.0625 -1.421875 12.78125 6.34375 
Q 5.515625 14.109375 5.515625 27.296875 
Q 5.515625 40.671875 12.859375 48.328125 
Q 20.21875 56 33.015625 56 
Q 37.15625 56 41.109375 55.140625 
Q 45.0625 54.296875 48.78125 52.59375 
z
" id="DejaVuSans-99"/>
      <path d="M 34.28125 27.484375 
Q 23.390625 27.484375 19.1875 25 
Q 14.984375 22.515625 14.984375 16.5 
Q 14.984375 11.71875 18.140625 8.90625 
Q 21.296875 6.109375 26.703125 6.109375 
Q 34.1875 6.109375 38.703125 11.40625 
Q 43.21875 16.703125 43.21875 25.484375 
L 43.21875 27.484375 
z
M 52.203125 31.203125 
L 52.203125 0 
L 43.21875 0 
L 43.21875 8.296875 
Q 40.140625 3.328125 35.546875 0.953125 
Q 30.953125 -1.421875 24.3125 -1.421875 
Q 15.921875 -1.421875 10.953125 3.296875 
Q 6 8.015625 6 15.921875 
Q 6 25.140625 12.171875 29.828125 
Q 18.359375 34.515625 30.609375 34.515625 
L 43.21875 34.515625 
L 43.21875 35.40625 
Q 43.21875 41.609375 39.140625 45 
Q 35.0625 48.390625 27.6875 48.390625 
Q 23 48.390625 18.546875 47.265625 
Q 14.109375 46.140625 10.015625 43.890625 
L 10.015625 52.203125 
Q 14.9375 54.109375 19.578125 55.046875 
Q 24.21875 56 28.609375 56 
Q 40.484375 56 46.34375 49.84375 
Q 52.203125 43.703125 52.203125 31.203125 
z
" id="DejaVuSans-97"/>
      <path d="M 18.3125 70.21875 
L 18.3125 54.6875 
L 36.8125 54.6875 
L 36.8125 47.703125 
L 18.3125 47.703125 
L 18.3125 18.015625 
Q 18.3125 11.328125 20.140625 9.421875 
Q 21.96875 7.515625 27.59375 7.515625 
L 36.8125 7.515625 
L 36.8125 0 
L 27.59375 0 
Q 17.1875 0 13.234375 3.875 
Q 9.28125 7.765625 9.28125 18.015625 
L 9.28125 47.703125 
L 2.6875 47.703125 
L 2.6875 54.6875 
L 9.28125 54.6875 
L 9.28125 70.21875 
z
" id="DejaVuSans-116"/>
      <path d="M 30.609375 48.390625 
Q 23.390625 48.390625 19.1875 42.75 
Q 14.984375 37.109375 14.984375 27.296875 
Q 14.984375 17.484375 19.15625 11.84375 
Q 23.34375 6.203125 30.609375 6.203125 
Q 37.796875 6.203125 41.984375 11.859375 
Q 46.1875 17.53125 46.1875 27.296875 
Q 46.1875 37.015625 41.984375 42.703125 
Q 37.796875 48.390625 30.609375 48.390625 
z
M 30.609375 56 
Q 42.328125 56 49.015625 48.375 
Q 55.71875 40.765625 55.71875 27.296875 
Q 55.71875 13.875 49.015625 6.21875 
Q 42.328125 -1.421875 30.609375 -1.421875 
Q 18.84375 -1.421875 12.171875 6.21875 
Q 5.515625 13.875 5.515625 27.296875 
Q 5.515625 40.765625 12.171875 48.375 
Q 18.84375 56 30.609375 56 
z
" id="DejaVuSans-111"/>
      <path d="M 54.890625 33.015625 
L 54.890625 0 
L 45.90625 0 
L 45.90625 32.71875 
Q 45.90625 40.484375 42.875 44.328125 
Q 39.84375 48.1875 33.796875 48.1875 
Q 26.515625 48.1875 22.3125 43.546875 
Q 18.109375 38.921875 18.109375 30.90625 
L 18.109375 0 
L 9.078125 0 
L 9.078125 54.6875 
L 18.109375 54.6875 
L 18.109375 46.1875 
Q 21.34375 51.125 25.703125 53.5625 
Q 30.078125 56 35.796875 56 
Q 45.21875 56 50.046875 50.171875 
Q 54.890625 44.34375 54.890625 33.015625 
z
" id="DejaVuSans-110"/>
      <path id="DejaVuSans-32"/>
      <path d="M 56.203125 29.59375 
L 56.203125 25.203125 
L 14.890625 25.203125 
Q 15.484375 15.921875 20.484375 11.0625 
Q 25.484375 6.203125 34.421875 6.203125 
Q 39.59375 6.203125 44.453125 7.46875 
Q 49.3125 8.734375 54.109375 11.28125 
L 54.109375 2.78125 
Q 49.265625 0.734375 44.1875 -0.34375 
Q 39.109375 -1.421875 33.890625 -1.421875 
Q 20.796875 -1.421875 13.15625 6.1875 
Q 5.515625 13.8125 5.515625 26.8125 
Q 5.515625 40.234375 12.765625 48.109375 
Q 20.015625 56 32.328125 56 
Q 43.359375 56 49.78125 48.890625 
Q 56.203125 41.796875 56.203125 29.59375 
z
M 47.21875 32.234375 
Q 47.125 39.59375 43.09375 43.984375 
Q 39.0625 48.390625 32.421875 48.390625 
Q 24.90625 48.390625 20.390625 44.140625 
Q 15.875 39.890625 15.1875 32.171875 
z
" id="DejaVuSans-101"/>
      <path d="M 2.984375 54.6875 
L 12.5 54.6875 
L 29.59375 8.796875 
L 46.6875 54.6875 
L 56.203125 54.6875 
L 35.6875 0 
L 23.484375 0 
z
" id="DejaVuSans-118"/>
     </defs>
     <g transform="translate(476.271719 379.564837)scale(0.1 -0.1)">
      <use xlink:href="#DejaVuSans-68"/>
      <use x="77.001953" xlink:href="#DejaVuSans-117"/>
      <use x="140.380859" xlink:href="#DejaVuSans-112"/>
      <use x="203.857422" xlink:href="#DejaVuSans-108"/>
      <use x="231.640625" xlink:href="#DejaVuSans-105"/>
      <use x="259.423828" xlink:href="#DejaVuSans-99"/>
      <use x="314.404297" xlink:href="#DejaVuSans-97"/>
      <use x="375.683594" xlink:href="#DejaVuSans-116"/>
      <use x="414.892578" xlink:href="#DejaVuSans-105"/>
      <use x="442.675781" xlink:href="#DejaVuSans-111"/>
      <use x="503.857422" xlink:href="#DejaVuSans-110"/>
      <use x="567.236328" xlink:href="#DejaVuSans-32"/>
      <use x="599.023438" xlink:href="#DejaVuSans-108"/>
      <use x="626.806641" xlink:href="#DejaVuSans-101"/>
      <use x="688.330078" xlink:href="#DejaVuSans-118"/>
      <use x="747.509766" xlink:href="#DejaVuSans-101"/>
      <use x="809.033203" xlink:href="#DejaVuSans-108"/>
     </g>
    </g>
   </g>
   <g id="matplotlib.axis_2">
    <g id="ytick_1">
     <g id="line2d_1">
      <path clip-path="url(#p7c64a49bc9)" d="M 43.148125 353.2239 
L 993.078125 353.2239 
" style="fill:none;stroke:#dedede;stroke-linecap:square;"/>
     </g>
     <g id="text_9">
      <!-- 0 -->
      <g transform="translate(31.058125 356.263275)scale(0.08 -0.08)">
       <use xlink:href="#DejaVuSans-48"/>
      </g>
     </g>
    </g>
    <g id="ytick_2">
     <g id="line2d_2">
      <path clip-path="url(#p7c64a49bc9)" d="M 43.148125 289.6303 
L 993.078125 289.6303 
" style="fill:none;stroke:#dedede;stroke-linecap:square;"/>
     </g>
     <g id="text_10">
      <!-- 20 -->
      <g transform="translate(25.968125 292.669675)scale(0.08 -0.08)">
       <use xlink:href="#DejaVuSans-50"/>
       <use x="63.623047" xlink:href="#DejaVuSans-48"/>
      </g>
     </g>
    </g>
    <g id="ytick_3">
     <g id="line2d_3">
      <path clip-path="url(#p7c64a49bc9)" d="M 43.148125 226.0367 
L 993.078125 226.0367 
" style="fill:none;stroke:#dedede;stroke-linecap:square;"/>
     </g>
     <g id="text_11">
      <!-- 40 -->
      <defs>
       <path d="M 37.796875 64.3125 
L 12.890625 25.390625 
L 37.796875 25.390625 
z
M 35.203125 72.90625 
L 47.609375 72.90625 
L 47.609375 25.390625 
L 58.015625 25.390625 
L 58.015625 17.1875 
L 47.609375 17.1875 
L 47.609375 0 
L 37.796875 0 
L 37.796875 17.1875 
L 4.890625 17.1875 
L 4.890625 26.703125 
z
" id="DejaVuSans-52"/>
      </defs>
      <g transform="translate(25.968125 229.076075)scale(0.08 -0.08)">
       <use xlink:href="#DejaVuSans-52"/>
       <use x="63.623047" xlink:href="#DejaVuSans-48"/>
      </g>
     </g>
    </g>
    <g id="ytick_4">
     <g id="line2d_4">
      <path clip-path="url(#p7c64a49bc9)" d="M 43.148125 162.4431 
L 993.078125 162.4431 
" style="fill:none;stroke:#dedede;stroke-linecap:square;"/>
     </g>
     <g id="text_12">
      <!-- 60 -->
      <defs>
       <path d="M 33.015625 40.375 
Q 26.375 40.375 22.484375 35.828125 
Q 18.609375 31.296875 18.609375 23.390625 
Q 18.609375 15.53125 22.484375 10.953125 
Q 26.375 6.390625 33.015625 6.390625 
Q 39.65625 6.390625 43.53125 10.953125 
Q 47.40625 15.53125 47.40625 23.390625 
Q 47.40625 31.296875 43.53125 35.828125 
Q 39.65625 40.375 33.015625 40.375 
z
M 52.59375 71.296875 
L 52.59375 62.3125 
Q 48.875 64.0625 45.09375 64.984375 
Q 41.3125 65.921875 37.59375 65.921875 
Q 27.828125 65.921875 22.671875 59.328125 
Q 17.53125 52.734375 16.796875 39.40625 
Q 19.671875 43.65625 24.015625 45.921875 
Q 28.375 48.1875 33.59375 48.1875 
Q 44.578125 48.1875 50.953125 41.515625 
Q 57.328125 34.859375 57.328125 23.390625 
Q 57.328125 12.15625 50.6875 5.359375 
Q 44.046875 -1.421875 33.015625 -1.421875 
Q 20.359375 -1.421875 13.671875 8.265625 
Q 6.984375 17.96875 6.984375 36.375 
Q 6.984375 53.65625 15.1875 63.9375 
Q 23.390625 74.21875 37.203125 74.21875 
Q 40.921875 74.21875 44.703125 73.484375 
Q 48.484375 72.75 52.59375 71.296875 
z
" id="DejaVuSans-54"/>
      </defs>
      <g transform="translate(25.968125 165.482475)scale(0.08 -0.08)">
       <use xlink:href="#DejaVuSans-54"/>
       <use x="63.623047" xlink:href="#DejaVuSans-48"/>
      </g>
     </g>
    </g>
    <g id="ytick_5">
     <g id="line2d_5">
      <path clip-path="url(#p7c64a49bc9)" d="M 43.148125 98.8495 
L 993.078125 98.8495 
" style="fill:none;stroke:#dedede;stroke-linecap:square;"/>
     </g>
     <g id="text_13">
      <!-- 80 -->
      <defs>
       <path d="M 31.78125 34.625 
Q 24.75 34.625 20.71875 30.859375 
Q 16.703125 27.09375 16.703125 20.515625 
Q 16.703125 13.921875 20.71875 10.15625 
Q 24.75 6.390625 31.78125 6.390625 
Q 38.8125 6.390625 42.859375 10.171875 
Q 46.921875 13.96875 46.921875 20.515625 
Q 46.921875 27.09375 42.890625 30.859375 
Q 38.875 34.625 31.78125 34.625 
z
M 21.921875 38.8125 
Q 15.578125 40.375 12.03125 44.71875 
Q 8.5 49.078125 8.5 55.328125 
Q 8.5 64.0625 14.71875 69.140625 
Q 20.953125 74.21875 31.78125 74.21875 
Q 42.671875 74.21875 48.875 69.140625 
Q 55.078125 64.0625 55.078125 55.328125 
Q 55.078125 49.078125 51.53125 44.71875 
Q 48 40.375 41.703125 38.8125 
Q 48.828125 37.15625 52.796875 32.3125 
Q 56.78125 27.484375 56.78125 20.515625 
Q 56.78125 9.90625 50.3125 4.234375 
Q 43.84375 -1.421875 31.78125 -1.421875 
Q 19.734375 -1.421875 13.25 4.234375 
Q 6.78125 9.90625 6.78125 20.515625 
Q 6.78125 27.484375 10.78125 32.3125 
Q 14.796875 37.15625 21.921875 38.8125 
z
M 18.3125 54.390625 
Q 18.3125 48.734375 21.84375 45.5625 
Q 25.390625 42.390625 31.78125 42.390625 
Q 38.140625 42.390625 41.71875 45.5625 
Q 45.3125 48.734375 45.3125 54.390625 
Q 45.3125 60.0625 41.71875 63.234375 
Q 38.140625 66.40625 31.78125 66.40625 
Q 25.390625 66.40625 21.84375 63.234375 
Q 18.3125 60.0625 18.3125 54.390625 
z
" id="DejaVuSans-56"/>
      </defs>
      <g transform="translate(25.968125 101.888875)scale(0.08 -0.08)">
       <use xlink:href="#DejaVuSans-56"/>
       <use x="63.623047" xlink:href="#DejaVuSans-48"/>
      </g>
     </g>
    </g>
    <g id="ytick_6">
     <g id="line2d_6">
      <path clip-path="url(#p7c64a49bc9)" d="M 43.148125 35.2559 
L 993.078125 35.2559 
" style="fill:none;stroke:#dedede;stroke-linecap:square;"/>
     </g>
     <g id="text_14">
      <!-- 100 -->
      <g transform="translate(20.878125 38.295275)scale(0.08 -0.08)">
       <use xlink:href="#DejaVuSans-49"/>
       <use x="63.623047" xlink:href="#DejaVuSans-48"/>
       <use x="127.246094" xlink:href="#DejaVuSans-48"/>
      </g>
     </g>
    </g>
    <g id="text_15">
     <!-- Read percent -->
     <defs>
      <path d="M 44.390625 34.1875 
Q 47.5625 33.109375 50.5625 29.59375 
Q 53.5625 26.078125 56.59375 19.921875 
L 66.609375 0 
L 56 0 
L 46.6875 18.703125 
Q 43.0625 26.03125 39.671875 28.421875 
Q 36.28125 30.8125 30.421875 30.8125 
L 19.671875 30.8125 
L 19.671875 0 
L 9.8125 0 
L 9.8125 72.90625 
L 32.078125 72.90625 
Q 44.578125 72.90625 50.734375 67.671875 
Q 56.890625 62.453125 56.890625 51.90625 
Q 56.890625 45.015625 53.6875 40.46875 
Q 50.484375 35.9375 44.390625 34.1875 
z
M 19.671875 64.796875 
L 19.671875 38.921875 
L 32.078125 38.921875 
Q 39.203125 38.921875 42.84375 42.21875 
Q 46.484375 45.515625 46.484375 51.90625 
Q 46.484375 58.296875 42.84375 61.546875 
Q 39.203125 64.796875 32.078125 64.796875 
z
" id="DejaVuSans-82"/>
      <path d="M 45.40625 46.390625 
L 45.40625 75.984375 
L 54.390625 75.984375 
L 54.390625 0 
L 45.40625 0 
L 45.40625 8.203125 
Q 42.578125 3.328125 38.25 0.953125 
Q 33.9375 -1.421875 27.875 -1.421875 
Q 17.96875 -1.421875 11.734375 6.484375 
Q 5.515625 14.40625 5.515625 27.296875 
Q 5.515625 40.1875 11.734375 48.09375 
Q 17.96875 56 27.875 56 
Q 33.9375 56 38.25 53.625 
Q 42.578125 51.265625 45.40625 46.390625 
z
M 14.796875 27.296875 
Q 14.796875 17.390625 18.875 11.75 
Q 22.953125 6.109375 30.078125 6.109375 
Q 37.203125 6.109375 41.296875 11.75 
Q 45.40625 17.390625 45.40625 27.296875 
Q 45.40625 37.203125 41.296875 42.84375 
Q 37.203125 48.484375 30.078125 48.484375 
Q 22.953125 48.484375 18.875 42.84375 
Q 14.796875 37.203125 14.796875 27.296875 
z
" id="DejaVuSans-100"/>
      <path d="M 41.109375 46.296875 
Q 39.59375 47.171875 37.8125 47.578125 
Q 36.03125 48 33.890625 48 
Q 26.265625 48 22.1875 43.046875 
Q 18.109375 38.09375 18.109375 28.8125 
L 18.109375 0 
L 9.078125 0 
L 9.078125 54.6875 
L 18.109375 54.6875 
L 18.109375 46.1875 
Q 20.953125 51.171875 25.484375 53.578125 
Q 30.03125 56 36.53125 56 
Q 37.453125 56 38.578125 55.875 
Q 39.703125 55.765625 41.0625 55.515625 
z
" id="DejaVuSans-114"/>
     </defs>
     <g transform="translate(14.798437 227.874275)rotate(-90)scale(0.1 -0.1)">
      <use xlink:href="#DejaVuSans-82"/>
      <use x="69.419922" xlink:href="#DejaVuSans-101"/>
      <use x="130.943359" xlink:href="#DejaVuSans-97"/>
      <use x="192.222656" xlink:href="#DejaVuSans-100"/>
      <use x="255.699219" xlink:href="#DejaVuSans-32"/>
      <use x="287.486328" xlink:href="#DejaVuSans-112"/>
      <use x="350.962891" xlink:href="#DejaVuSans-101"/>
      <use x="412.486328" xlink:href="#DejaVuSans-114"/>
      <use x="453.568359" xlink:href="#DejaVuSans-99"/>
      <use x="508.548828" xlink:href="#DejaVuSans-101"/>
      <use x="570.072266" xlink:href="#DejaVuSans-110"/>
      <use x="633.451172" xlink:href="#DejaVuSans-116"/>
     </g>
    </g>
   </g>
   <g id="line2d_7">
    <path clip-path="url(#p7c64a49bc9)" d="M 86.326761 37.643146 
L 115.112519 350.981467 
L 143.898277 353.106433 
L 172.684034 353.208362 
L 201.469792 353.217063 
L 230.255549 353.220792 
L 259.041307 353.222035 
L 287.827064 353.2239 
L 316.612822 353.2239 
L 345.39858 353.2239 
L 374.184337 353.2239 
L 402.970095 353.2239 
L 431.755852 353.2239 
L 460.54161 353.2239 
L 489.327367 353.2239 
L 518.113125 353.2239 
L 546.898883 353.2239 
L 575.68464 353.2239 
L 604.470398 353.2239 
L 633.256155 353.2239 
L 662.041913 353.2239 
L 690.82767 353.2239 
L 719.613428 353.2239 
L 748.399186 353.2239 
L 777.184943 353.2239 
L 805.970701 353.2239 
L 834.756458 353.2239 
L 863.542216 353.2239 
L 892.327973 353.2239 
L 921.113731 353.2239 
L 949.899489 353.2239 
" style="fill:none;stroke:#7cb5ec;stroke-linecap:square;"/>
   </g>
   <g id="line2d_8">
    <path clip-path="url(#p7c64a49bc9)" d="M 86.326761 37.601221 
L 115.112519 351.010896 
L 143.898277 353.121354 
L 172.684034 353.204052 
L 201.469792 353.217284 
L 230.255549 353.220592 
L 259.041307 353.2239 
L 287.827064 353.2239 
L 316.612822 353.2239 
L 345.39858 353.2239 
L 374.184337 353.2239 
L 402.970095 353.2239 
L 431.755852 353.2239 
L 460.54161 353.2239 
L 489.327367 353.2239 
L 518.113125 353.2239 
L 546.898883 353.2239 
L 575.68464 353.2239 
L 604.470398 353.2239 
L 633.256155 353.2239 
L 662.041913 353.2239 
L 690.82767 353.2239 
L 719.613428 353.2239 
L 748.399186 353.2239 
L 777.184943 353.2239 
L 805.970701 353.2239 
L 834.756458 353.2239 
L 863.542216 353.2239 
L 892.327973 353.2239 
L 921.113731 353.2239 
L 949.899489 353.2239 
" style="fill:none;stroke:#434348;stroke-linecap:square;"/>
   </g>
   <g id="line2d_9">
    <path clip-path="url(#p7c64a49bc9)" d="M 86.326761 36.526369 
L 115.112519 351.98225 
L 143.898277 353.199884 
L 172.684034 353.219097 
L 201.469792 353.2239 
L 230.255549 353.2239 
L 259.041307 353.2239 
L 287.827064 353.2239 
L 316.612822 353.2239 
L 345.39858 353.2239 
L 374.184337 353.2239 
L 402.970095 353.2239 
L 431.755852 353.2239 
L 460.54161 353.2239 
L 489.327367 353.2239 
L 518.113125 353.2239 
L 546.898883 353.2239 
L 575.68464 353.2239 
L 604.470398 353.2239 
L 633.256155 353.2239 
L 662.041913 353.2239 
L 690.82767 353.2239 
L 719.613428 353.2239 
L 748.399186 353.2239 
L 777.184943 353.2239 
L 805.970701 353.2239 
L 834.756458 353.2239 
L 863.542216 353.2239 
L 892.327973 353.2239 
L 921.113731 353.2239 
L 949.899489 353.2239 
" style="fill:none;stroke:#90ed7d;stroke-linecap:square;"/>
   </g>
   <g id="line2d_10">
    <path clip-path="url(#p7c64a49bc9)" d="M 86.326761 36.423926 
L 115.112519 352.107431 
L 143.898277 353.179455 
L 172.684034 353.216789 
L 201.469792 353.2239 
L 230.255549 353.2239 
L 259.041307 353.2239 
L 287.827064 353.2239 
L 316.612822 353.2239 
L 345.39858 353.2239 
L 374.184337 353.2239 
L 402.970095 353.2239 
L 431.755852 353.2239 
L 460.54161 353.2239 
L 489.327367 353.2239 
L 518.113125 353.2239 
L 546.898883 353.2239 
L 575.68464 353.2239 
L 604.470398 353.2239 
L 633.256155 353.2239 
L 662.041913 353.2239 
L 690.82767 353.2239 
L 719.613428 353.2239 
L 748.399186 353.2239 
L 777.184943 353.2239 
L 805.970701 353.2239 
L 834.756458 353.2239 
L 863.542216 353.2239 
L 892.327973 353.2239 
L 921.113731 353.2239 
L 949.899489 353.2239 
" style="fill:none;stroke:#f7a35c;stroke-linecap:square;"/>
   </g>
   <g id="line2d_11">
    <path clip-path="url(#p7c64a49bc9)" d="M 86.326761 38.053988 
L 115.112519 350.593545 
L 143.898277 353.07904 
L 172.684034 353.208652 
L 201.469792 353.2239 
L 230.255549 353.216276 
L 259.041307 353.2239 
L 287.827064 353.2239 
L 316.612822 353.2239 
L 345.39858 353.2239 
L 374.184337 353.2239 
L 402.970095 353.2239 
L 431.755852 353.2239 
L 460.54161 353.2239 
L 489.327367 353.2239 
L 518.113125 353.2239 
L 546.898883 353.2239 
L 575.68464 353.2239 
L 604.470398 353.2239 
L 633.256155 353.2239 
L 662.041913 353.2239 
L 690.82767 353.2239 
L 719.613428 353.2239 
L 748.399186 353.2239 
L 777.184943 353.2239 
L 805.970701 353.2239 
L 834.756458 353.2239 
L 863.542216 353.2239 
L 892.327973 353.2239 
L 921.113731 353.2239 
L 949.899489 353.2239 
" style="fill:none;stroke:#8085e9;stroke-linecap:square;"/>
   </g>
   <g id="line2d_12">
    <path clip-path="url(#p7c64a49bc9)" d="M 86.326761 36.610552 
L 115.112519 351.963032 
L 143.898277 353.130116 
L 172.684034 353.2239 
L 201.469792 353.2239 
L 230.255549 353.2239 
L 259.041307 353.2239 
L 287.827064 353.2239 
L 316.612822 353.2239 
L 345.39858 353.2239 
L 374.184337 353.2239 
L 402.970095 353.2239 
L 431.755852 353.2239 
L 460.54161 353.2239 
L 489.327367 353.2239 
L 518.113125 353.2239 
L 546.898883 353.2239 
L 575.68464 353.2239 
L 604.470398 353.2239 
L 633.256155 353.2239 
L 662.041913 353.2239 
L 690.82767 353.2239 
L 719.613428 353.2239 
L 748.399186 353.2239 
L 777.184943 353.2239 
L 805.970701 353.2239 
L 834.756458 353.2239 
L 863.542216 353.2239 
L 892.327973 353.2239 
L 921.113731 353.2239 
L 949.899489 353.2239 
" style="fill:none;stroke:#f15c80;stroke-linecap:square;"/>
   </g>
   <g id="line2d_13">
    <path clip-path="url(#p7c64a49bc9)" d="M 86.326761 36.863804 
L 115.112519 351.774801 
L 143.898277 353.124647 
L 172.684034 353.184199 
L 201.469792 353.204049 
L 230.255549 353.2239 
L 259.041307 353.2239 
L 287.827064 353.2239 
L 316.612822 353.2239 
L 345.39858 353.2239 
L 374.184337 353.2239 
L 402.970095 353.2239 
L 431.755852 353.2239 
L 460.54161 353.2239 
L 489.327367 353.2239 
L 518.113125 353.2239 
L 546.898883 353.2239 
L 575.68464 353.2239 
L 604.470398 353.2239 
L 633.256155 353.2239 
L 662.041913 353.2239 
L 690.82767 353.2239 
L 719.613428 353.2239 
L 748.399186 353.2239 
L 777.184943 353.2239 
L 805.970701 353.2239 
L 834.756458 353.2239 
L 863.542216 353.2239 
L 892.327973 353.2239 
L 921.113731 353.2239 
L 949.899489 353.2239 
" style="fill:none;stroke:#e4d354;stroke-linecap:square;"/>
   </g>
   <g id="line2d_14">
    <path clip-path="url(#p7c64a49bc9)" d="M 86.326761 36.513843 
L 115.112519 352.024272 
L 143.898277 353.165585 
L 172.684034 353.2239 
L 201.469792 353.2239 
L 230.255549 353.2239 
L 259.041307 353.2239 
L 287.827064 353.2239 
L 316.612822 353.2239 
L 345.39858 353.2239 
L 374.184337 353.2239 
L 402.970095 353.2239 
L 431.755852 353.2239 
L 460.54161 353.2239 
L 489.327367 353.2239 
L 518.113125 353.2239 
L 546.898883 353.2239 
L 575.68464 353.2239 
L 604.470398 353.2239 
L 633.256155 353.2239 
L 662.041913 353.2239 
L 690.82767 353.2239 
L 719.613428 353.2239 
L 748.399186 353.2239 
L 777.184943 353.2239 
L 805.970701 353.2239 
L 834.756458 353.2239 
L 863.542216 353.2239 
L 892.327973 353.2239 
L 921.113731 353.2239 
L 949.899489 353.2239 
" style="fill:none;stroke:#2b908f;stroke-linecap:square;"/>
   </g>
   <g id="line2d_15">
    <path clip-path="url(#p7c64a49bc9)" d="M 86.326761 36.73612 
L 115.112519 351.74368 
L 143.898277 353.2239 
L 172.684034 353.2239 
L 201.469792 353.2239 
L 230.255549 353.2239 
L 259.041307 353.2239 
L 287.827064 353.2239 
L 316.612822 353.2239 
L 345.39858 353.2239 
L 374.184337 353.2239 
L 402.970095 353.2239 
L 431.755852 353.2239 
L 460.54161 353.2239 
L 489.327367 353.2239 
L 518.113125 353.2239 
L 546.898883 353.2239 
L 575.68464 353.2239 
L 604.470398 353.2239 
L 633.256155 353.2239 
L 662.041913 353.2239 
L 690.82767 353.2239 
L 719.613428 353.2239 
L 748.399186 353.2239 
L 777.184943 353.2239 
L 805.970701 353.2239 
L 834.756458 353.2239 
L 863.542216 353.2239 
L 892.327973 353.2239 
L 921.113731 353.2239 
L 949.899489 353.2239 
" style="fill:none;stroke:#f45b5b;stroke-linecap:square;"/>
   </g>
   <g id="line2d_16">
    <path clip-path="url(#p7c64a49bc9)" d="M 86.326761 36.928785 
L 115.112519 351.622967 
L 143.898277 353.157944 
L 172.684034 353.217904 
L 201.469792 353.2239 
L 230.255549 353.2239 
L 259.041307 353.2239 
L 287.827064 353.2239 
L 316.612822 353.2239 
L 345.39858 353.2239 
L 374.184337 353.2239 
L 402.970095 353.2239 
L 431.755852 353.2239 
L 460.54161 353.2239 
L 489.327367 353.2239 
L 518.113125 353.2239 
L 546.898883 353.2239 
L 575.68464 353.2239 
L 604.470398 353.2239 
L 633.256155 353.2239 
L 662.041913 353.2239 
L 690.82767 353.2239 
L 719.613428 353.2239 
L 748.399186 353.2239 
L 777.184943 353.2239 
L 805.970701 353.2239 
L 834.756458 353.2239 
L 863.542216 353.2239 
L 892.327973 353.2239 
L 921.113731 353.2239 
L 949.899489 353.2239 
" style="fill:none;stroke:#91e8e1;stroke-linecap:square;"/>
   </g>
   <g id="line2d_17">
    <path clip-path="url(#p7c64a49bc9)" d="M 86.326761 39.5108 
L 115.112519 349.174882 
L 143.898277 353.035175 
L 172.684034 353.2239 
L 201.469792 353.206743 
L 230.255549 353.2239 
L 259.041307 353.2239 
L 287.827064 353.2239 
L 316.612822 353.2239 
L 345.39858 353.2239 
L 374.184337 353.2239 
L 402.970095 353.2239 
L 431.755852 353.2239 
L 460.54161 353.2239 
L 489.327367 353.2239 
L 518.113125 353.2239 
L 546.898883 353.2239 
L 575.68464 353.2239 
L 604.470398 353.2239 
L 633.256155 353.2239 
L 662.041913 353.2239 
L 690.82767 353.2239 
L 719.613428 353.2239 
L 748.399186 353.2239 
L 777.184943 353.2239 
L 805.970701 353.2239 
L 834.756458 353.2239 
L 863.542216 353.2239 
L 892.327973 353.2239 
L 921.113731 353.2239 
L 949.899489 353.2239 
" style="fill:none;stroke:#7cb5ec;stroke-linecap:square;"/>
   </g>
   <g id="line2d_18">
    <path clip-path="url(#p7c64a49bc9)" d="M 86.326761 36.788607 
L 115.112519 351.759876 
L 143.898277 353.158832 
L 172.684034 353.220285 
L 201.469792 353.2239 
L 230.255549 353.2239 
L 259.041307 353.2239 
L 287.827064 353.2239 
L 316.612822 353.2239 
L 345.39858 353.2239 
L 374.184337 353.2239 
L 402.970095 353.2239 
L 431.755852 353.2239 
L 460.54161 353.2239 
L 489.327367 353.2239 
L 518.113125 353.2239 
L 546.898883 353.2239 
L 575.68464 353.2239 
L 604.470398 353.2239 
L 633.256155 353.2239 
L 662.041913 353.2239 
L 690.82767 353.2239 
L 719.613428 353.2239 
L 748.399186 353.2239 
L 777.184943 353.2239 
L 805.970701 353.2239 
L 834.756458 353.2239 
L 863.542216 353.2239 
L 892.327973 353.2239 
L 921.113731 353.2239 
L 949.899489 353.2239 
" style="fill:none;stroke:#434348;stroke-linecap:square;"/>
   </g>
   <g id="line2d_19">
    <path clip-path="url(#p7c64a49bc9)" d="M 86.326761 39.581935 
L 115.112519 349.022228 
L 143.898277 353.117304 
L 172.684034 353.206134 
L 201.469792 353.2239 
L 230.255549 353.2239 
L 259.041307 353.2239 
L 287.827064 353.2239 
L 316.612822 353.2239 
L 345.39858 353.2239 
L 374.184337 353.2239 
L 402.970095 353.2239 
L 431.755852 353.2239 
L 460.54161 353.2239 
L 489.327367 353.2239 
L 518.113125 353.2239 
L 546.898883 353.2239 
L 575.68464 353.2239 
L 604.470398 353.2239 
L 633.256155 353.2239 
L 662.041913 353.2239 
L 690.82767 353.2239 
L 719.613428 353.2239 
L 748.399186 353.2239 
L 777.184943 353.2239 
L 805.970701 353.2239 
L 834.756458 353.2239 
L 863.542216 353.2239 
L 892.327973 353.2239 
L 921.113731 353.2239 
L 949.899489 353.2239 
" style="fill:none;stroke:#90ed7d;stroke-linecap:square;"/>
   </g>
   <g id="line2d_20">
    <path clip-path="url(#p7c64a49bc9)" d="M 86.326761 37.806268 
L 115.112519 350.83914 
L 143.898277 353.102454 
L 172.684034 353.201819 
L 201.469792 353.212859 
L 230.255549 353.2239 
L 259.041307 353.2239 
L 287.827064 353.212859 
L 316.612822 353.2239 
L 345.39858 353.2239 
L 374.184337 353.2239 
L 402.970095 353.2239 
L 431.755852 353.2239 
L 460.54161 353.2239 
L 489.327367 353.2239 
L 518.113125 353.2239 
L 546.898883 353.2239 
L 575.68464 353.2239 
L 604.470398 353.2239 
L 633.256155 353.2239 
L 662.041913 353.2239 
L 690.82767 353.2239 
L 719.613428 353.2239 
L 748.399186 353.2239 
L 777.184943 353.2239 
L 805.970701 353.2239 
L 834.756458 353.2239 
L 863.542216 353.2239 
L 892.327973 353.2239 
L 921.113731 353.2239 
L 949.899489 353.2239 
" style="fill:none;stroke:#f7a35c;stroke-linecap:square;"/>
   </g>
   <g id="line2d_21">
    <path clip-path="url(#p7c64a49bc9)" d="M 86.326761 37.096678 
L 115.112519 351.472323 
L 143.898277 353.150918 
L 172.684034 353.2239 
L 201.469792 353.207682 
L 230.255549 353.2239 
L 259.041307 353.2239 
L 287.827064 353.2239 
L 316.612822 353.2239 
L 345.39858 353.2239 
L 374.184337 353.2239 
L 402.970095 353.2239 
L 431.755852 353.2239 
L 460.54161 353.2239 
L 489.327367 353.2239 
L 518.113125 353.2239 
L 546.898883 353.2239 
L 575.68464 353.2239 
L 604.470398 353.2239 
L 633.256155 353.2239 
L 662.041913 353.2239 
L 690.82767 353.2239 
L 719.613428 353.2239 
L 748.399186 353.2239 
L 777.184943 353.2239 
L 805.970701 353.2239 
L 834.756458 353.2239 
L 863.542216 353.2239 
L 892.327973 353.2239 
L 921.113731 353.2239 
L 949.899489 353.2239 
" style="fill:none;stroke:#8085e9;stroke-linecap:square;"/>
   </g>
   <g id="line2d_22">
    <path clip-path="url(#p7c64a49bc9)" d="M 86.326761 36.364045 
L 115.112519 352.17103 
L 143.898277 353.176521 
L 172.684034 353.216003 
L 201.469792 353.2239 
L 230.255549 353.2239 
L 259.041307 353.2239 
L 287.827064 353.2239 
L 316.612822 353.2239 
L 345.39858 353.2239 
L 374.184337 353.2239 
L 402.970095 353.2239 
L 431.755852 353.2239 
L 460.54161 353.2239 
L 489.327367 353.2239 
L 518.113125 353.2239 
L 546.898883 353.2239 
L 575.68464 353.2239 
L 604.470398 353.2239 
L 633.256155 353.2239 
L 662.041913 353.2239 
L 690.82767 353.2239 
L 719.613428 353.2239 
L 748.399186 353.2239 
L 777.184943 353.2239 
L 805.970701 353.2239 
L 834.756458 353.2239 
L 863.542216 353.2239 
L 892.327973 353.2239 
L 921.113731 353.2239 
L 949.899489 353.2239 
" style="fill:none;stroke:#f15c80;stroke-linecap:square;"/>
   </g>
   <g id="line2d_23">
    <path clip-path="url(#p7c64a49bc9)" d="M 86.326761 36.951024 
L 115.112519 351.607163 
L 143.898277 353.166743 
L 172.684034 353.207569 
L 201.469792 353.222267 
L 230.255549 353.222267 
L 259.041307 353.2239 
L 287.827064 353.222267 
L 316.612822 353.2239 
L 345.39858 353.2239 
L 374.184337 353.2239 
L 402.970095 353.2239 
L 431.755852 353.2239 
L 460.54161 353.2239 
L 489.327367 353.2239 
L 518.113125 353.2239 
L 546.898883 353.2239 
L 575.68464 353.2239 
L 604.470398 353.2239 
L 633.256155 353.2239 
L 662.041913 353.2239 
L 690.82767 353.2239 
L 719.613428 353.2239 
L 748.399186 353.2239 
L 777.184943 353.2239 
L 805.970701 353.2239 
L 834.756458 353.2239 
L 863.542216 353.2239 
L 892.327973 353.2239 
L 921.113731 353.2239 
L 949.899489 353.2239 
" style="fill:none;stroke:#e4d354;stroke-linecap:square;"/>
   </g>
   <g id="line2d_24">
    <path clip-path="url(#p7c64a49bc9)" d="M 86.326761 37.231388 
L 115.112519 351.31841 
L 143.898277 353.16168 
L 172.684034 353.216122 
L 201.469792 353.2239 
L 230.255549 353.2239 
L 259.041307 353.2239 
L 287.827064 353.2239 
L 316.612822 353.2239 
L 345.39858 353.2239 
L 374.184337 353.2239 
L 402.970095 353.2239 
L 431.755852 353.2239 
L 460.54161 353.2239 
L 489.327367 353.2239 
L 518.113125 353.2239 
L 546.898883 353.2239 
L 575.68464 353.2239 
L 604.470398 353.2239 
L 633.256155 353.2239 
L 662.041913 353.2239 
L 690.82767 353.2239 
L 719.613428 353.2239 
L 748.399186 353.2239 
L 777.184943 353.2239 
L 805.970701 353.2239 
L 834.756458 353.2239 
L 863.542216 353.2239 
L 892.327973 353.2239 
L 921.113731 353.2239 
L 949.899489 353.2239 
" style="fill:none;stroke:#2b908f;stroke-linecap:square;"/>
   </g>
   <g id="line2d_25">
    <path clip-path="url(#p7c64a49bc9)" d="M 86.326761 36.926099 
L 115.112519 351.711267 
L 143.898277 353.12936 
L 172.684034 353.2239 
L 201.469792 353.160874 
L 230.255549 353.2239 
L 259.041307 353.2239 
L 287.827064 353.2239 
L 316.612822 353.2239 
L 345.39858 353.2239 
L 374.184337 353.2239 
L 402.970095 353.2239 
L 431.755852 353.2239 
L 460.54161 353.2239 
L 489.327367 353.2239 
L 518.113125 353.2239 
L 546.898883 353.2239 
L 575.68464 353.2239 
L 604.470398 353.2239 
L 633.256155 353.2239 
L 662.041913 353.2239 
L 690.82767 353.2239 
L 719.613428 353.2239 
L 748.399186 353.2239 
L 777.184943 353.2239 
L 805.970701 353.2239 
L 834.756458 353.2239 
L 863.542216 353.2239 
L 892.327973 353.2239 
L 921.113731 353.2239 
L 949.899489 353.2239 
" style="fill:none;stroke:#f45b5b;stroke-linecap:square;"/>
   </g>
   <g id="line2d_26">
    <path clip-path="url(#p7c64a49bc9)" d="M 86.326761 37.405653 
L 115.112519 351.230493 
L 143.898277 353.067554 
L 172.684034 353.2239 
L 201.469792 353.2239 
L 230.255549 353.2239 
L 259.041307 353.2239 
L 287.827064 353.2239 
L 316.612822 353.2239 
L 345.39858 353.2239 
L 374.184337 353.2239 
L 402.970095 353.2239 
L 431.755852 353.2239 
L 460.54161 353.2239 
L 489.327367 353.2239 
L 518.113125 353.2239 
L 546.898883 353.2239 
L 575.68464 353.2239 
L 604.470398 353.2239 
L 633.256155 353.2239 
L 662.041913 353.2239 
L 690.82767 353.2239 
L 719.613428 353.2239 
L 748.399186 353.2239 
L 777.184943 353.2239 
L 805.970701 353.2239 
L 834.756458 353.2239 
L 863.542216 353.2239 
L 892.327973 353.2239 
L 921.113731 353.2239 
L 949.899489 353.2239 
" style="fill:none;stroke:#91e8e1;stroke-linecap:square;"/>
   </g>
   <g id="line2d_27">
    <path clip-path="url(#p7c64a49bc9)" d="M 86.326761 38.120477 
L 115.112519 350.645781 
L 143.898277 353.2239 
L 172.684034 352.937442 
L 201.469792 353.2239 
L 230.255549 353.2239 
L 259.041307 353.2239 
L 287.827064 353.2239 
L 316.612822 353.2239 
L 345.39858 353.2239 
L 374.184337 353.2239 
L 402.970095 353.2239 
L 431.755852 353.2239 
L 460.54161 353.2239 
L 489.327367 353.2239 
L 518.113125 353.2239 
L 546.898883 353.2239 
L 575.68464 353.2239 
L 604.470398 353.2239 
L 633.256155 353.2239 
L 662.041913 353.2239 
L 690.82767 353.2239 
L 719.613428 353.2239 
L 748.399186 353.2239 
L 777.184943 353.2239 
L 805.970701 353.2239 
L 834.756458 353.2239 
L 863.542216 353.2239 
L 892.327973 353.2239 
L 921.113731 353.2239 
L 949.899489 353.2239 
" style="fill:none;stroke:#7cb5ec;stroke-linecap:square;"/>
   </g>
   <g id="line2d_28">
    <path clip-path="url(#p7c64a49bc9)" d="M 86.326761 38.693177 
L 115.112519 349.932608 
L 143.898277 353.104458 
L 172.684034 353.197357 
L 201.469792 353.2239 
L 230.255549 353.2239 
L 259.041307 353.2239 
L 287.827064 353.2239 
L 316.612822 353.2239 
L 345.39858 353.2239 
L 374.184337 353.2239 
L 402.970095 353.2239 
L 431.755852 353.2239 
L 460.54161 353.2239 
L 489.327367 353.2239 
L 518.113125 353.2239 
L 546.898883 353.2239 
L 575.68464 353.2239 
L 604.470398 353.2239 
L 633.256155 353.2239 
L 662.041913 353.2239 
L 690.82767 353.2239 
L 719.613428 353.2239 
L 748.399186 353.2239 
L 777.184943 353.2239 
L 805.970701 353.2239 
L 834.756458 353.2239 
L 863.542216 353.2239 
L 892.327973 353.2239 
L 921.113731 353.2239 
L 949.899489 353.2239 
" style="fill:none;stroke:#434348;stroke-linecap:square;"/>
   </g>
   <g id="line2d_29">
    <path clip-path="url(#p7c64a49bc9)" d="M 86.326761 39.598128 
L 115.112519 349.339623 
L 143.898277 352.880603 
L 172.684034 353.148793 
L 201.469792 353.197978 
L 230.255549 353.217586 
L 259.041307 353.21958 
L 287.827064 353.222571 
L 316.612822 353.223235 
L 345.39858 353.223235 
L 374.184337 353.223568 
L 402.970095 353.2239 
L 431.755852 353.2239 
L 460.54161 353.2239 
L 489.327367 353.2239 
L 518.113125 353.2239 
L 546.898883 353.2239 
L 575.68464 353.2239 
L 604.470398 353.2239 
L 633.256155 353.2239 
L 662.041913 353.2239 
L 690.82767 353.2239 
L 719.613428 353.2239 
L 748.399186 353.2239 
L 777.184943 353.2239 
L 805.970701 353.2239 
L 834.756458 353.2239 
L 863.542216 353.2239 
L 892.327973 353.2239 
L 921.113731 353.2239 
L 949.899489 353.2239 
" style="fill:none;stroke:#90ed7d;stroke-linecap:square;"/>
   </g>
   <g id="line2d_30">
    <path clip-path="url(#p7c64a49bc9)" d="M 86.326761 38.970852 
L 115.112519 349.888675 
L 143.898277 352.937644 
L 172.684034 353.162825 
L 201.469792 353.203719 
L 230.255549 353.21912 
L 259.041307 353.219651 
L 287.827064 353.221245 
L 316.612822 353.223369 
L 345.39858 353.2239 
L 374.184337 353.2239 
L 402.970095 353.2239 
L 431.755852 353.2239 
L 460.54161 353.2239 
L 489.327367 353.2239 
L 518.113125 353.2239 
L 546.898883 353.2239 
L 575.68464 353.2239 
L 604.470398 353.2239 
L 633.256155 353.2239 
L 662.041913 353.2239 
L 690.82767 353.2239 
L 719.613428 353.2239 
L 748.399186 353.2239 
L 777.184943 353.2239 
L 805.970701 353.2239 
L 834.756458 353.2239 
L 863.542216 353.2239 
L 892.327973 353.2239 
L 921.113731 353.2239 
L 949.899489 353.2239 
" style="fill:none;stroke:#f7a35c;stroke-linecap:square;"/>
   </g>
   <g id="line2d_31">
    <path clip-path="url(#p7c64a49bc9)" d="M 86.326761 40.113997 
L 115.112519 348.900353 
L 143.898277 352.820598 
L 172.684034 353.131517 
L 201.469792 353.197778 
L 230.255549 353.213706 
L 259.041307 353.222626 
L 287.827064 353.223263 
L 316.612822 353.223263 
L 345.39858 353.2239 
L 374.184337 353.2239 
L 402.970095 353.2239 
L 431.755852 353.2239 
L 460.54161 353.2239 
L 489.327367 353.2239 
L 518.113125 353.2239 
L 546.898883 353.2239 
L 575.68464 353.2239 
L 604.470398 353.2239 
L 633.256155 353.2239 
L 662.041913 353.2239 
L 690.82767 353.2239 
L 719.613428 353.2239 
L 748.399186 353.2239 
L 777.184943 353.2239 
L 805.970701 353.2239 
L 834.756458 353.2239 
L 863.542216 353.2239 
L 892.327973 353.2239 
L 921.113731 353.2239 
L 949.899489 353.2239 
" style="fill:none;stroke:#8085e9;stroke-linecap:square;"/>
   </g>
   <g id="line2d_32">
    <path clip-path="url(#p7c64a49bc9)" d="M 86.326761 38.970438 
L 115.112519 349.848071 
L 143.898277 352.961682 
L 172.684034 353.172224 
L 201.469792 353.208295 
L 230.255549 353.218528 
L 259.041307 353.221342 
L 287.827064 353.223388 
L 316.612822 353.223644 
L 345.39858 353.223644 
L 374.184337 353.223644 
L 402.970095 353.2239 
L 431.755852 353.2239 
L 460.54161 353.2239 
L 489.327367 353.2239 
L 518.113125 353.2239 
L 546.898883 353.2239 
L 575.68464 353.2239 
L 604.470398 353.2239 
L 633.256155 353.2239 
L 662.041913 353.2239 
L 690.82767 353.2239 
L 719.613428 353.2239 
L 748.399186 353.2239 
L 777.184943 353.2239 
L 805.970701 353.2239 
L 834.756458 353.2239 
L 863.542216 353.2239 
L 892.327973 353.2239 
L 921.113731 353.2239 
L 949.899489 353.2239 
" style="fill:none;stroke:#f15c80;stroke-linecap:square;"/>
   </g>
   <g id="line2d_33">
    <path clip-path="url(#p7c64a49bc9)" d="M 86.326761 42.061205 
L 115.112519 347.211705 
L 143.898277 352.635735 
L 172.684034 353.083176 
L 201.469792 353.188105 
L 230.255549 353.209161 
L 259.041307 353.217934 
L 287.827064 353.22004 
L 316.612822 353.222145 
L 345.39858 353.222496 
L 374.184337 353.223549 
L 402.970095 353.2239 
L 431.755852 353.223549 
L 460.54161 353.2239 
L 489.327367 353.2239 
L 518.113125 353.2239 
L 546.898883 353.2239 
L 575.68464 353.2239 
L 604.470398 353.2239 
L 633.256155 353.2239 
L 662.041913 353.2239 
L 690.82767 353.2239 
L 719.613428 353.2239 
L 748.399186 353.2239 
L 777.184943 353.2239 
L 805.970701 353.2239 
L 834.756458 353.2239 
L 863.542216 353.2239 
L 892.327973 353.2239 
L 921.113731 353.2239 
L 949.899489 353.2239 
" style="fill:none;stroke:#e4d354;stroke-linecap:square;"/>
   </g>
   <g id="line2d_34">
    <path clip-path="url(#p7c64a49bc9)" d="M 86.326761 39.992328 
L 115.112519 349.054867 
L 143.898277 352.801043 
L 172.684034 353.135312 
L 201.469792 353.193055 
L 230.255549 353.21063 
L 259.041307 353.219237 
L 287.827064 353.219596 
L 316.612822 353.222465 
L 345.39858 353.223541 
L 374.184337 353.223541 
L 402.970095 353.223541 
L 431.755852 353.2239 
L 460.54161 353.2239 
L 489.327367 353.2239 
L 518.113125 353.223541 
L 546.898883 353.2239 
L 575.68464 353.2239 
L 604.470398 353.2239 
L 633.256155 353.2239 
L 662.041913 353.2239 
L 690.82767 353.2239 
L 719.613428 353.2239 
L 748.399186 353.2239 
L 777.184943 353.2239 
L 805.970701 353.2239 
L 834.756458 353.2239 
L 863.542216 353.2239 
L 892.327973 353.2239 
L 921.113731 353.2239 
L 949.899489 353.2239 
" style="fill:none;stroke:#2b908f;stroke-linecap:square;"/>
   </g>
   <g id="line2d_35">
    <path clip-path="url(#p7c64a49bc9)" d="M 86.326761 39.447108 
L 115.112519 349.389274 
L 143.898277 352.942901 
L 172.684034 353.174527 
L 201.469792 353.208052 
L 230.255549 353.217195 
L 259.041307 353.221462 
L 287.827064 353.22329 
L 316.612822 353.2239 
L 345.39858 353.2239 
L 374.184337 353.22329 
L 402.970095 353.2239 
L 431.755852 353.2239 
L 460.54161 353.2239 
L 489.327367 353.2239 
L 518.113125 353.2239 
L 546.898883 353.2239 
L 575.68464 353.2239 
L 604.470398 353.2239 
L 633.256155 353.2239 
L 662.041913 353.2239 
L 690.82767 353.2239 
L 719.613428 353.2239 
L 748.399186 353.2239 
L 777.184943 353.2239 
L 805.970701 353.2239 
L 834.756458 353.2239 
L 863.542216 353.2239 
L 892.327973 353.2239 
L 921.113731 353.2239 
L 949.899489 353.2239 
" style="fill:none;stroke:#f45b5b;stroke-linecap:square;"/>
   </g>
   <g id="line2d_36">
    <path clip-path="url(#p7c64a49bc9)" d="M 86.326761 49.322105 
L 115.112519 341.202219 
L 143.898277 351.760202 
L 172.684034 352.859947 
L 201.469792 353.097522 
L 230.255549 353.170865 
L 259.041307 353.203001 
L 287.827064 353.214634 
L 316.612822 353.220154 
L 345.39858 353.222323 
L 374.184337 353.222914 
L 402.970095 353.223506 
L 431.755852 353.223506 
L 460.54161 353.2239 
L 489.327367 353.223703 
L 518.113125 353.2239 
L 546.898883 353.2239 
L 575.68464 353.2239 
L 604.470398 353.2239 
L 633.256155 353.2239 
L 662.041913 353.2239 
L 690.82767 353.2239 
L 719.613428 353.2239 
L 748.399186 353.2239 
L 777.184943 353.2239 
L 805.970701 353.2239 
L 834.756458 353.2239 
L 863.542216 353.2239 
L 892.327973 353.2239 
L 921.113731 353.2239 
L 949.899489 353.2239 
" style="fill:none;stroke:#91e8e1;stroke-linecap:square;"/>
   </g>
   <g id="line2d_37">
    <path clip-path="url(#p7c64a49bc9)" d="M 86.326761 42.393212 
L 115.112519 346.843141 
L 143.898277 352.635764 
L 172.684034 353.114203 
L 201.469792 353.187649 
L 230.255549 353.211061 
L 259.041307 353.218047 
L 287.827064 353.222012 
L 316.612822 353.222956 
L 345.39858 353.223145 
L 374.184337 353.2239 
L 402.970095 353.2239 
L 431.755852 353.223711 
L 460.54161 353.2239 
L 489.327367 353.2239 
L 518.113125 353.2239 
L 546.898883 353.2239 
L 575.68464 353.2239 
L 604.470398 353.2239 
L 633.256155 353.2239 
L 662.041913 353.2239 
L 690.82767 353.2239 
L 719.613428 353.2239 
L 748.399186 353.2239 
L 777.184943 353.2239 
L 805.970701 353.2239 
L 834.756458 353.2239 
L 863.542216 353.2239 
L 892.327973 353.2239 
L 921.113731 353.2239 
L 949.899489 353.2239 
" style="fill:none;stroke:#7cb5ec;stroke-linecap:square;"/>
   </g>
   <g id="line2d_38">
    <path clip-path="url(#p7c64a49bc9)" d="M 86.326761 38.730189 
L 115.112519 350.047224 
L 143.898277 352.994051 
L 172.684034 353.189102 
L 201.469792 353.201922 
L 230.255549 353.218406 
L 259.041307 353.220237 
L 287.827064 353.222069 
L 316.612822 353.2239 
L 345.39858 353.2239 
L 374.184337 353.2239 
L 402.970095 353.2239 
L 431.755852 353.2239 
L 460.54161 353.2239 
L 489.327367 353.2239 
L 518.113125 353.2239 
L 546.898883 353.2239 
L 575.68464 353.2239 
L 604.470398 353.2239 
L 633.256155 353.2239 
L 662.041913 353.2239 
L 690.82767 353.2239 
L 719.613428 353.2239 
L 748.399186 353.2239 
L 777.184943 353.2239 
L 805.970701 353.2239 
L 834.756458 353.2239 
L 863.542216 353.2239 
L 892.327973 353.2239 
L 921.113731 353.2239 
L 949.899489 353.2239 
" style="fill:none;stroke:#434348;stroke-linecap:square;"/>
   </g>
   <g id="line2d_39">
    <path clip-path="url(#p7c64a49bc9)" d="M 86.326761 40.316913 
L 115.112519 348.718648 
L 143.898277 352.810716 
L 172.684034 353.130788 
L 201.469792 353.187043 
L 230.255549 353.215171 
L 259.041307 353.22099 
L 287.827064 353.2239 
L 316.612822 353.22293 
L 345.39858 353.2239 
L 374.184337 353.2239 
L 402.970095 353.2239 
L 431.755852 353.2239 
L 460.54161 353.2239 
L 489.327367 353.2239 
L 518.113125 353.2239 
L 546.898883 353.2239 
L 575.68464 353.2239 
L 604.470398 353.2239 
L 633.256155 353.2239 
L 662.041913 353.2239 
L 690.82767 353.2239 
L 719.613428 353.2239 
L 748.399186 353.2239 
L 777.184943 353.2239 
L 805.970701 353.2239 
L 834.756458 353.2239 
L 863.542216 353.2239 
L 892.327973 353.2239 
L 921.113731 353.2239 
L 949.899489 353.2239 
" style="fill:none;stroke:#90ed7d;stroke-linecap:square;"/>
   </g>
   <g id="line2d_40">
    <path clip-path="url(#p7c64a49bc9)" d="M 86.326761 39.10527 
L 115.112519 349.720714 
L 143.898277 352.960403 
L 172.684034 353.168775 
L 201.469792 353.207914 
L 230.255549 353.217285 
L 259.041307 353.220593 
L 287.827064 353.223349 
L 316.612822 353.223349 
L 345.39858 353.2239 
L 374.184337 353.2239 
L 402.970095 353.223349 
L 431.755852 353.2239 
L 460.54161 353.2239 
L 489.327367 353.2239 
L 518.113125 353.2239 
L 546.898883 353.2239 
L 575.68464 353.2239 
L 604.470398 353.2239 
L 633.256155 353.2239 
L 662.041913 353.2239 
L 690.82767 353.2239 
L 719.613428 353.2239 
L 748.399186 353.2239 
L 777.184943 353.2239 
L 805.970701 353.2239 
L 834.756458 353.2239 
L 863.542216 353.2239 
L 892.327973 353.2239 
L 921.113731 353.2239 
L 949.899489 353.2239 
" style="fill:none;stroke:#f7a35c;stroke-linecap:square;"/>
   </g>
   <g id="line2d_41">
    <path clip-path="url(#p7c64a49bc9)" d="M 86.326761 40.013709 
L 115.112519 348.91842 
L 143.898277 352.874605 
L 172.684034 353.15429 
L 201.469792 353.204149 
L 230.255549 353.215889 
L 259.041307 353.220861 
L 287.827064 353.222381 
L 316.612822 353.223209 
L 345.39858 353.2239 
L 374.184337 353.223624 
L 402.970095 353.223762 
L 431.755852 353.2239 
L 460.54161 353.2239 
L 489.327367 353.2239 
L 518.113125 353.2239 
L 546.898883 353.2239 
L 575.68464 353.2239 
L 604.470398 353.2239 
L 633.256155 353.2239 
L 662.041913 353.2239 
L 690.82767 353.2239 
L 719.613428 353.2239 
L 748.399186 353.2239 
L 777.184943 353.2239 
L 805.970701 353.2239 
L 834.756458 353.2239 
L 863.542216 353.2239 
L 892.327973 353.2239 
L 921.113731 353.2239 
L 949.899489 353.2239 
" style="fill:none;stroke:#8085e9;stroke-linecap:square;"/>
   </g>
   <g id="line2d_42">
    <path clip-path="url(#p7c64a49bc9)" d="M 86.326761 38.597537 
L 115.112519 350.246497 
L 143.898277 352.952842 
L 172.684034 353.160371 
L 201.469792 353.206112 
L 230.255549 353.219665 
L 259.041307 353.217124 
L 287.827064 353.223053 
L 316.612822 353.2239 
L 345.39858 353.2239 
L 374.184337 353.2239 
L 402.970095 353.2239 
L 431.755852 353.2239 
L 460.54161 353.2239 
L 489.327367 353.2239 
L 518.113125 353.2239 
L 546.898883 353.2239 
L 575.68464 353.2239 
L 604.470398 353.2239 
L 633.256155 353.2239 
L 662.041913 353.2239 
L 690.82767 353.2239 
L 719.613428 353.2239 
L 748.399186 353.2239 
L 777.184943 353.2239 
L 805.970701 353.2239 
L 834.756458 353.2239 
L 863.542216 353.2239 
L 892.327973 353.2239 
L 921.113731 353.2239 
L 949.899489 353.2239 
" style="fill:none;stroke:#f15c80;stroke-linecap:square;"/>
   </g>
   <g id="line2d_43">
    <path clip-path="url(#p7c64a49bc9)" d="M 86.326761 43.01137 
L 115.112519 346.233069 
L 143.898277 352.618453 
L 172.684034 353.11335 
L 201.469792 353.189998 
L 230.255549 353.214319 
L 259.041307 353.219478 
L 287.827064 353.223531 
L 316.612822 353.223531 
L 345.39858 353.2239 
L 374.184337 353.2239 
L 402.970095 353.2239 
L 431.755852 353.2239 
L 460.54161 353.2239 
L 489.327367 353.2239 
L 518.113125 353.2239 
L 546.898883 353.2239 
L 575.68464 353.2239 
L 604.470398 353.2239 
L 633.256155 353.2239 
L 662.041913 353.2239 
L 690.82767 353.2239 
L 719.613428 353.2239 
L 748.399186 353.2239 
L 777.184943 353.2239 
L 805.970701 353.2239 
L 834.756458 353.2239 
L 863.542216 353.2239 
L 892.327973 353.2239 
L 921.113731 353.2239 
L 949.899489 353.2239 
" style="fill:none;stroke:#e4d354;stroke-linecap:square;"/>
   </g>
   <g id="line2d_44">
    <path clip-path="url(#p7c64a49bc9)" d="M 86.326761 38.614953 
L 115.112519 350.174712 
L 143.898277 352.975135 
L 172.684034 353.186076 
L 201.469792 353.212262 
L 230.255549 353.216626 
L 259.041307 353.223173 
L 287.827064 353.221718 
L 316.612822 353.222445 
L 345.39858 353.2239 
L 374.184337 353.2239 
L 402.970095 353.2239 
L 431.755852 353.2239 
L 460.54161 353.2239 
L 489.327367 353.2239 
L 518.113125 353.2239 
L 546.898883 353.2239 
L 575.68464 353.2239 
L 604.470398 353.2239 
L 633.256155 353.2239 
L 662.041913 353.2239 
L 690.82767 353.2239 
L 719.613428 353.2239 
L 748.399186 353.2239 
L 777.184943 353.2239 
L 805.970701 353.2239 
L 834.756458 353.2239 
L 863.542216 353.2239 
L 892.327973 353.2239 
L 921.113731 353.2239 
L 949.899489 353.2239 
" style="fill:none;stroke:#2b908f;stroke-linecap:square;"/>
   </g>
   <g id="line2d_45">
    <path clip-path="url(#p7c64a49bc9)" d="M 86.326761 39.214478 
L 115.112519 349.638538 
L 143.898277 352.93293 
L 172.684034 353.171301 
L 201.469792 353.206207 
L 230.255549 353.216727 
L 259.041307 353.220792 
L 287.827064 353.223183 
L 316.612822 353.223422 
L 345.39858 353.223422 
L 374.184337 353.2239 
L 402.970095 353.2239 
L 431.755852 353.2239 
L 460.54161 353.2239 
L 489.327367 353.2239 
L 518.113125 353.2239 
L 546.898883 353.2239 
L 575.68464 353.2239 
L 604.470398 353.2239 
L 633.256155 353.2239 
L 662.041913 353.2239 
L 690.82767 353.2239 
L 719.613428 353.2239 
L 748.399186 353.2239 
L 777.184943 353.2239 
L 805.970701 353.2239 
L 834.756458 353.2239 
L 863.542216 353.2239 
L 892.327973 353.2239 
L 921.113731 353.2239 
L 949.899489 353.2239 
" style="fill:none;stroke:#f45b5b;stroke-linecap:square;"/>
   </g>
   <g id="line2d_46">
    <path clip-path="url(#p7c64a49bc9)" d="M 86.326761 40.755994 
L 115.112519 348.352697 
L 143.898277 352.752698 
L 172.684034 353.119893 
L 201.469792 353.190722 
L 230.255549 353.212344 
L 259.041307 353.217935 
L 287.827064 353.223154 
L 316.612822 353.222782 
L 345.39858 353.223154 
L 374.184337 353.2239 
L 402.970095 353.223527 
L 431.755852 353.2239 
L 460.54161 353.2239 
L 489.327367 353.2239 
L 518.113125 353.2239 
L 546.898883 353.2239 
L 575.68464 353.2239 
L 604.470398 353.2239 
L 633.256155 353.2239 
L 662.041913 353.2239 
L 690.82767 353.2239 
L 719.613428 353.2239 
L 748.399186 353.2239 
L 777.184943 353.2239 
L 805.970701 353.2239 
L 834.756458 353.2239 
L 863.542216 353.2239 
L 892.327973 353.2239 
L 921.113731 353.2239 
L 949.899489 353.2239 
" style="fill:none;stroke:#91e8e1;stroke-linecap:square;"/>
   </g>
   <g id="line2d_47">
    <path clip-path="url(#p7c64a49bc9)" d="M 86.326761 40.8177 
L 115.112519 348.332382 
L 143.898277 352.727977 
L 172.684034 353.114967 
L 201.469792 353.186608 
L 230.255549 353.209179 
L 259.041307 353.216703 
L 287.827064 353.221283 
L 316.612822 353.221937 
L 345.39858 353.222919 
L 374.184337 353.2239 
L 402.970095 353.2239 
L 431.755852 353.223246 
L 460.54161 353.2239 
L 489.327367 353.2239 
L 518.113125 353.2239 
L 546.898883 353.2239 
L 575.68464 353.2239 
L 604.470398 353.2239 
L 633.256155 353.2239 
L 662.041913 353.2239 
L 690.82767 353.2239 
L 719.613428 353.2239 
L 748.399186 353.2239 
L 777.184943 353.2239 
L 805.970701 353.2239 
L 834.756458 353.2239 
L 863.542216 353.2239 
L 892.327973 353.2239 
L 921.113731 353.2239 
L 949.899489 353.2239 
" style="fill:none;stroke:#7cb5ec;stroke-linecap:square;"/>
   </g>
   <g id="line2d_48">
    <path clip-path="url(#p7c64a49bc9)" d="M 86.326761 41.202789 
L 115.112519 347.964607 
L 143.898277 352.711106 
L 172.684034 353.107145 
L 201.469792 353.189736 
L 230.255549 353.212954 
L 259.041307 353.217598 
L 287.827064 353.21992 
L 316.612822 353.223237 
L 345.39858 353.22191 
L 374.184337 353.2239 
L 402.970095 353.2239 
L 431.755852 353.2239 
L 460.54161 353.2239 
L 489.327367 353.2239 
L 518.113125 353.2239 
L 546.898883 353.2239 
L 575.68464 353.2239 
L 604.470398 353.2239 
L 633.256155 353.2239 
L 662.041913 353.2239 
L 690.82767 353.2239 
L 719.613428 353.2239 
L 748.399186 353.2239 
L 777.184943 353.2239 
L 805.970701 353.2239 
L 834.756458 353.2239 
L 863.542216 353.2239 
L 892.327973 353.2239 
L 921.113731 353.2239 
L 949.899489 353.2239 
" style="fill:none;stroke:#434348;stroke-linecap:square;"/>
   </g>
   <g id="line2d_49">
    <path clip-path="url(#p7c64a49bc9)" d="M 86.326761 38.790337 
L 115.112519 350.084378 
L 143.898277 352.917554 
L 172.684034 353.162422 
L 201.469792 353.210354 
L 230.255549 353.217648 
L 259.041307 353.21869 
L 287.827064 353.222858 
L 316.612822 353.2239 
L 345.39858 353.2239 
L 374.184337 353.2239 
L 402.970095 353.222858 
L 431.755852 353.2239 
L 460.54161 353.2239 
L 489.327367 353.2239 
L 518.113125 353.2239 
L 546.898883 353.2239 
L 575.68464 353.2239 
L 604.470398 353.2239 
L 633.256155 353.2239 
L 662.041913 353.2239 
L 690.82767 353.2239 
L 719.613428 353.2239 
L 748.399186 353.2239 
L 777.184943 353.2239 
L 805.970701 353.2239 
L 834.756458 353.2239 
L 863.542216 353.2239 
L 892.327973 353.2239 
L 921.113731 353.2239 
L 949.899489 353.2239 
" style="fill:none;stroke:#90ed7d;stroke-linecap:square;"/>
   </g>
   <g id="line2d_50">
    <path clip-path="url(#p7c64a49bc9)" d="M 86.326761 40.803892 
L 115.112519 348.255066 
L 143.898277 352.776238 
L 172.684034 353.135517 
L 201.469792 353.193721 
L 230.255549 353.214559 
L 259.041307 353.2239 
L 287.827064 353.221744 
L 316.612822 353.223181 
L 345.39858 353.223181 
L 374.184337 353.2239 
L 402.970095 353.2239 
L 431.755852 353.2239 
L 460.54161 353.2239 
L 489.327367 353.2239 
L 518.113125 353.2239 
L 546.898883 353.2239 
L 575.68464 353.2239 
L 604.470398 353.2239 
L 633.256155 353.2239 
L 662.041913 353.2239 
L 690.82767 353.2239 
L 719.613428 353.2239 
L 748.399186 353.2239 
L 777.184943 353.2239 
L 805.970701 353.2239 
L 834.756458 353.2239 
L 863.542216 353.2239 
L 892.327973 353.2239 
L 921.113731 353.2239 
L 949.899489 353.2239 
" style="fill:none;stroke:#f7a35c;stroke-linecap:square;"/>
   </g>
   <g id="line2d_51">
    <path clip-path="url(#p7c64a49bc9)" d="M 86.326761 42.488362 
L 115.112519 346.844145 
L 143.898277 352.589655 
L 172.684034 353.0842 
L 201.469792 353.181202 
L 230.255549 353.206489 
L 259.041307 353.216853 
L 287.827064 353.21934 
L 316.612822 353.220998 
L 345.39858 353.222656 
L 374.184337 353.223071 
L 402.970095 353.222242 
L 431.755852 353.223485 
L 460.54161 353.2239 
L 489.327367 353.2239 
L 518.113125 353.2239 
L 546.898883 353.2239 
L 575.68464 353.2239 
L 604.470398 353.2239 
L 633.256155 353.2239 
L 662.041913 353.2239 
L 690.82767 353.2239 
L 719.613428 353.2239 
L 748.399186 353.2239 
L 777.184943 353.2239 
L 805.970701 353.2239 
L 834.756458 353.2239 
L 863.542216 353.2239 
L 892.327973 353.2239 
L 921.113731 353.2239 
L 949.899489 353.2239 
" style="fill:none;stroke:#8085e9;stroke-linecap:square;"/>
   </g>
   <g id="line2d_52">
    <path clip-path="url(#p7c64a49bc9)" d="M 86.326761 42.58891 
L 115.112519 346.826805 
L 143.898277 352.543648 
L 172.684034 353.055949 
L 201.469792 353.169974 
L 230.255549 353.203759 
L 259.041307 353.216428 
L 287.827064 353.221301 
L 316.612822 353.221626 
L 345.39858 353.223575 
L 374.184337 353.2239 
L 402.970095 353.22325 
L 431.755852 353.2239 
L 460.54161 353.2239 
L 489.327367 353.2239 
L 518.113125 353.2239 
L 546.898883 353.2239 
L 575.68464 353.2239 
L 604.470398 353.223575 
L 633.256155 353.2239 
L 662.041913 353.2239 
L 690.82767 353.2239 
L 719.613428 353.2239 
L 748.399186 353.2239 
L 777.184943 353.2239 
L 805.970701 353.2239 
L 834.756458 353.2239 
L 863.542216 353.2239 
L 892.327973 353.2239 
L 921.113731 353.2239 
L 949.899489 353.2239 
" style="fill:none;stroke:#f15c80;stroke-linecap:square;"/>
   </g>
   <g id="line2d_53">
    <path clip-path="url(#p7c64a49bc9)" d="M 86.326761 41.010915 
L 115.112519 348.169835 
L 143.898277 352.705303 
L 172.684034 353.103102 
L 201.469792 353.188031 
L 230.255549 353.211172 
L 259.041307 353.216958 
L 287.827064 353.220197 
L 316.612822 353.222743 
L 345.39858 353.223437 
L 374.184337 353.223437 
L 402.970095 353.2239 
L 431.755852 353.2239 
L 460.54161 353.2239 
L 489.327367 353.2239 
L 518.113125 353.223669 
L 546.898883 353.2239 
L 575.68464 353.2239 
L 604.470398 353.2239 
L 633.256155 353.2239 
L 662.041913 353.2239 
L 690.82767 353.2239 
L 719.613428 353.2239 
L 748.399186 353.2239 
L 777.184943 353.2239 
L 805.970701 353.2239 
L 834.756458 353.2239 
L 863.542216 353.2239 
L 892.327973 353.2239 
L 921.113731 353.2239 
L 949.899489 353.2239 
" style="fill:none;stroke:#e4d354;stroke-linecap:square;"/>
   </g>
   <g id="line2d_54">
    <path clip-path="url(#p7c64a49bc9)" d="M 86.326761 39.845328 
L 115.112519 349.157833 
L 143.898277 352.827433 
L 172.684034 353.145578 
L 201.469792 353.193543 
L 230.255549 353.211757 
L 259.041307 353.21965 
L 287.827064 353.223293 
L 316.612822 353.223293 
L 345.39858 353.223293 
L 374.184337 353.2239 
L 402.970095 353.2239 
L 431.755852 353.2239 
L 460.54161 353.2239 
L 489.327367 353.2239 
L 518.113125 353.2239 
L 546.898883 353.2239 
L 575.68464 353.2239 
L 604.470398 353.2239 
L 633.256155 353.2239 
L 662.041913 353.2239 
L 690.82767 353.2239 
L 719.613428 353.2239 
L 748.399186 353.2239 
L 777.184943 353.2239 
L 805.970701 353.2239 
L 834.756458 353.2239 
L 863.542216 353.2239 
L 892.327973 353.2239 
L 921.113731 353.2239 
L 949.899489 353.2239 
" style="fill:none;stroke:#2b908f;stroke-linecap:square;"/>
   </g>
   <g id="line2d_55">
    <path clip-path="url(#p7c64a49bc9)" d="M 86.326761 41.490611 
L 115.112519 347.733928 
L 143.898277 352.679321 
L 172.684034 353.098575 
L 201.469792 353.183327 
L 230.255549 353.20181 
L 259.041307 353.216236 
L 287.827064 353.222097 
L 316.612822 353.222097 
L 345.39858 353.2239 
L 374.184337 353.222998 
L 402.970095 353.2239 
L 431.755852 353.2239 
L 460.54161 353.2239 
L 489.327367 353.2239 
L 518.113125 353.2239 
L 546.898883 353.2239 
L 575.68464 353.2239 
L 604.470398 353.2239 
L 633.256155 353.2239 
L 662.041913 353.2239 
L 690.82767 353.2239 
L 719.613428 353.2239 
L 748.399186 353.2239 
L 777.184943 353.2239 
L 805.970701 353.2239 
L 834.756458 353.2239 
L 863.542216 353.2239 
L 892.327973 353.2239 
L 921.113731 353.2239 
L 949.899489 353.2239 
" style="fill:none;stroke:#f45b5b;stroke-linecap:square;"/>
   </g>
   <g id="line2d_56">
    <path clip-path="url(#p7c64a49bc9)" d="M 86.326761 39.618405 
L 115.112519 349.354301 
L 143.898277 352.858904 
L 172.684034 353.136043 
L 201.469792 353.20129 
L 230.255549 353.213564 
L 259.041307 353.221962 
L 287.827064 353.221962 
L 316.612822 353.223254 
L 345.39858 353.223254 
L 374.184337 353.222608 
L 402.970095 353.2239 
L 431.755852 353.2239 
L 460.54161 353.2239 
L 489.327367 353.2239 
L 518.113125 353.2239 
L 546.898883 353.2239 
L 575.68464 353.2239 
L 604.470398 353.223254 
L 633.256155 353.2239 
L 662.041913 353.2239 
L 690.82767 353.2239 
L 719.613428 353.2239 
L 748.399186 353.2239 
L 777.184943 353.2239 
L 805.970701 353.2239 
L 834.756458 353.2239 
L 863.542216 353.2239 
L 892.327973 353.2239 
L 921.113731 353.2239 
L 949.899489 353.2239 
" style="fill:none;stroke:#91e8e1;stroke-linecap:square;"/>
   </g>
   <g id="line2d_57">
    <path clip-path="url(#p7c64a49bc9)" d="M 86.326761 38.812568 
L 115.112519 350.020993 
L 143.898277 352.949577 
L 172.684034 353.178356 
L 201.469792 353.200598 
L 230.255549 353.219663 
L 259.041307 353.219663 
L 287.827064 353.221782 
L 316.612822 353.2239 
L 345.39858 353.2239 
L 374.184337 353.2239 
L 402.970095 353.2239 
L 431.755852 353.2239 
L 460.54161 353.2239 
L 489.327367 353.2239 
L 518.113125 353.2239 
L 546.898883 353.2239 
L 575.68464 353.2239 
L 604.470398 353.2239 
L 633.256155 353.2239 
L 662.041913 353.2239 
L 690.82767 353.2239 
L 719.613428 353.2239 
L 748.399186 353.2239 
L 777.184943 353.2239 
L 805.970701 353.2239 
L 834.756458 353.2239 
L 863.542216 353.2239 
L 892.327973 353.2239 
L 921.113731 353.2239 
L 949.899489 353.2239 
" style="fill:none;stroke:#7cb5ec;stroke-linecap:square;"/>
   </g>
   <g id="line2d_58">
    <path clip-path="url(#p7c64a49bc9)" d="M 86.326761 40.795773 
L 115.112519 348.368203 
L 143.898277 352.716346 
L 172.684034 353.11235 
L 201.469792 353.184857 
L 230.255549 353.206703 
L 259.041307 353.220646 
L 287.827064 353.222041 
L 316.612822 353.221576 
L 345.39858 353.2239 
L 374.184337 353.2239 
L 402.970095 353.223435 
L 431.755852 353.2239 
L 460.54161 353.223435 
L 489.327367 353.2239 
L 518.113125 353.223435 
L 546.898883 353.2239 
L 575.68464 353.2239 
L 604.470398 353.2239 
L 633.256155 353.2239 
L 662.041913 353.2239 
L 690.82767 353.2239 
L 719.613428 353.2239 
L 748.399186 353.2239 
L 777.184943 353.2239 
L 805.970701 353.2239 
L 834.756458 353.2239 
L 863.542216 353.2239 
L 892.327973 353.2239 
L 921.113731 353.2239 
L 949.899489 353.2239 
" style="fill:none;stroke:#434348;stroke-linecap:square;"/>
   </g>
   <g id="line2d_59">
    <path clip-path="url(#p7c64a49bc9)" d="M 86.326761 42.054224 
L 115.112519 347.300994 
L 143.898277 352.5899 
L 172.684034 353.080164 
L 201.469792 353.167074 
L 230.255549 353.201244 
L 259.041307 353.213872 
L 287.827064 353.219443 
L 316.612822 353.222043 
L 345.39858 353.223157 
L 374.184337 353.223157 
L 402.970095 353.2239 
L 431.755852 353.2239 
L 460.54161 353.2239 
L 489.327367 353.2239 
L 518.113125 353.223529 
L 546.898883 353.2239 
L 575.68464 353.2239 
L 604.470398 353.2239 
L 633.256155 353.2239 
L 662.041913 353.2239 
L 690.82767 353.2239 
L 719.613428 353.2239 
L 748.399186 353.2239 
L 777.184943 353.2239 
L 805.970701 353.2239 
L 834.756458 353.2239 
L 863.542216 353.2239 
L 892.327973 353.2239 
L 921.113731 353.2239 
L 949.899489 353.2239 
" style="fill:none;stroke:#90ed7d;stroke-linecap:square;"/>
   </g>
   <g id="line2d_60">
    <path clip-path="url(#p7c64a49bc9)" d="M 86.326761 43.142056 
L 115.112519 346.396609 
L 143.898277 352.456452 
L 172.684034 353.036871 
L 201.469792 353.16204 
L 230.255549 353.202636 
L 259.041307 353.211818 
L 287.827064 353.220034 
L 316.612822 353.220517 
L 345.39858 353.22245 
L 374.184337 353.2239 
L 402.970095 353.223417 
L 431.755852 353.2239 
L 460.54161 353.2239 
L 489.327367 353.2239 
L 518.113125 353.2239 
L 546.898883 353.2239 
L 575.68464 353.2239 
L 604.470398 353.2239 
L 633.256155 353.2239 
L 662.041913 353.2239 
L 690.82767 353.2239 
L 719.613428 353.2239 
L 748.399186 353.2239 
L 777.184943 353.2239 
L 805.970701 353.2239 
L 834.756458 353.2239 
L 863.542216 353.2239 
L 892.327973 353.2239 
L 921.113731 353.2239 
L 949.899489 353.2239 
" style="fill:none;stroke:#f7a35c;stroke-linecap:square;"/>
   </g>
   <g id="line2d_61">
    <path clip-path="url(#p7c64a49bc9)" d="M 86.326761 38.616822 
L 115.112519 350.05041 
L 143.898277 353.064401 
L 172.684034 353.205464 
L 201.469792 353.218313 
L 230.255549 353.222224 
L 259.041307 353.222503 
L 287.827064 353.223621 
L 316.612822 353.223341 
L 345.39858 353.2239 
L 374.184337 353.2239 
L 402.970095 353.2239 
L 431.755852 353.2239 
L 460.54161 353.2239 
L 489.327367 353.2239 
L 518.113125 353.2239 
L 546.898883 353.2239 
L 575.68464 353.2239 
L 604.470398 353.2239 
L 633.256155 353.2239 
L 662.041913 353.2239 
L 690.82767 353.2239 
L 719.613428 353.2239 
L 748.399186 353.2239 
L 777.184943 353.2239 
L 805.970701 353.2239 
L 834.756458 353.2239 
L 863.542216 353.2239 
L 892.327973 353.2239 
L 921.113731 353.2239 
L 949.899489 353.2239 
" style="fill:none;stroke:#8085e9;stroke-linecap:square;"/>
   </g>
   <g id="line2d_62">
    <path clip-path="url(#p7c64a49bc9)" d="M 86.326761 40.750182 
L 115.112519 348.295834 
L 143.898277 352.786713 
L 172.684034 353.137147 
L 201.469792 353.198485 
L 230.255549 353.213636 
L 259.041307 353.220479 
L 287.827064 353.221456 
L 316.612822 353.223411 
L 345.39858 353.223656 
L 374.184337 353.2239 
L 402.970095 353.2239 
L 431.755852 353.2239 
L 460.54161 353.2239 
L 489.327367 353.2239 
L 518.113125 353.2239 
L 546.898883 353.2239 
L 575.68464 353.2239 
L 604.470398 353.2239 
L 633.256155 353.2239 
L 662.041913 353.2239 
L 690.82767 353.2239 
L 719.613428 353.2239 
L 748.399186 353.2239 
L 777.184943 353.2239 
L 805.970701 353.2239 
L 834.756458 353.2239 
L 863.542216 353.2239 
L 892.327973 353.2239 
L 921.113731 353.2239 
L 949.899489 353.2239 
" style="fill:none;stroke:#f15c80;stroke-linecap:square;"/>
   </g>
   <g id="line2d_63">
    <path clip-path="url(#p7c64a49bc9)" d="M 86.326761 39.677959 
L 115.112519 349.25095 
L 143.898277 352.87455 
L 172.684034 353.156003 
L 201.469792 353.203417 
L 230.255549 353.21859 
L 259.041307 353.220486 
L 287.827064 353.222003 
L 316.612822 353.223141 
L 345.39858 353.2239 
L 374.184337 353.2239 
L 402.970095 353.2239 
L 431.755852 353.2239 
L 460.54161 353.2239 
L 489.327367 353.2239 
L 518.113125 353.2239 
L 546.898883 353.2239 
L 575.68464 353.2239 
L 604.470398 353.2239 
L 633.256155 353.2239 
L 662.041913 353.2239 
L 690.82767 353.2239 
L 719.613428 353.2239 
L 748.399186 353.2239 
L 777.184943 353.2239 
L 805.970701 353.2239 
L 834.756458 353.2239 
L 863.542216 353.2239 
L 892.327973 353.2239 
L 921.113731 353.2239 
L 949.899489 353.2239 
" style="fill:none;stroke:#e4d354;stroke-linecap:square;"/>
   </g>
   <g id="line2d_64">
    <path clip-path="url(#p7c64a49bc9)" d="M 86.326761 41.738682 
L 115.112519 347.404845 
L 143.898277 352.721499 
L 172.684034 353.113378 
L 201.469792 353.19003 
L 230.255549 353.212313 
L 259.041307 353.220335 
L 287.827064 353.222712 
L 316.612822 353.223306 
L 345.39858 353.2239 
L 374.184337 353.2239 
L 402.970095 353.2239 
L 431.755852 353.2239 
L 460.54161 353.2239 
L 489.327367 353.2239 
L 518.113125 353.2239 
L 546.898883 353.2239 
L 575.68464 353.2239 
L 604.470398 353.2239 
L 633.256155 353.2239 
L 662.041913 353.2239 
L 690.82767 353.2239 
L 719.613428 353.2239 
L 748.399186 353.2239 
L 777.184943 353.2239 
L 805.970701 353.2239 
L 834.756458 353.2239 
L 863.542216 353.2239 
L 892.327973 353.2239 
L 921.113731 353.2239 
L 949.899489 353.2239 
" style="fill:none;stroke:#2b908f;stroke-linecap:square;"/>
   </g>
   <g id="line2d_65">
    <path clip-path="url(#p7c64a49bc9)" d="M 86.326761 38.834107 
L 115.112519 349.997825 
L 143.898277 352.961027 
L 172.684034 353.176818 
L 201.469792 353.200359 
L 230.255549 353.21311 
L 259.041307 353.218996 
L 287.827064 353.222919 
L 316.612822 353.222919 
L 345.39858 353.2239 
L 374.184337 353.2239 
L 402.970095 353.222919 
L 431.755852 353.2239 
L 460.54161 353.2239 
L 489.327367 353.2239 
L 518.113125 353.2239 
L 546.898883 353.2239 
L 575.68464 353.2239 
L 604.470398 353.2239 
L 633.256155 353.2239 
L 662.041913 353.2239 
L 690.82767 353.2239 
L 719.613428 353.2239 
L 748.399186 353.2239 
L 777.184943 353.2239 
L 805.970701 353.2239 
L 834.756458 353.2239 
L 863.542216 353.2239 
L 892.327973 353.2239 
L 921.113731 353.2239 
L 949.899489 353.2239 
" style="fill:none;stroke:#f45b5b;stroke-linecap:square;"/>
   </g>
   <g id="line2d_66">
    <path clip-path="url(#p7c64a49bc9)" d="M 86.326761 39.820847 
L 115.112519 349.103886 
L 143.898277 352.87969 
L 172.684034 353.157335 
L 201.469792 353.199376 
L 230.255549 353.217769 
L 259.041307 353.223024 
L 287.827064 353.222148 
L 316.612822 353.2239 
L 345.39858 353.2239 
L 374.184337 353.223024 
L 402.970095 353.2239 
L 431.755852 353.2239 
L 460.54161 353.2239 
L 489.327367 353.2239 
L 518.113125 353.2239 
L 546.898883 353.2239 
L 575.68464 353.2239 
L 604.470398 353.2239 
L 633.256155 353.2239 
L 662.041913 353.2239 
L 690.82767 353.2239 
L 719.613428 353.2239 
L 748.399186 353.2239 
L 777.184943 353.2239 
L 805.970701 353.2239 
L 834.756458 353.2239 
L 863.542216 353.2239 
L 892.327973 353.2239 
L 921.113731 353.2239 
L 949.899489 353.2239 
" style="fill:none;stroke:#91e8e1;stroke-linecap:square;"/>
   </g>
   <g id="line2d_67">
    <path clip-path="url(#p7c64a49bc9)" d="M 86.326761 40.091509 
L 115.112519 348.910204 
L 143.898277 352.829113 
L 172.684034 353.138613 
L 201.469792 353.196812 
L 230.255549 353.215049 
L 259.041307 353.221218 
L 287.827064 353.222291 
L 316.612822 353.223095 
L 345.39858 353.223632 
L 374.184337 353.2239 
L 402.970095 353.2239 
L 431.755852 353.223632 
L 460.54161 353.2239 
L 489.327367 353.2239 
L 518.113125 353.223632 
L 546.898883 353.2239 
L 575.68464 353.2239 
L 604.470398 353.2239 
L 633.256155 353.2239 
L 662.041913 353.2239 
L 690.82767 353.2239 
L 719.613428 353.2239 
L 748.399186 353.2239 
L 777.184943 353.2239 
L 805.970701 353.2239 
L 834.756458 353.2239 
L 863.542216 353.2239 
L 892.327973 353.2239 
L 921.113731 353.2239 
L 949.899489 353.2239 
" style="fill:none;stroke:#7cb5ec;stroke-linecap:square;"/>
   </g>
   <g id="line2d_68">
    <path clip-path="url(#p7c64a49bc9)" d="M 86.326761 39.250221 
L 115.112519 349.625671 
L 143.898277 352.911799 
L 172.684034 353.166634 
L 201.469792 353.208152 
L 230.255549 353.219605 
L 259.041307 353.220082 
L 287.827064 353.222468 
L 316.612822 353.222946 
L 345.39858 353.2239 
L 374.184337 353.223423 
L 402.970095 353.2239 
L 431.755852 353.2239 
L 460.54161 353.2239 
L 489.327367 353.2239 
L 518.113125 353.2239 
L 546.898883 353.2239 
L 575.68464 353.2239 
L 604.470398 353.2239 
L 633.256155 353.2239 
L 662.041913 353.2239 
L 690.82767 353.2239 
L 719.613428 353.2239 
L 748.399186 353.2239 
L 777.184943 353.2239 
L 805.970701 353.2239 
L 834.756458 353.2239 
L 863.542216 353.2239 
L 892.327973 353.2239 
L 921.113731 353.2239 
L 949.899489 353.2239 
" style="fill:none;stroke:#434348;stroke-linecap:square;"/>
   </g>
   <g id="line2d_69">
    <path clip-path="url(#p7c64a49bc9)" d="M 86.326761 42.030215 
L 115.112519 347.337876 
L 143.898277 352.567606 
L 172.684034 353.074906 
L 201.469792 353.176985 
L 230.255549 353.206887 
L 259.041307 353.215136 
L 287.827064 353.218745 
L 316.612822 353.221322 
L 345.39858 353.222353 
L 374.184337 353.223384 
L 402.970095 353.2239 
L 431.755852 353.2239 
L 460.54161 353.2239 
L 489.327367 353.223384 
L 518.113125 353.2239 
L 546.898883 353.2239 
L 575.68464 353.2239 
L 604.470398 353.2239 
L 633.256155 353.2239 
L 662.041913 353.2239 
L 690.82767 353.2239 
L 719.613428 353.2239 
L 748.399186 353.2239 
L 777.184943 353.2239 
L 805.970701 353.2239 
L 834.756458 353.2239 
L 863.542216 353.2239 
L 892.327973 353.2239 
L 921.113731 353.2239 
L 949.899489 353.2239 
" style="fill:none;stroke:#90ed7d;stroke-linecap:square;"/>
   </g>
   <g id="line2d_70">
    <path clip-path="url(#p7c64a49bc9)" d="M 86.326761 37.887054 
L 115.112519 350.842741 
L 143.898277 353.043053 
L 172.684034 353.175142 
L 201.469792 353.208829 
L 230.255549 353.22124 
L 259.041307 353.22124 
L 287.827064 353.2239 
L 316.612822 353.2239 
L 345.39858 353.2239 
L 374.184337 353.2239 
L 402.970095 353.2239 
L 431.755852 353.2239 
L 460.54161 353.2239 
L 489.327367 353.2239 
L 518.113125 353.2239 
L 546.898883 353.2239 
L 575.68464 353.2239 
L 604.470398 353.2239 
L 633.256155 353.2239 
L 662.041913 353.2239 
L 690.82767 353.2239 
L 719.613428 353.2239 
L 748.399186 353.2239 
L 777.184943 353.2239 
L 805.970701 353.2239 
L 834.756458 353.2239 
L 863.542216 353.2239 
L 892.327973 353.2239 
L 921.113731 353.2239 
L 949.899489 353.2239 
" style="fill:none;stroke:#f7a35c;stroke-linecap:square;"/>
   </g>
   <g id="line2d_71">
    <path clip-path="url(#p7c64a49bc9)" d="M 86.326761 38.81081 
L 115.112519 350.000881 
L 143.898277 352.959279 
L 172.684034 353.178929 
L 201.469792 353.208662 
L 230.255549 353.219812 
L 259.041307 353.222785 
L 287.827064 353.223157 
L 316.612822 353.223157 
L 345.39858 353.2239 
L 374.184337 353.223528 
L 402.970095 353.2239 
L 431.755852 353.2239 
L 460.54161 353.2239 
L 489.327367 353.2239 
L 518.113125 353.2239 
L 546.898883 353.2239 
L 575.68464 353.2239 
L 604.470398 353.2239 
L 633.256155 353.2239 
L 662.041913 353.2239 
L 690.82767 353.2239 
L 719.613428 353.2239 
L 748.399186 353.2239 
L 777.184943 353.2239 
L 805.970701 353.2239 
L 834.756458 353.2239 
L 863.542216 353.2239 
L 892.327973 353.2239 
L 921.113731 353.2239 
L 949.899489 353.2239 
" style="fill:none;stroke:#8085e9;stroke-linecap:square;"/>
   </g>
   <g id="line2d_72">
    <path clip-path="url(#p7c64a49bc9)" d="M 86.326761 39.097328 
L 115.112519 349.77409 
L 143.898277 352.935479 
L 172.684034 353.150472 
L 201.469792 353.207362 
L 230.255549 353.217285 
L 259.041307 353.220592 
L 287.827064 353.221915 
L 316.612822 353.222577 
L 345.39858 353.2239 
L 374.184337 353.2239 
L 402.970095 353.2239 
L 431.755852 353.2239 
L 460.54161 353.2239 
L 489.327367 353.2239 
L 518.113125 353.2239 
L 546.898883 353.2239 
L 575.68464 353.2239 
L 604.470398 353.2239 
L 633.256155 353.2239 
L 662.041913 353.2239 
L 690.82767 353.2239 
L 719.613428 353.2239 
L 748.399186 353.2239 
L 777.184943 353.2239 
L 805.970701 353.2239 
L 834.756458 353.2239 
L 863.542216 353.2239 
L 892.327973 353.2239 
L 921.113731 353.2239 
L 949.899489 353.2239 
" style="fill:none;stroke:#f15c80;stroke-linecap:square;"/>
   </g>
   <g id="line2d_73">
    <path clip-path="url(#p7c64a49bc9)" d="M 86.326761 39.168272 
L 115.112519 349.659066 
L 143.898277 352.954777 
L 172.684034 353.166802 
L 201.469792 353.208674 
L 230.255549 353.218951 
L 259.041307 353.2239 
L 287.827064 353.223519 
L 316.612822 353.223139 
L 345.39858 353.2239 
L 374.184337 353.2239 
L 402.970095 353.2239 
L 431.755852 353.2239 
L 460.54161 353.2239 
L 489.327367 353.2239 
L 518.113125 353.2239 
L 546.898883 353.2239 
L 575.68464 353.2239 
L 604.470398 353.2239 
L 633.256155 353.2239 
L 662.041913 353.2239 
L 690.82767 353.2239 
L 719.613428 353.2239 
L 748.399186 353.2239 
L 777.184943 353.2239 
L 805.970701 353.2239 
L 834.756458 353.2239 
L 863.542216 353.2239 
L 892.327973 353.2239 
L 921.113731 353.2239 
L 949.899489 353.2239 
" style="fill:none;stroke:#e4d354;stroke-linecap:square;"/>
   </g>
   <g id="line2d_74">
    <path clip-path="url(#p7c64a49bc9)" d="M 86.326761 41.162398 
L 115.112519 347.971774 
L 143.898277 352.716909 
L 172.684034 353.114034 
L 201.469792 353.201927 
L 230.255549 353.215325 
L 259.041307 353.220684 
L 287.827064 353.220684 
L 316.612822 353.223364 
L 345.39858 353.2239 
L 374.184337 353.2239 
L 402.970095 353.2239 
L 431.755852 353.2239 
L 460.54161 353.2239 
L 489.327367 353.2239 
L 518.113125 353.2239 
L 546.898883 353.2239 
L 575.68464 353.2239 
L 604.470398 353.2239 
L 633.256155 353.2239 
L 662.041913 353.2239 
L 690.82767 353.2239 
L 719.613428 353.2239 
L 748.399186 353.2239 
L 777.184943 353.2239 
L 805.970701 353.2239 
L 834.756458 353.2239 
L 863.542216 353.2239 
L 892.327973 353.2239 
L 921.113731 353.2239 
L 949.899489 353.2239 
" style="fill:none;stroke:#2b908f;stroke-linecap:square;"/>
   </g>
   <g id="line2d_75">
    <path clip-path="url(#p7c64a49bc9)" d="M 86.326761 42.617347 
L 115.112519 346.813729 
L 143.898277 352.529215 
L 172.684034 353.055757 
L 201.469792 353.173227 
L 230.255549 353.204552 
L 259.041307 353.212844 
L 287.827064 353.220215 
L 316.612822 353.222979 
L 345.39858 353.223439 
L 374.184337 353.223439 
L 402.970095 353.223439 
L 431.755852 353.223439 
L 460.54161 353.222979 
L 489.327367 353.2239 
L 518.113125 353.2239 
L 546.898883 353.2239 
L 575.68464 353.2239 
L 604.470398 353.2239 
L 633.256155 353.2239 
L 662.041913 353.2239 
L 690.82767 353.2239 
L 719.613428 353.2239 
L 748.399186 353.2239 
L 777.184943 353.2239 
L 805.970701 353.2239 
L 834.756458 353.2239 
L 863.542216 353.2239 
L 892.327973 353.2239 
L 921.113731 353.2239 
L 949.899489 353.2239 
" style="fill:none;stroke:#f45b5b;stroke-linecap:square;"/>
   </g>
   <g id="line2d_76">
    <path clip-path="url(#p7c64a49bc9)" d="M 86.326761 44.16525 
L 115.112519 345.468929 
L 143.898277 352.369372 
L 172.684034 353.037865 
L 201.469792 353.153508 
L 230.255549 353.199903 
L 259.041307 353.214073 
L 287.827064 353.220243 
L 316.612822 353.220015 
L 345.39858 353.222986 
L 374.184337 353.222757 
L 402.970095 353.2239 
L 431.755852 353.2239 
L 460.54161 353.2239 
L 489.327367 353.2239 
L 518.113125 353.2239 
L 546.898883 353.2239 
L 575.68464 353.2239 
L 604.470398 353.2239 
L 633.256155 353.2239 
L 662.041913 353.2239 
L 690.82767 353.2239 
L 719.613428 353.2239 
L 748.399186 353.2239 
L 777.184943 353.2239 
L 805.970701 353.2239 
L 834.756458 353.2239 
L 863.542216 353.2239 
L 892.327973 353.2239 
L 921.113731 353.2239 
L 949.899489 353.2239 
" style="fill:none;stroke:#91e8e1;stroke-linecap:square;"/>
   </g>
   <g id="line2d_77">
    <path clip-path="url(#p7c64a49bc9)" d="M 86.326761 42.573524 
L 115.112519 346.826047 
L 143.898277 352.555765 
L 172.684034 353.067436 
L 201.469792 353.170669 
L 230.255549 353.202061 
L 259.041307 353.213647 
L 287.827064 353.219496 
L 316.612822 353.221461 
L 345.39858 353.222342 
L 374.184337 353.223335 
L 402.970095 353.223516 
L 431.755852 353.223764 
L 460.54161 353.223742 
L 489.327367 353.223855 
L 518.113125 353.223855 
L 546.898883 353.223877 
L 575.68464 353.223877 
L 604.470398 353.223877 
L 633.256155 353.2239 
L 662.041913 353.2239 
L 690.82767 353.223877 
L 719.613428 353.2239 
L 748.399186 353.2239 
L 777.184943 353.223877 
L 805.970701 353.2239 
L 834.756458 353.2239 
L 863.542216 353.2239 
L 892.327973 353.2239 
L 921.113731 353.2239 
L 949.899489 353.2239 
" style="fill:none;stroke:#7cb5ec;stroke-linecap:square;"/>
   </g>
   <g id="line2d_78">
    <path clip-path="url(#p7c64a49bc9)" d="M 43.148125 353.2239 
L 993.078125 353.2239 
" style="fill:none;stroke:#dedede;stroke-linecap:square;stroke-width:2;"/>
   </g>
   <g id="text_16">
    <!-- Fastp: Duplication Rate -->
    <defs>
     <path d="M 9.8125 72.90625 
L 51.703125 72.90625 
L 51.703125 64.59375 
L 19.671875 64.59375 
L 19.671875 43.109375 
L 48.578125 43.109375 
L 48.578125 34.8125 
L 19.671875 34.8125 
L 19.671875 0 
L 9.8125 0 
z
" id="DejaVuSans-70"/>
     <path d="M 44.28125 53.078125 
L 44.28125 44.578125 
Q 40.484375 46.53125 36.375 47.5 
Q 32.28125 48.484375 27.875 48.484375 
Q 21.1875 48.484375 17.84375 46.4375 
Q 14.5 44.390625 14.5 40.28125 
Q 14.5 37.15625 16.890625 35.375 
Q 19.28125 33.59375 26.515625 31.984375 
L 29.59375 31.296875 
Q 39.15625 29.25 43.1875 25.515625 
Q 47.21875 21.78125 47.21875 15.09375 
Q 47.21875 7.46875 41.1875 3.015625 
Q 35.15625 -1.421875 24.609375 -1.421875 
Q 20.21875 -1.421875 15.453125 -0.5625 
Q 10.6875 0.296875 5.421875 2 
L 5.421875 11.28125 
Q 10.40625 8.6875 15.234375 7.390625 
Q 20.0625 6.109375 24.8125 6.109375 
Q 31.15625 6.109375 34.5625 8.28125 
Q 37.984375 10.453125 37.984375 14.40625 
Q 37.984375 18.0625 35.515625 20.015625 
Q 33.0625 21.96875 24.703125 23.78125 
L 21.578125 24.515625 
Q 13.234375 26.265625 9.515625 29.90625 
Q 5.8125 33.546875 5.8125 39.890625 
Q 5.8125 47.609375 11.28125 51.796875 
Q 16.75 56 26.8125 56 
Q 31.78125 56 36.171875 55.265625 
Q 40.578125 54.546875 44.28125 53.078125 
z
" id="DejaVuSans-115"/>
     <path d="M 11.71875 12.40625 
L 22.015625 12.40625 
L 22.015625 0 
L 11.71875 0 
z
M 11.71875 51.703125 
L 22.015625 51.703125 
L 22.015625 39.3125 
L 11.71875 39.3125 
z
" id="DejaVuSans-58"/>
    </defs>
    <g transform="translate(424.561875 19.3575)scale(0.16 -0.16)">
     <use xlink:href="#DejaVuSans-70"/>
     <use x="57.378906" xlink:href="#DejaVuSans-97"/>
     <use x="118.658203" xlink:href="#DejaVuSans-115"/>
     <use x="170.757812" xlink:href="#DejaVuSans-116"/>
     <use x="209.966797" xlink:href="#DejaVuSans-112"/>
     <use x="273.443359" xlink:href="#DejaVuSans-58"/>
     <use x="307.134766" xlink:href="#DejaVuSans-32"/>
     <use x="338.921875" xlink:href="#DejaVuSans-68"/>
     <use x="415.923828" xlink:href="#DejaVuSans-117"/>
     <use x="479.302734" xlink:href="#DejaVuSans-112"/>
     <use x="542.779297" xlink:href="#DejaVuSans-108"/>
     <use x="570.5625" xlink:href="#DejaVuSans-105"/>
     <use x="598.345703" xlink:href="#DejaVuSans-99"/>
     <use x="653.326172" xlink:href="#DejaVuSans-97"/>
     <use x="714.605469" xlink:href="#DejaVuSans-116"/>
     <use x="753.814453" xlink:href="#DejaVuSans-105"/>
     <use x="781.597656" xlink:href="#DejaVuSans-111"/>
     <use x="842.779297" xlink:href="#DejaVuSans-110"/>
     <use x="906.158203" xlink:href="#DejaVuSans-32"/>
     <use x="937.945312" xlink:href="#DejaVuSans-82"/>
     <use x="1007.396484" xlink:href="#DejaVuSans-97"/>
     <use x="1068.675781" xlink:href="#DejaVuSans-116"/>
     <use x="1107.884766" xlink:href="#DejaVuSans-101"/>
    </g>
   </g>
  </g>
 </g>
 <defs>
  <clipPath id="p7c64a49bc9">
   <rect height="317.968" width="949.93" x="43.148125" y="35.2559"/>
  </clipPath>
 </defs>
</svg>
